<?xml version="1.0" standalone="no"?>
<!DOCTYPE svg PUBLIC "-//W3C//DTD SVG 1.1//EN" "http://www.w3.org/Graphics/SVG/1.1/DTD/svg11.dtd" >
<svg>
<metadata>
Created by FontForge 20120731 at Tue Dec 17 15:21:43 2013
 By root
(c) Copyright 2001 by Tom Truong. All Rights Reserved
</metadata>
<defs>
<font id="UVNKeChuyen1" horiz-adv-x="1024" >
  <font-face 
    font-family="UVN Ke Chuyen1"
    font-weight="400"
    font-style="italic"
    font-stretch="normal"
    units-per-em="2048"
    panose-1="3 3 6 2 3 6 7 8 11 5"
    ascent="1638"
    descent="-410"
    x-height="567"
    cap-height="1446"
    bbox="-573 -690 2689 2241"
    underline-thickness="70"
    underline-position="-235"
    slope="-28"
    unicode-range="U+0020-F002"
  />
<missing-glyph 
d="M128 0v2241h768v-2241h-768zM256 128h512v1985h-512v-1985z" />
    <glyph glyph-name=".notdef" 
d="M128 0v2241h768v-2241h-768zM256 128h512v1985h-512v-1985z" />
    <glyph glyph-name=".null" horiz-adv-x="0" 
 />
    <glyph glyph-name="nonmarkingreturn" horiz-adv-x="420" 
 />
    <glyph glyph-name="space" unicode=" " horiz-adv-x="420" 
 />
    <glyph glyph-name="exclam" unicode="!" horiz-adv-x="541" 
d="M18 49q0 34 25.5 64t58.5 30q58 0 58 -59q0 -33 -25 -63.5t-57 -30.5q-60 0 -60 59zM559 995l176 17l-511 -753q-35 -52 -52 -52q-18 0 -18 16q0 17 22 58z" />
    <glyph glyph-name="quotedbl" unicode="&#x22;" horiz-adv-x="666" 
d="M508 870h-29l-57 453q-4 32 -4 45q0 94 76 94q77 0 77 -94q0 -14 -4 -45zM186 870h-28l-60 453q-4 30 -4 45q0 94 78 94q76 0 76 -94q0 -13 -4 -44z" />
    <glyph glyph-name="numbersign" unicode="#" horiz-adv-x="1575" 
d="M700 877l-108 -304h301l106 304h-299zM809 1454h94l-174 -498h299l176 498h96l-176 -498h322l-27 -79h-323l-107 -304h348l-28 -79h-348l-175 -494h-96l174 494h-301l-174 -494h-94l174 494h-340l31 79h338l106 304h-368l28 79h369z" />
    <glyph glyph-name="dollar" unicode="$" horiz-adv-x="721" 
d="M670 752q6 -52 39 -52q34 0 53 41q16 32 16 70q0 50 -33 83zM444 650l58 -147l86 156q-25 25 -25 49q0 61 58 61q9 0 24 -4l74 143q-54 23 -92 23q-5 0 -35 -4zM434 697l119 225q-127 -41 -127 -170q0 -7 8 -55zM301 55q145 46 145 228q0 32 -2 48zM135 70q59 -23 92 -23
q17 0 35 2l170 322q-30 83 -59 141l-84 -154q16 -28 16 -47q0 -67 -74 -61zM109 82l96 180q-19 9 -38 47q-16 35 -30 35q-39 0 -67 -48q-25 -42 -25 -85q0 -82 64 -129zM123 41l-92 -170l-27 16l88 168q-80 67 -80 152q0 81 49 139q52 62 132 62q40 0 73 -27l88 168
q-26 82 -26 135q0 108 70.5 190t176.5 93l84 151l25 -14l-69 -137q59 -4 118 -29l94 176l29 -12l-96 -180q51 -49 51 -117q0 -67 -40 -119q-43 -55 -109 -55q-5 0 -50 12l-94 -178q29 -72 29 -139q0 -110 -78.5 -198.5t-187.5 -109.5l-78 -145l-27 16l68 127q-63 0 -121 25z
" />
    <glyph glyph-name="percent" unicode="%" horiz-adv-x="1147" 
d="M973 457q-55 0 -132 -93q-62 -73 -94 -143.5t-32 -120.5q0 -77 65 -77q82 0 171 119.5t89 230.5q0 84 -67 84zM1077 371q0 -128 -99.5 -254.5t-197.5 -126.5q-60 0 -97 46q-34 43 -34 105q0 119 100 233q103 118 220 118q108 0 108 -121zM516 954q-78 0 -171 -140
q-87 -131 -87 -216q0 -76 66 -76q81 0 170.5 118.5t89.5 229.5q0 84 -68 84zM985 866q-118 -61 -205 -61q-107 0 -162 51q-18 -146 -109.5 -256.5t-182.5 -110.5q-61 0 -97 47q-34 43 -34 105q0 119 98 232q102 118 219 118q58 0 88 -40q26 -36 51 -73q42 -40 127 -40
t182 54q81 51 162 103l12 -1q3 -4 3 -7q0 -17 -56 -74l-944 -962q-69 -70 -100 -70q-27 0 -27 13q0 14 66 79z" />
    <glyph glyph-name="ampersand" unicode="&#x26;" horiz-adv-x="1460" 
d="M741 705q158 51 231 97q128 81 128 197q0 57 -38.5 91t-96.5 34q-106 0 -175 -109q-61 -96 -61 -208q0 -18 6 -52t6 -50zM891 238q-115 254 -168 415q-387 -155 -387 -432q0 -83 47 -141q50 -62 131 -62q204 0 377 220zM928 233q51 -114 51 -260q0 -253 -166 -430
q-169 -180 -420 -180q-140 0 -238 69q-110 77 -110 212q0 84 70 160.5t153 76.5q13 0 17 -6q-53 -29 -106 -57q-101 -63 -101 -170q0 -100 85 -156q74 -49 179 -49q227 0 414.5 182.5t187.5 409.5q0 75 -39 174q-181 -219 -399 -219q-126 0 -203 71q-80 73 -80 197
q0 280 489 438v7q0 16 -6 52t-6 54q0 124 67 227q76 117 194 117q76 0 122.5 -44t46.5 -120q0 -120 -135 -210q-77 -52 -241 -113q24 -103 159 -402q242 312 287 364q228 261 340 261q35 0 57.5 -25.5t22.5 -60.5q0 -74 -76 -74q-27 0 -61 33t-47 33q-63 0 -262 -242
q-34 -42 -246 -320z" />
    <glyph glyph-name="quotesingle" unicode="'" horiz-adv-x="342" 
d="M184 870h-28l-60 454q-2 15 -2 44q0 94 76 94q78 0 78 -94q0 -14 -4 -44z" />
    <glyph glyph-name="parenleft" unicode="(" horiz-adv-x="664" 
d="M293 -346q-16 0 -60 61q-135 186 -135 422q0 382 332 757q263 297 668 525q131 74 155 74q17 0 17 -12q0 -6 -120 -77q-123 -73 -232 -161q-326 -262 -525.5 -602t-199.5 -621q0 -170 94 -318q18 -28 18 -34q0 -14 -12 -14z" />
    <glyph glyph-name="parenright" unicode=")" horiz-adv-x="664" 
d="M479 1491q16 0 60 -61q135 -186 135 -422q0 -383 -331 -756q-263 -297 -669 -525q-131 -73 -155 -73q-19 0 -19 10q0 6 122 78q127 75 235 162q325 260 524 599.5t199 620.5q0 171 -95 321q-18 28 -18 34q0 12 12 12z" />
    <glyph glyph-name="asterisk" unicode="*" horiz-adv-x="711" 
d="M674 1169l-164 -79q-48 -23 -72 -23q-39 0 -39 49q0 36 86 51l179 31l-152 102q-57 38 -57 66q0 47 41 47q26 0 72 -54l116 -136l14 179q7 91 47 91q50 0 50 -45q0 -9 -19 -62l-61 -169l164 77q49 23 71 23q39 0 39 -47q0 -38 -86 -53l-178 -31l152 -103q59 -40 59 -65
q0 -47 -43 -47q-27 0 -72 53l-116 137l-15 -181q-7 -89 -49 -89q-45 0 -45 47q0 15 78 231z" />
    <glyph glyph-name="plus" unicode="+" horiz-adv-x="1706" 
d="M813 1221h80v-570h559v-82h-559v-569h-80v569h-559v82h559v570z" />
    <glyph glyph-name="comma" unicode="," horiz-adv-x="418" 
d="M266 82q0 -94 -129 -196q-124 -97 -221 -97q-14 0 -14 14q0 15 38 27q114 35 153 88q30 43 30 109q0 116 82 116q61 0 61 -61z" />
    <glyph glyph-name="hyphen" unicode="-" horiz-adv-x="729" 
d="M115 252l43 90h477l-43 -90h-477z" />
    <glyph glyph-name="hyphen" unicode="&#x2010;" horiz-adv-x="729" 
d="M115 252l43 90h477l-43 -90h-477z" />
    <glyph glyph-name="period" unicode="." horiz-adv-x="418" 
d="M102 49q0 34 25.5 64t58.5 30q58 0 58 -59q0 -33 -25 -63.5t-57 -30.5q-60 0 -60 59z" />
    <glyph glyph-name="slash" unicode="/" horiz-adv-x="606" 
d="M-16 -182l643 1312h108l-735 -1320z" />
    <glyph glyph-name="zero" unicode="0" horiz-adv-x="834" 
d="M225 141q0 -116 72 -116q123 0 277 230q116 175 177 347q50 144 50 244q0 115 -82 115q-56 0 -131 -62q-132 -108 -247.5 -349t-115.5 -409zM285 -10q-86 0 -130 88q-34 69 -34 164q0 196 137 404q132 201 310 299q85 46 153 46q137 0 137 -190q0 -110 -51.5 -247
t-144.5 -267q-212 -297 -377 -297z" />
    <glyph glyph-name="one" unicode="1" horiz-adv-x="639" 
d="M111 0l530 850q-473 -440 -532 -440q-11 0 -11 14q0 7 106 89q174 136 416 371q110 107 119 107q17 0 17 -12q0 -25 -23 -70l-454 -889z" />
    <glyph glyph-name="two" unicode="2" horiz-adv-x="834" 
d="M113 156q100 88 182 88q46 0 80.5 -25.5t48.5 -98.5q12 -59 43 -59q50 0 143.5 107.5t96.5 107.5q8 -3 8 -16q0 -30 -89 -122q-80 -84 -121 -109q-54 -33 -108 -33q-40 0 -69 19q-40 26 -47 102q-6 63 -41 63q-69 0 -156.5 -95t-81.5 -95q-14 0 -14 16q0 56 81 154
q78 94 214 192q115 80 230 159q124 97 182 210q36 71 36 119q0 56 -38 88.5t-95 32.5q-114 0 -213 -82q-104 -85 -104 -197q0 -30 17 -55t46 -25q146 0 246 237q19 44 31 44q14 0 14 -29q0 -108 -82 -203q-85 -100 -191 -100q-118 0 -118 123q0 121 116.5 220t266.5 99
q95 0 155 -53t60 -147q0 -99 -78 -192q-82 -97 -343 -224q-244 -119 -308 -221z" />
    <glyph glyph-name="three" unicode="3" horiz-adv-x="834" 
d="M500 514q184 0 184 -164q0 -142 -143 -254q-135 -106 -281 -106q-89 0 -147 46q-64 49 -64 136q0 119 90 119q66 0 66 -72q0 -43 -48 -69t-48 -35q0 -35 45 -58q38 -18 77 -18q67 0 130 39q68 42 140 141q79 107 79 178q0 84 -82 84q-35 0 -87 -24.5t-59 -24.5
q-18 0 -18 17t72 53q350 174 350 356q0 94 -123 94q-87 0 -174 -60q-97 -65 -97 -147q0 -65 64 -65q61 0 123 61q55 53 78 118q11 30 20 30q10 0 10 -17q0 -92 -66 -166q-68 -77 -159 -77q-102 0 -102 100q0 97 104.5 179.5t235.5 82.5q79 0 131 -39q57 -44 57 -121
q0 -189 -358 -317z" />
    <glyph glyph-name="four" unicode="4" horiz-adv-x="815" 
d="M250 -10l133 203q-119 18 -172 18q-42 0 -148 -39q-20 0 -20 12q0 9 49 78q234 332 412 694l180 17q-233 -356 -551 -731q56 14 76 14q66 0 203 -25q324 486 354 486q14 0 14 -15q0 -5 -83 -157q-84 -155 -158 -315q49 6 90.5 31.5t81.5 51.5q14 0 14 -14q0 -10 -22 -32
q-77 -81 -189 -81q-30 -54 -80 -178z" />
    <glyph glyph-name="five" unicode="5" horiz-adv-x="797" 
d="M504 850l-185 -291q95 53 166 53q92 0 146.5 -56t54.5 -148q0 -162 -153 -292q-147 -124 -312 -124q-190 0 -190 166q0 137 102 137q66 0 66 -72q0 -57 -50.5 -73t-50.5 -41q0 -38 40 -60q34 -18 75 -18q128 0 248 154q114 146 114 278q0 110 -102 110q-79 0 -164 -72.5
t-82 -72.5q-16 0 -16 16q0 20 14 43l316 512q120 -51 225 -51q73 0 142 34q10 5 16 7q10 -3 10 -14q0 -36 -91 -91t-200 -55q-70 0 -139 21z" />
    <glyph glyph-name="six" unicode="6" horiz-adv-x="840" 
d="M217 121q0 -96 72 -96q101 0 207 156t106 311q0 96 -72 96q-109 0 -216 -182q-97 -166 -97 -285zM319 481q118 144 222 144q78 0 120 -59q37 -52 37 -132q0 -125 -79 -239q-74 -109 -190 -168q-73 -37 -136 -37q-91 0 -136 83q-36 66 -36 165q0 118 57 241
q86 187 267 340q201 170 386 170q62 0 113 -37q55 -40 55 -100q0 -41 -24 -72q-27 -35 -66 -35q-61 0 -61 58q0 30 26.5 64t26.5 36q0 51 -74 51q-140 0 -301 -175q-119 -129 -207 -298z" />
    <glyph glyph-name="seven" unicode="7" horiz-adv-x="778" 
d="M730 490l-18 -37h-157q-142 -217 -270 -453l-172 -10q98 202 318 463h-248l16 37h264q85 99 289 317q-80 -39 -136 -39q-47 0 -131.5 46t-105.5 46q-36 0 -87 -96t-87 -96q-27 0 -27 26q0 17 51 83q43 56 100 144q45 70 79 70q6 -2 6 -16l-43 -82q81 53 133 53
q33 0 104.5 -46t102.5 -46q52 0 107 56.5t65 56.5q22 0 22 -27q0 -7 -53 -74q-142 -181 -272 -376h150z" />
    <glyph glyph-name="eight" unicode="8" horiz-adv-x="834" 
d="M422 514q-76 122 -76 203q0 117 101 198q95 76 215 76q84 0 135 -43q53 -46 53 -129q0 -173 -281 -276q88 -135 88 -224q0 -136 -117 -235q-111 -94 -249 -94q-90 0 -150 50q-63 54 -63 142q0 112 122 207q73 57 222 125zM551 569q229 83 229 262q0 57 -31 94.5t-87 37.5
q-75 0 -131 -54.5t-56 -128.5q0 -80 76 -211zM438 487q-288 -124 -288 -307q0 -71 42 -115.5t113 -44.5q93 0 160 64.5t67 157.5q0 110 -94 245z" />
    <glyph glyph-name="nine" unicode="9" horiz-adv-x="840" 
d="M741 866q0 97 -69 97q-103 0 -206.5 -151.5t-103.5 -301.5q0 -98 64 -98q115 0 220 173q95 157 95 281zM645 522q-114 -147 -219 -147q-80 0 -121 63q-35 53 -35 137q0 147 126 283.5t272 136.5q88 0 134 -82q38 -66 38 -161q0 -201 -126 -398q-121 -190 -302 -290
q-129 -72 -238 -72q-79 0 -137 41q-66 46 -66 121q0 40 21 71q25 35 63 35q70 0 70 -78q0 -34 -27.5 -70t-27.5 -38q0 -49 86 -49q129 0 269.5 139t219.5 358z" />
    <glyph glyph-name="colon" unicode=":" horiz-adv-x="465" 
d="M274 453q0 34 25.5 64t58.5 30q58 0 58 -60q0 -33 -26 -63.5t-58 -30.5q-58 0 -58 60zM37 49q0 34 25.5 64t58.5 30q57 0 57 -59q0 -33 -25 -63.5t-57 -30.5q-59 0 -59 59z" />
    <glyph glyph-name="semicolon" unicode=";" horiz-adv-x="465" 
d="M274 453q0 34 25.5 64t58.5 30q58 0 58 -60q0 -33 -26 -63.5t-58 -30.5q-58 0 -58 60zM184 82q0 -92 -130 -195q-124 -98 -220 -98q-16 0 -16 14q0 15 38 27q114 35 153 87q17 25 34 142q11 82 78 82q63 0 63 -59z" />
    <glyph glyph-name="less" unicode="&#x3c;" horiz-adv-x="1706" 
d="M1442 1124v-90l-1045 -424l1045 -424v-88l-1178 482v61z" />
    <glyph glyph-name="equal" unicode="=" horiz-adv-x="1706" 
d="M254 469h1198v-82h-1198v82zM254 831h1198v-79h-1198v79z" />
    <glyph glyph-name="greater" unicode="&#x3e;" horiz-adv-x="1706" 
d="M264 1124l1178 -483v-61l-1178 -482v88l1045 424l-1045 424v90z" />
    <glyph glyph-name="question" unicode="?" horiz-adv-x="668" 
d="M37 49q0 34 25.5 64t58.5 30q57 0 57 -59q0 -33 -25 -63.5t-57 -30.5q-59 0 -59 59zM162 221q0 22 48 95q47 70 120 147l206 202q121 135 121 246q0 78 -98 78q-70 0 -139.5 -50t-69.5 -83q0 -5 38 -32t38 -60q0 -29 -19.5 -49.5t-48.5 -20.5q-33 0 -54 28q-19 25 -19 60
q0 98 93 170q87 68 187 68q88 0 139.5 -55t51.5 -144q0 -112 -89 -196q-43 -39 -185 -124q-173 -102 -258 -234q-40 -62 -50 -62q-12 0 -12 16z" />
    <glyph glyph-name="at" unicode="@" horiz-adv-x="2019" 
d="M1194 344q-118 -217 -317 -217q-127 0 -199 106q-62 93 -62 226q0 189 143 362q151 183 335 183q172 0 219 -201l57 184h121l-168 -604q-20 -72 -20 -109q0 -110 104 -110q48 0 108 29q148 71 236 242q82 159 82 333q0 304 -207 479q-194 164 -504 164q-390 0 -634 -260
q-240 -255 -240 -647q0 -175 56 -301q91 -208 317 -329q207 -112 448 -112q348 0 623 209l26 -30q-295 -220 -649 -220q-191 0 -342 45q-265 80 -421 288t-156 483q0 388 290 654q282 259 674 259q332 0 538 -174q220 -185 220 -510q0 -330 -221 -530q-123 -111 -252 -111
q-193 0 -205 219zM1090 971q-57 0 -104 -31q-98 -64 -179 -253q-76 -178 -76 -306q0 -89 36 -147q44 -68 128 -68q156 0 276 217q105 189 105 360q0 88 -48 154q-53 74 -138 74z" />
    <glyph glyph-name="A" unicode="A" horiz-adv-x="1796" 
d="M1413 322q320 664 741 1077q-272 -121 -772 -643q43 -150 43 -283q0 -75 -12 -151zM913 299q188 159 433 459q-109 264 -355 264q-138 0 -224.5 -92.5t-86.5 -231.5q0 -237 233 -399zM940 283q191 -113 385 -129q70 150 70 350q0 106 -39 223q-161 -184 -201 -229
q-117 -128 -215 -215zM918 260q-297 -266 -553 -266q-114 0 -198 53q-99 62 -99 170q0 56 26 97q31 48 84 48q37 0 62.5 -25.5t25.5 -62.5q0 -54 -54 -84t-54 -34q0 -60 85 -96q67 -29 136 -29q256 0 510 248q-293 218 -293 458q0 145 99 242.5t245 97.5q290 0 428 -295
q262 293 511.5 481.5t338.5 188.5q5 0 10 -1l2 -5q-30 -43 -99 -132q-307 -398 -644 -1160q168 14 307 133q11 10 31 22l3 -2q0 -3 1 -6q0 -17 -27 -45q-122 -124 -327 -133l-30 -72q-25 -48 -52 -51q-97 -10 -111 -10q-16 0 -16 14q0 8 48 127q-203 18 -396 129z" />
    <glyph glyph-name="B" unicode="B" horiz-adv-x="1915" 
d="M1581 772q248 -93 248 -311q0 -189 -164 -332q-159 -139 -350 -139q-106 0 -172 54q-72 58 -72 161q0 108 83.5 213.5t135.5 105.5q5 0 10 -1l3 -5q-50 -46 -100 -91q-97 -96 -97 -210q0 -83 49.5 -132.5t132.5 -49.5q155 0 274 145.5t119 335.5q0 78 -40 147
q-47 82 -119 82q-24 0 -70 -15t-70 -15q-51 0 -51 37q0 43 51 43q16 0 47.5 -4.5t47.5 -4.5q115 0 198 116q76 106 76 226q0 137 -90 215q-144 -102 -376 -509q-157 -276 -229 -378q-140 -200 -304 -317q-201 -145 -400 -145q-99 0 -173 39q-93 49 -93 139q0 42 26.5 73
t67.5 31q37 0 64.5 -27.5t27.5 -64.5q0 -24 -19.5 -51.5t-19.5 -30.5q0 -39 57 -58q41 -15 89 -15q158 0 290 121q129 117 384 563q143 250 275 397.5t300 255.5q-138 70 -344 70q-283 0 -532 -112q-274 -122 -415 -344q-83 -130 -83 -241q0 -76 46.5 -120t123.5 -44
q164 0 347 177q146 142 241 323q31 59 59 140q12 38 39 77q12 -6 12 -28q0 -55 -33 -159q-77 -240 -228 -401q-180 -192 -404 -192q-107 0 -171 53q-69 57 -69 162q0 112 79 244q144 241 437 375q266 122 570 122q194 0 374 -71q94 49 123 49q4 0 8 -1l2 -5q-1 -11 -41 -33
q-26 -15 -53 -29q172 -107 172 -278q0 -231 -307 -328z" />
    <glyph glyph-name="C" unicode="C" horiz-adv-x="1190" 
d="M481 702q-102 -210 -102 -426q0 -251 219 -251q135 0 268 88q128 83 197 206q49 88 49 158q0 57 -29 95q-32 42 -88 42q-103 0 -202 -107q-78 -85 -127 -202q-18 -43 -35.5 -108.5t-28.5 -65.5q-14 0 -14 35q0 206 111.5 354t263.5 148q83 0 132 -52q46 -51 46 -135
q0 -135 -125 -274q-112 -126 -250 -178q-101 -39 -207 -39q-157 0 -246 104q-84 98 -84 258q0 145 64 305q-254 -55 -268 -55q-18 0 -21 10q2 13 132 41q55 12 165 37q289 481 809 700q198 83 330 83q60 0 102 -28q49 -32 49 -89q0 -327 -1110 -654zM494 739q352 99 617 218
q450 204 450 391q0 98 -121 98q-113 0 -291 -82q-207 -95 -379.5 -259.5t-275.5 -365.5z" />
    <glyph glyph-name="D" unicode="D" horiz-adv-x="1792" 
d="M1690 1243q-104 -121 -243 -383q-127 -238 -195 -343q-118 -182 -249 -302q-127 -116 -249 -164q26 0 77 -4t76 -4q579 0 826 434q102 180 102 371q0 234 -145 395zM1718 1268q146 -187 146 -418q0 -266 -172 -488q-166 -213 -423 -302q-174 -60 -380 -60q-39 0 -116 3
t-116 3q-32 0 -95 -8t-95 -8q-256 0 -256 73q0 46 96 46q78 0 197 -26t149 -26q131 0 287 210q68 93 199 328q264 475 506 685q-184 150 -447 150q-256 0 -456 -135t-299 -373q-50 -120 -50 -220q0 -176 176 -176q216 0 377.5 205.5t161.5 509.5q0 41 12 41q15 0 15 -39
q0 -326 -169 -538.5t-407 -212.5q-127 0 -201 85q-69 80 -69 209q0 205 165 382q145 155 356 233q170 63 359 63q303 0 502 -157q194 135 252 135q4 0 7 -1l1 -3q-3 -9 -76 -57q-79 -51 -137 -113z" />
    <glyph glyph-name="E" unicode="E" 
d="M678 842q-96 67 -96 166q0 94 50 178q65 111 210.5 199t271.5 88q100 0 159.5 -54t59.5 -153q0 -120 -90 -215t-209 -95q-58 0 -95.5 35.5t-37.5 93.5q0 83 78.5 158.5t130.5 75.5q4 0 9 -1l3 -5q-45 -40 -89 -80q-85 -82 -85 -164q0 -88 90 -88q101 0 185 92
q82 89 82 191q0 178 -179 178q-150 0 -302 -173q-148 -169 -148 -321q0 -93 89 -93h20q13 1 20 1q39 0 64.5 -10t25.5 -29q0 -29 -61 -29q-25 0 -68 12.5t-55 12.5q-38 0 -102 -22q-162 -55 -269 -201t-107 -316q0 -111 63 -181t173 -70q156 0 315.5 148.5t159.5 303.5
q0 59 -31 97q-33 42 -90 42q-69 0 -156 -77q-145 -129 -196 -335q-8 -35 -27 -71q-10 6 -10 37q0 194 112.5 340.5t250.5 146.5q82 0 132 -47t50 -129q0 -123 -109 -258q-98 -122 -220 -181q-104 -50 -216 -50q-147 0 -243 79q-103 84 -103 228q0 181 162 333.5t428 211.5z
" />
    <glyph glyph-name="F" unicode="F" horiz-adv-x="1495" 
d="M1180 1210q0 -26 -30 -105q-107 -282 -320 -421q-155 -102 -295 -102q-102 0 -170 48q-78 54 -78 152q0 150 111 287q108 132 311 227q307 143 887 143h136q90 -1 134 -1q161 0 316 23q20 3 24 3q28 0 28 -16q0 -32 -118.5 -76.5t-264.5 -44.5q-109 0 -330 21.5
t-333 21.5q-236 0 -454 -92q-246 -104 -355 -286q-60 -99 -60 -193q0 -76 47 -121t123 -45q164 0 349 154q154 128 254 298q34 70 79 144q9 -4 9 -19zM1321 670q-153 -277 -340 -452q-245 -228 -500 -228q-108 0 -187 44q-97 55 -97 154q0 42 25 71.5t67 29.5q82 0 82 -86
q0 -20 -13.5 -53.5t-13.5 -40.5q0 -44 59 -69q46 -20 97 -20q349 0 647 619q-175 -56 -321 -200q-38 -38 -48 -38q-3 0 -5 2t-3 5q0 38 118 127.5t277 142.5q146 258 312.5 434t240.5 176l2 -2q-5 -6 -17 -19q-196 -198 -366 -565q153 24 316 113q42 23 49 23q14 0 14 -11
q-5 -10 -23 -32q-124 -154 -190 -287q-13 -35 -53 -88q-69 -48 -121 -51q-10 3 -10 20q0 42 110 181q82 103 150 173q-128 -56 -258 -73z" />
    <glyph glyph-name="G" unicode="G" horiz-adv-x="1180" 
d="M590 752q320 94 571 212q414 195 414 369q0 84 -133 84q-165 0 -395 -143q-210 -132 -323 -279q-82 -107 -134 -243zM1047 582q-232 -195 -404 -195q-109 0 -171 77q-58 72 -58 183v25q-248 -56 -271 -56q-13 0 -16 9q1 16 115 40q93 20 174 40q34 203 255 397
q177 157 409 258q222 96 368 96q164 0 164 -115q0 -190 -434 -399q-256 -123 -596 -225q-27 -71 -27 -152q0 -141 113 -141q114 0 270 110q97 69 238 206q114 110 127 110q14 0 14 -8q0 -10 -54 -121q-65 -133 -67 -139q-110 -253 -278 -408q-200 -184 -445 -184
q-107 0 -187 48q-96 57 -96 157q0 50 29.5 86t77.5 36q35 0 60.5 -23t25.5 -58q0 -26 -28.5 -65.5t-28.5 -55.5q0 -97 151 -97q146 0 276 125q127 124 294 439z" />
    <glyph glyph-name="H" unicode="H" horiz-adv-x="1778" 
d="M954 584q-384 -119 -538 -215q-162 -101 -162 -209q0 -59 45 -94q42 -33 102 -33q169 0 337 200q118 140 216 351zM1702 838q244 73 427 172q286 154 286 309q0 84 -80 84q-139 0 -354 -221q-143 -147 -279 -344zM1155 645q-142 -251 -335 -429q-246 -226 -478 -226
q-69 0 -115 32q-51 36 -51 103q0 256 793 496q148 274 374 548q-215 -110 -294 -110q-144 0 -144 170q0 18 5 52.5t5 51.5q0 60 -30 60q-93 0 -242 -151q-103 -105 -192 -234q-21 -31 -54 -64l-4 3q-1 3 -2 7q0 22 52 97q153 218 331 336q92 61 156 61q123 0 123 -152
q0 -22 -4.5 -64.5t-4.5 -64.5q0 -65 50 -65q105 0 359 175t273 175q33 0 33 -27t-109.5 -77t-170.5 -111q-52 -52 -170 -268q-113 -207 -141 -291q203 56 358 113q209 285 440.5 464t366.5 179q116 0 116 -109q0 -177 -307 -342q-197 -106 -461 -182q-268 -483 -268 -674
q0 -88 60 -88q62 0 189 126t124 126q12 0 12 -10q0 -20 -119 -142q-73 -75 -129 -109q-60 -36 -106 -36q-71 0 -109 76q-30 61 -30 139q0 213 194 543q-125 -49 -344 -107z" />
    <glyph glyph-name="I" unicode="I" horiz-adv-x="1139" 
d="M1028 688q285 531 649 721q-365 -28 -587 -179q-224 -154 -224 -358q0 -76 44 -127t118 -57zM1165 657q-141 -268 -312 -438q-230 -229 -468 -229q-95 0 -164 36q-88 46 -88 132q0 100 92 100q74 0 74 -82q0 -18 -12.5 -46t-12.5 -32q0 -40 46 -62q36 -18 81 -18
q334 0 615 641q-103 14 -167 78q-67 68 -67 170q0 313 566 471q244 68 417 68q22 0 27 -10q-2 -9 -48 -26q-53 -20 -87 -40q-134 -79 -273 -305q-63 -101 -198 -371q114 24 229 132q12 13 37 28l4 -2q2 -4 2 -8q0 -37 -86 -96q-70 -49 -121 -68q-42 -16 -86 -23z" />
    <glyph glyph-name="J" unicode="J" horiz-adv-x="987" 
d="M416 -78q-793 -211 -793 -463q0 -114 137 -114q193 0 392 202q151 155 264 375zM791 621q377 654 718 815q-395 -49 -631 -223q-239 -177 -239 -402q0 -179 152 -190zM578 -37q-175 -251 -366 -420q-264 -233 -486 -233q-77 0 -129 37q-58 41 -58 116q0 132 200 245.5
t693 250.5q98 174 338 631q-105 8 -168 66q-67 61 -67 165q0 238 290 417q211 129 505 195q148 33 218 33q29 0 35 -10q-4 -8 -75 -50q-78 -46 -138 -106q-155 -155 -412 -671q122 29 238 143q12 13 35 29l4 -3q1 -3 2 -7q0 -15 -25 -45q-103 -122 -276 -156
q-165 -307 -330 -584q199 81 354 252q30 33 35 33q13 0 13 -10q0 -39 -130 -147t-300 -171z" />
    <glyph glyph-name="K" unicode="K" horiz-adv-x="1817" 
d="M1391 1241q-220 -127 -310 -127q-64 0 -104.5 42t-40.5 106q0 12 1 35t1 34q0 55 -49 55q-56 0 -151 -80q-139 -119 -259 -327q-16 -29 -43 -59l-4 2q-1 2 -2 6q0 26 43 100q84 142 206 262q158 156 279 156t121 -150q0 -7 -1 -20.5t-1 -20.5q0 -90 62 -90q129 0 451 227
q77 54 96 54q28 0 28 -19q0 -33 -91 -71q-161 -68 -267 -238q-34 -54 -142 -279q-111 -229 -208 -372q-324 -477 -682 -477q-94 0 -162 36q-84 45 -84 132q0 37 27.5 64.5t64.5 27.5q36 0 59 -24t23 -60q0 -19 -14.5 -48t-14.5 -34q0 -31 48 -50q37 -14 75 -14
q134 0 270 121q110 97 189 238q7 12 54 99q272 500 532 763zM1284 702q213 -69 213 -292q0 -50 -17.5 -148t-17.5 -147q0 -76 58 -76q57 0 181.5 126t125.5 126q10 0 10 -10q0 -25 -103 -127q-93 -91 -135 -119q-55 -37 -94 -37q-80 0 -128 91q-40 76 -40 163
q0 46 18.5 135.5t18.5 134.5q0 148 -131 148q-7 0 -20.5 -1t-20.5 -1q-33 0 -33 24q0 22 36 27l52 4q105 15 234 133q45 42 162 178q225 264 421 354q110 50 201 50q73 0 127 -36q62 -40 62 -110q0 -37 -25.5 -63.5t-62.5 -26.5q-28 0 -48 21t-20 49q0 15 13.5 43t13.5 43
q0 49 -78 49q-91 0 -253 -153q-70 -65 -214 -228q-127 -143 -241 -215q-117 -74 -265 -109z" />
    <glyph glyph-name="L" unicode="L" horiz-adv-x="1526" 
d="M1206 791q264 94 445.5 263.5t181.5 284.5q0 84 -76 84q-148 0 -329 -248q-121 -166 -222 -384zM600 121q-231 84 -340 84q-143 0 -143 -82q0 -53 75 -82q56 -21 121 -21q151 0 287 101zM655 100q-185 -106 -344 -106q-85 0 -149 26q-88 35 -88 107q0 125 207 125
q129 0 391 -74q119 83 336 531q-266 -70 -308 -70q-22 0 -22 6q0 13 123 42q131 30 223 56q174 314 384.5 513.5t344.5 199.5q111 0 111 -110q0 -135 -192.5 -312.5t-477.5 -277.5q-199 -397 -453 -596q227 -86 398 -86q106 0 207 61q63 38 141 113q63 62 76 63l3 -2l1 -4
q-3 -29 -82 -102q-230 -213 -412 -213q-120 0 -418 110z" />
    <glyph glyph-name="M" unicode="M" horiz-adv-x="2185" 
d="M1921 1350q-334 -243 -700 -643q-265 -290 -417 -427q-321 -290 -493 -290q-109 0 -195 56q-98 64 -98 167q0 47 32.5 84t78.5 37q35 0 61.5 -26.5t26.5 -61.5q0 -29 -31.5 -66t-31.5 -51q0 -51 66 -83q54 -26 112 -26q91 0 199 62q179 103 559 526q99 110 303 324
q220 217 410 368q70 55 111 85q91 64 118 65l4 -2l2 -6q0 -6 -126 -163q-127 -160 -249 -351q-408 -640 -408 -778q0 -5 3 -12l6 -3q36 1 276 292q256 310 381 453q221 251 410 427q152 141 190 141q1 0 2.5 -1.5t1.5 -4.5q0 -13 -92 -154q-352 -539 -494 -838
q-122 -257 -122 -358q0 -49 49 -49q57 0 138 64q52 42 125 120q59 64 64 64q13 0 13 -10q0 -17 -80 -99q-183 -188 -295 -188q-66 0 -103 53q-32 47 -32 115q0 208 263 599q138 205 411 537q-109 -86 -264 -253t-431 -498q-125 -150 -250 -301q-207 -236 -266 -236
q-61 0 -61 103q0 220 328 659q217 290 495 578z" />
    <glyph glyph-name="N" unicode="N" horiz-adv-x="1802" 
d="M1479 1235q-383 -707 -643 -973t-537 -266q-102 0 -178 42q-92 51 -92 146q0 43 26.5 74t69.5 31q33 0 55.5 -22.5t22.5 -55.5q0 -29 -20.5 -69.5t-20.5 -43.5q0 -75 145 -75q312 0 631 394q146 180 425 665q214 372 249 372q8 0 8 -14q0 -8 -11 -39q-55 -156 -55 -342
q0 -46 1 -137t1 -136q0 -323 -63 -600q663 1268 993 1268q92 0 92 -80q0 -33 -23 -58.5t-56 -25.5q-41 0 -66 45t-43 45q-68 0 -216 -169q-258 -295 -617 -961q-140 -260 -156 -260q-15 0 -15 22q1 4 5 13q41 101 41 233q0 74 -18.5 222t-18.5 222q0 211 84 533z" />
    <glyph glyph-name="O" unicode="O" horiz-adv-x="1145" 
d="M1317 1040q0 -259 -203 -562q-196 -292 -434 -418q-133 -70 -246 -70q-153 0 -238 118q-75 104 -75 263q0 178 102 379q134 264 400 478q296 238 561 238q107 0 179 -50q83 -57 83 -159q0 -92 -23 -92q-8 4 -8 21q0 9 2 27.5t2 27.5q0 97 -66 149q-59 48 -159 48
q-225 0 -458 -209q-209 -187 -352 -470q-140 -278 -140 -497q0 -102 49 -166q54 -71 153 -71q114 0 257 82q314 178 496 584q89 201 89 345q0 86 -32 144q-40 73 -119 73q-111 0 -258 -145q-202 -200 -284 -492q-8 -34 -28 -71q-8 6 -8 30q0 162 119 381q83 153 205 246.5
t229 93.5q105 0 159 -79q46 -67 46 -177z" />
    <glyph glyph-name="P" unicode="P" horiz-adv-x="1503" 
d="M1622 1346q-112 -90 -308 -454q-117 -217 -188 -333q-147 -240 -327 -387q-224 -184 -459 -184q-96 0 -167 38q-87 48 -87 136q0 46 25 79q27 38 71 38q36 0 61 -26.5t25 -62.5q0 -16 -12 -46t-12 -46q0 -40 50 -61q39 -17 85 -17q159 0 306 142q140 136 347 508
q159 286 283 435t278 259q-156 80 -364 80q-273 0 -534 -124q-281 -133 -411 -353q-67 -114 -67 -215q0 -174 170 -174q159 0 343 170q147 136 247 311q43 76 73 156q13 37 35 79q9 -5 9 -20q0 -60 -34 -168q-104 -322 -340 -485q-149 -103 -300 -103q-109 0 -173 55
q-67 59 -67 166q0 103 71 226q138 240 429 378q267 125 565 125q219 0 389 -73l56 34q41 25 55 25q12 0 12 -8q0 -7 -39 -33q-26 -16 -51 -33q223 -141 223 -352q0 -155 -121.5 -272t-277.5 -117q-50 0 -116 17q-85 22 -85 57q0 10 8 10q-1 0 48.5 -18.5t87.5 -18.5
q129 0 226 123t97 291q0 161 -135 246z" />
    <glyph glyph-name="Q" unicode="Q" horiz-adv-x="1616" 
d="M705 96q-243 107 -386 107q-110 0 -110 -76q0 -102 205 -102q143 0 291 71zM743 78q-181 -80 -335 -80q-87 0 -149 25q-87 34 -87 106q0 67 76 100q57 25 133 25q152 0 444 -92q280 122 512 420q246 316 246 604q0 115 -77 182q-72 64 -189 64q-199 0 -404 -138
q-195 -131 -294 -313q-56 -103 -56 -182q0 -178 180 -178q125 0 277 121q201 159 350 464q35 72 47 72q8 0 8 -16q0 -27 -29 -113q-80 -232 -237 -392q-184 -188 -403 -188q-104 0 -166 57t-62 160q0 180 185 373q162 171 352 247q140 56 272 56q174 0 272.5 -101t98.5 -276
q0 -514 -838 -940q228 -88 334 -88q100 0 210 66q73 44 159 124q71 66 76 66q1 0 6 -1q2 -3 2 -5q0 -26 -92 -108q-235 -209 -461 -209q-120 0 -361 88z" />
    <glyph glyph-name="R" unicode="R" horiz-adv-x="1870" 
d="M1622 1346q-112 -90 -308 -454q-117 -218 -188 -333q-148 -240 -327 -387q-224 -184 -459 -184q-96 0 -167 38q-87 48 -87 136q0 46 25 79q27 38 71 38q36 0 61 -26.5t25 -62.5q0 -16 -12 -46t-12 -46q0 -40 50 -61q39 -17 85 -17q160 0 306 142q141 137 347 508
q158 285 282.5 434.5t278.5 259.5q-156 80 -364 80q-273 0 -534 -124q-281 -133 -411 -353q-67 -113 -67 -215q0 -174 170 -174q159 0 343 171q147 136 247 310q43 75 73 156q13 38 35 79q9 -6 9 -24q0 -57 -34 -164q-75 -233 -235 -397q-185 -191 -405 -191q-109 0 -173 55
q-67 59 -67 166q0 103 71 226q138 240 429 378q267 125 565 125q219 0 389 -73q108 59 111 59q12 0 12 -8q0 -7 -39 -33q-26 -17 -51 -33q201 -103 201 -284q0 -153 -143 -269q-128 -104 -289 -125q157 -87 157 -243q0 -71 -32.5 -197t-32.5 -160q0 -63 49 -63
q57 0 180.5 126t122.5 126q10 0 10 -10q0 -23 -103 -126q-95 -94 -135 -121q-54 -38 -93 -38q-73 0 -117 78q-37 65 -37 143q0 61 30.5 180t30.5 174q0 105 -71 105q-13 0 -40 -3t-40 -3q-62 0 -62 39t62 39q19 0 54.5 -9.5t53.5 -9.5q100 0 203 126.5t103 283.5
q0 133 -107 207z" />
    <glyph glyph-name="S" unicode="S" horiz-adv-x="1190" 
d="M1264 741q268 144 443 325t175 290q0 78 -80 78q-255 0 -538 -693zM1247 700q-116 -295 -308 -484q-231 -226 -511 -226q-105 0 -187 42q-102 52 -102 148q0 45 26.5 76t70.5 31q34 0 57.5 -24t23.5 -58q0 -22 -14 -56t-14 -43q0 -46 58 -69q43 -17 97 -17q216 0 388 199
q132 151 223 395q-292 -147 -340 -147q-8 0 -12.5 2t-4.5 4q0 11 128 66q133 57 243 114q159 362 367 585.5t368 223.5q109 0 109 -104q0 -126 -186.5 -315t-479.5 -343z" />
    <glyph glyph-name="T" unicode="T" horiz-adv-x="1309" 
d="M1718 1284q-4 -7 -16 -19q-157 -157 -291 -417q-151 -292 -272 -452q-181 -240 -394 -341q-136 -65 -264 -65q-108 0 -187 44q-97 55 -97 154q0 42 25 71.5t67 29.5q82 0 82 -86q0 -20 -13.5 -53.5t-13.5 -40.5q0 -44 59 -69q46 -20 97 -20q167 0 318 138
q114 105 235 307q88 158 176 315q123 213 271 359.5t214 146.5h4v-2zM1180 1212q0 -26 -30 -106q-106 -282 -320 -422q-155 -102 -295 -102q-102 0 -170 48q-78 54 -78 152q0 150 111 287q108 132 311 227q307 143 887 143h136q90 -1 134 -1q161 0 316 23q20 3 24 3
q28 0 28 -16q0 -32 -118.5 -76.5t-264.5 -44.5q-109 0 -330 21.5t-333 21.5q-236 0 -454 -92q-246 -104 -355 -286q-60 -99 -60 -193q0 -76 47 -121t123 -45q164 0 348 153q155 129 253 297q35 71 81 146q9 -3 9 -17z" />
    <glyph glyph-name="U" unicode="U" horiz-adv-x="1350" 
d="M999 418q-117 -143 -244 -258q-188 -170 -292 -170q-113 0 -113 157q0 163 199 465l260 394q109 165 109 258q0 166 -213 166q-121 0 -249 -53q-163 -67 -296 -200q-158 -157 -158 -307q0 -71 40.5 -113t111.5 -42q135 0 286 134q130 116 199 257q26 54 48 135
q9 36 30 74q10 -7 10 -31q0 -163 -81 -312.5t-217 -237.5q-127 -83 -251 -83q-95 0 -152 56t-57 151q0 87 50 181q91 173 296 296t402 123q131 0 202.5 -70.5t71.5 -201.5q0 -108 -71 -249q-36 -72 -136 -226l-235 -361q-129 -198 -129 -262q0 -57 65 -57q102 0 301 197
t410 522l440 677l170 13l-690 -1082q-125 -196 -125 -274q0 -47 41 -47q75 0 202 127t124 127q12 0 12 -10q0 -18 -104 -125q-80 -82 -138 -120q-63 -40 -108 -40q-96 0 -96 149q0 115 75 273z" />
    <glyph glyph-name="V" unicode="V" horiz-adv-x="1262" 
d="M1178 1227q-217 -150 -304 -150q-76 0 -102 75q0 1 -25 139q-13 75 -57 75q-43 0 -115 -64q-116 -102 -206 -285q-31 -63 -39 -63q-1 0 -3.5 2.5t-2.5 6.5q0 19 29 80q61 131 170 252q137 151 247 151q78 0 112 -77q13 -30 33 -143q13 -77 43 -77q48 0 137 55
q123 75 215 209q33 49 54 49q31 0 31 -35q0 -17 -43 -57q-58 -52 -60 -55q-46 -56 -126 -324q-141 -471 -488 -950q150 106 317 274q151 152 360 401q335 399 348 414q58 66 179 195q125 121 182 121q76 0 76 -78q0 -84 -72 -84q-21 0 -50.5 22.5t-41.5 22.5
q-72 0 -421 -420q-261 -314 -343 -406q-199 -224 -376 -375q-197 -167 -232 -167q-24 0 -24 19q0 13 71 133q86 146 172 393q162 461 355 721z" />
    <glyph glyph-name="W" unicode="W" horiz-adv-x="1817" 
d="M1178 1227q-211 -150 -301 -150q-77 0 -104 75q-1 3 -26 139q-13 75 -57 75q-48 0 -126 -71q-91 -84 -197 -286q-12 -26 -39 -55q-4 2 -4 7q0 24 27 82q61 130 172 251q137 152 247 152q77 0 110 -77q12 -28 33 -143q14 -77 45 -77q61 0 159 70q81 57 136 120
q14 16 55 74q34 49 56 49q31 0 31 -35q0 -17 -44 -57q-59 -53 -61 -55q-44 -53 -119 -305q-151 -509 -512 -987q215 158 521 565q183 243 210 278q123 158 224 269q83 82 221 243q57 84 78 84q31 0 31 -35q0 -18 -43 -57q-59 -53 -60 -55q-47 -57 -121 -306
q-148 -498 -495 -966q195 145 405 369q119 128 359 415q160 192 262 308q57 66 177 193q122 118 179 118q74 0 74 -78q0 -84 -70 -84q-21 0 -50.5 22.5t-41.5 22.5q-71 0 -423 -422q-257 -309 -341 -403q-197 -222 -372 -373q-196 -170 -230 -170q-25 0 -25 19q0 13 71 134
q93 156 172 386q147 425 325 686q-149 -154 -384 -465q-219 -290 -266 -348q-158 -195 -301 -316q-112 -96 -141 -96q-26 0 -26 19q0 13 71 133q85 146 171 389q163 463 358 725z" />
    <glyph glyph-name="X" unicode="X" horiz-adv-x="1495" 
d="M1118 705q-856 -222 -856 -558q0 -124 131 -124q186 0 421 258q157 174 304 424zM1311 791q421 127 598 248q182 124 182 272q0 106 -94 106q-125 0 -316 -170t-370 -456zM1010 346q-343 -354 -637 -354q-79 0 -134 37q-63 43 -63 118q0 335 961 594q172 293 172 473
q0 211 -193 211q-148 0 -315 -109q-155 -100 -242 -235q-74 -115 -74 -209q0 -120 113 -120q122 0 262 129q121 112 182 241q25 53 38 121q5 32 20 68q12 -7 12 -33q0 -238 -154.5 -409t-351.5 -171q-149 0 -149 166q0 82 52 180q84 160 255 280q181 128 352 128
q133 0 203 -87q65 -80 65 -216v-39q-1 -25 -1 -38q133 143 276 242q191 134 330 134q133 0 133 -135q0 -161 -191 -291.5t-637 -267.5q-223 -379 -223 -613q0 -118 86 -118q59 0 146 69q56 46 133 130q63 69 67 69q13 0 13 -10q0 -24 -108 -128q-100 -96 -140 -121
q-63 -40 -121 -40q-150 0 -150 235q0 36 13 119z" />
    <glyph glyph-name="Y" unicode="Y" horiz-adv-x="1432" 
d="M1335 713q-321 -363 -487 -363q-61 0 -94 53q-27 44 -27 109q0 126 90 281q84 127 168 253q90 140 90 228q0 168 -217 168q-221 0 -450 -170q-246 -181 -246 -391q0 -60 35 -102t94 -42q135 0 281 113q127 100 204 233q41 72 70 161q12 41 33 85q12 -6 12 -31
q0 -241 -169 -429.5t-374 -188.5q-223 0 -223 197q0 82 51 178q94 175 295 295t401 120q129 0 203 -73.5t74 -202.5q0 -184 -193 -452q-157 -218 -157 -289q0 -66 59 -66q117 0 334 219q145 146 278 325q21 29 64 85q152 192 312 315t227 123q12 0 12 -8q0 -10 -41 -29
q-173 -83 -286 -236q-56 -76 -185 -324q-157 -301 -248 -434q-164 -237 -353 -347q-149 -86 -292 -86q-94 0 -160 37q-82 45 -82 131q0 108 84 108q80 0 80 -88q0 -19 -16.5 -53.5t-16.5 -42.5q0 -62 119 -62q184 0 326 147t321 546z" />
    <glyph glyph-name="Z" unicode="Z" horiz-adv-x="1417" 
d="M569 360q257 150 385 150q88 0 142.5 -53.5t54.5 -141.5q0 -51 -41 -142t-41 -110q0 -38 33 -38q89 0 291 236q26 30 32 30q13 0 13 -10q0 -26 -127 -150q-78 -77 -135 -111q-61 -38 -101 -38q-59 0 -89 63q-23 49 -23 115q0 62 40.5 149.5t40.5 93.5q0 74 -98 74
q-115 0 -291 -102q-138 -80 -256 -185q-29 -26 -93 -89q-125 -124 -173 -124q-27 0 -27 29q0 66 140.5 145t269.5 216q32 34 85 96q388 454 816 786q-134 -63 -248 -63q-98 0 -169 47l-104 88q-60 47 -132 47q-153 0 -305 -133q-158 -137 -158 -287q0 -141 143 -141
q109 0 236 90q109 77 182 182q10 15 38 62q8 16 26 35q6 -5 6 -25q0 -55 -51 -145q-146 -258 -416 -258q-89 0 -143 51t-54 139q0 137 124 270q107 116 250 177q116 49 239 49q98 0 229.5 -94.5t183.5 -94.5q92 0 215 99.5t142 99.5q26 0 26 -29q0 -30 -107 -101
q-126 -84 -220 -186q-353 -384 -781 -768z" />
    <glyph glyph-name="bracketleft" unicode="[" horiz-adv-x="664" 
d="M1170 1477q36 0 36 -21q0 -20 -39 -20h-221l-948 -1532h229q37 0 37 -19q0 -22 -36 -22h-276q-46 0 -46 24q0 13 37 74l888 1456q37 60 109 60h230z" />
    <glyph glyph-name="backslash" unicode="\" horiz-adv-x="606" 
d="M465 1130l49 -1312l-20 -8l-121 1320h92z" />
    <glyph glyph-name="bracketright" unicode="]" horiz-adv-x="664" 
d="M-296 -137q-36 0 -36 20q0 21 39 21h221l949 1532h-230q-37 0 -37 18q0 23 34 23h279q46 0 46 -25q0 -13 -37 -74l-889 -1456q-36 -59 -109 -59h-230z" />
    <glyph glyph-name="asciicircum" unicode="^" horiz-adv-x="2048" 
d="M946 1462h152l534 -565h-84l-526 465l-530 -465h-80z" />
    <glyph glyph-name="underscore" unicode="_" 
d="M0 -403h1024v-80h-1024v80z" />
    <glyph glyph-name="grave" unicode="`" 
d="M741 616q0 -14 -14 -14q-37 0 -121 103.5t-84 171.5q0 84 66 84q29 0 44 -18.5t15 -113.5q0 -67 47 -142.5t47 -70.5z" />
    <glyph glyph-name="a" unicode="a" horiz-adv-x="807" 
d="M111 90q0 -63 49 -63q71 0 182 120q90 98 137 187q45 86 45 149q0 64 -67 64q-111 0 -232 -175q-114 -164 -114 -282zM549 438l84 123l135 8l-225 -354q-76 -120 -76 -160q0 -32 31 -32q47 0 181 134l134 134q4 0 9 -2l3 -6q-1 -25 -112 -134q-103 -101 -141 -125
q-52 -34 -97 -34q-84 0 -84 102q0 25 10 78q-142 -180 -258 -180q-118 0 -118 209q0 45 13 95q-25 -40 -42 -40q-5 0 -10 2l-2 6q0 8 26 39q90 108 195 183q134 94 244 94q108 0 108 -95q0 -19 -8 -45z" />
    <glyph glyph-name="b" unicode="b" horiz-adv-x="692" 
d="M760 1251l-510 -866q-166 -282 -166 -326q0 -39 61 -39q124 0 215 114q79 98 101 231q4 23 10 88q12 125 72 125q59 0 59 -84q0 -135 -129 -308q45 -6 35 -6q61 0 135 63l74 64l6 -3q2 -5 2 -9v-7q-1 -2 -25 -30q-91 -106 -208 -106q-20 0 -48 3q-155 -165 -315 -165
q-119 0 -119 131q0 72 80 231q-87 -98 -94 -98q-5 0 -7.5 2t-2.5 6q0 7 41 56q186 221 329 466l262 449z" />
    <glyph glyph-name="c" unicode="c" horiz-adv-x="575" 
d="M40 294q-28 -38 -44 -38q-5 0 -10 2l-2 6q1 15 82 101q199 213 370 213q133 0 133 -107q0 -36 -19 -63q-21 -31 -56 -31q-62 0 -62 53q0 24 32 46.5t32 37.5q0 35 -43 35q-91 0 -207.5 -145t-116.5 -289q0 -97 84 -97q71 0 162 71q59 45 138 131q65 71 71 71q12 0 12 -10
q0 -18 -104 -123q-166 -168 -291 -168q-84 0 -131 71q-41 62 -41 150q0 32 11 83z" />
    <glyph glyph-name="d" unicode="d" horiz-adv-x="807" 
d="M111 90q0 -63 49 -63q71 0 182 120q90 98 137 187q45 86 45 149q0 64 -67 64q-111 0 -232 -175q-114 -164 -114 -282zM549 438l455 807l133 6l-559 -970q-101 -175 -101 -224q0 -28 33 -28q40 0 171.5 131l131.5 131q4 0 9 -2l3 -6q-1 -25 -112 -134q-103 -101 -141 -125
q-52 -34 -97 -34q-84 0 -84 102q0 25 10 78q-142 -180 -258 -180q-118 0 -118 209q0 45 13 95q-25 -40 -42 -40q-5 0 -10 2l-2 6q0 8 26 39q90 108 195 183q134 94 244 94q108 0 108 -95q0 -19 -8 -45z" />
    <glyph glyph-name="e" unicode="e" horiz-adv-x="575" 
d="M152 229q138 30 235.5 118t97.5 165q0 41 -36 41q-67 0 -157 -93.5t-140 -230.5zM41 297q-32 -41 -45 -41q-4 0 -7 2t-3 6q0 14 80 101q196 213 374 213q113 0 113 -95q0 -106 -160 -193q-110 -61 -252 -93q-10 -62 -10 -82q0 -95 82 -95q72 0 163 70q58 45 137 131
q65 70 71 70q12 0 12 -10q0 -18 -104 -123q-166 -168 -289 -168q-83 0 -132 71q-42 63 -42 150q0 40 12 86z" />
    <glyph glyph-name="f" unicode="f" horiz-adv-x="451" 
d="M102 29h11q60 0 145 68q55 43 132 126q64 68 69 68q12 0 12 -10q0 -28 -149 -168q-73 -68 -131 -100q-61 -33 -115 -33l-283 -566l-145 -16l325 602q-32 28 -32 57q0 68 63 68q11 0 33 -10l209 391q-83 -74 -162.5 -163t-89.5 -89q-1 0 -6 2q-1 2 -2 6q0 18 91 119
q66 73 161 165q29 25 69 66q8 15 23 44q167 313 295 465q137 161 249 161q40 0 67.5 -29t27.5 -69q0 -211 -627 -668zM377 584q240 161 393.5 340.5t153.5 269.5q0 59 -56 59q-164 0 -491 -669z" />
    <glyph glyph-name="g" unicode="g" horiz-adv-x="756" 
d="M291 -82q-469 -271 -469 -467q0 -69 59 -69q145 0 410 536zM111 90q0 -63 49 -63q71 0 182 120q90 98 137 187q45 86 45 149q0 64 -67 64q-111 0 -232 -175q-114 -164 -114 -282zM549 438l84 123l125 8q-182 -296 -326 -573q127 82 332 295q10 0 10 -10
q0 -28 -112 -135.5t-259 -196.5q-313 -596 -532 -596q-104 0 -104 102q0 126 219 295q105 82 327 211l105 225q-169 -196 -275 -196q-118 0 -118 209q0 45 13 95q-25 -40 -42 -40q-5 0 -10 2l-2 6q1 9 26 39q88 107 195 183q135 94 244 94q108 0 108 -95q0 -19 -8 -45z" />
    <glyph glyph-name="h" unicode="h" horiz-adv-x="772" 
d="M-86 -2l295 471q-200 -215 -211 -215q-5 0 -10 2l-2 6q25 29 141 160q144 162 260 362l262 449l133 18l-579 -989q289 318 375 318q77 0 77 -101q0 -73 -110.5 -227t-110.5 -195q0 -37 33 -37q48 0 182 135.5t133 135.5q11 0 11 -10q0 -30 -137 -158q-142 -133 -191 -133
q-98 0 -98 145q0 87 110.5 226t110.5 161q0 25 -23 25q-108 0 -526 -535z" />
    <glyph glyph-name="i" unicode="i" horiz-adv-x="451" 
d="M182 449q-50 -53 -99 -106q-82 -87 -89 -87q-1 0 -6 2l-2 4q1 30 260 297l147 10l-203 -319q-100 -157 -100 -193q0 -39 35 -39q67 0 199 136.5t135 136.5q12 0 12 -10q0 -22 -110 -129q-100 -99 -140 -125q-54 -37 -94 -37q-111 0 -111 129q0 54 66 170zM434 891
q0 33 26 62.5t58 29.5q55 0 55 -59q0 -33 -24.5 -63t-56.5 -30q-58 0 -58 60z" />
    <glyph glyph-name="j" unicode="j" horiz-adv-x="412" 
d="M221 492q-224 -238 -225 -238q-10 0 -10 8q0 14 47 68l200 229l146 10q-151 -318 -289 -573q127 87 330 295l9 -2l3 -6q-1 -28 -110 -133t-259 -201q-313 -596 -532 -596q-104 0 -104 102q0 126 218 294q106 82 328 212zM-51 -82q-469 -271 -469 -467q0 -69 59 -69
q145 0 410 536zM369 891q0 33 25 62.5t57 29.5q55 0 55 -59q0 -33 -25 -63t-57 -30q-55 0 -55 60z" />
    <glyph glyph-name="k" unicode="k" horiz-adv-x="793" 
d="M383 311q-60 -30 -96 -30q-43 0 -43 34q0 43 67 43q32 0 64 -18q42 8 144 127q96 113 171 113q80 0 80 -72q0 -68 -59 -68q-30 0 -50.5 42t-31.5 42q-9 0 -67 -88t-146 -112q82 -51 82 -123q0 -30 -18.5 -82.5t-18.5 -71.5q0 -27 28 -27q44 0 177.5 135.5t132.5 135.5
q12 0 12 -10q0 -24 -107 -128q-93 -91 -133 -120q-59 -43 -94 -43q-53 0 -89 53q-32 47 -32 102q0 28 15.5 76t15.5 64q0 9 -4 26zM37 12l-123 -14l295 471q-200 -215 -211 -215q-5 0 -10 2l-2 6q28 32 141 160q143 162 260 362l262 449l131 18z" />
    <glyph glyph-name="l" unicode="l" horiz-adv-x="451" 
d="M180 449q-48 -54 -97 -107q-80 -88 -87 -88q-10 0 -10 8q0 18 129 159q143 157 161 185l404 627l133 18l-631 -1001q-100 -159 -100 -193q0 -39 37 -39q68 0 204 136.5l136 136.5q12 0 12 -10q0 -22 -110 -129q-101 -99 -140 -125q-54 -37 -94 -37q-111 0 -111 129
q0 64 164 330z" />
    <glyph glyph-name="m" unicode="m" horiz-adv-x="1247" 
d="M27 -2l268 399q65 97 65 123q0 27 -28 27q-58 0 -196 -146.5t-140 -146.5q-10 0 -10 8q0 17 112 139q164 179 242 179q80 0 80 -97q0 -89 -82 -221q252 318 356 318q82 0 82 -86q0 -104 -86 -228q277 314 361 314q77 0 77 -101q0 -73 -110.5 -227t-110.5 -195
q0 -37 33 -37q48 0 182 135.5t133 135.5q13 0 13 -10q0 -21 -107 -125q-95 -93 -136 -123q-58 -43 -87 -43q-98 0 -98 145q0 87 110.5 226t110.5 161q0 25 -23 25q-95 0 -510 -535l-143 -14l266 399q64 96 64 125q0 25 -29 25q-81 0 -514 -535z" />
    <glyph glyph-name="n" unicode="n" horiz-adv-x="907" 
d="M29 -2l266 399q65 98 65 123q0 27 -28 27q-58 0 -196 -146.5t-140 -146.5q-10 0 -10 8q0 17 112 139q164 179 242 179q80 0 80 -97q0 -89 -82 -221q280 316 373 316q77 0 77 -99q0 -75 -110.5 -228.5t-110.5 -193.5q0 -37 33 -37q48 0 182 135.5t133 135.5q13 0 13 -10
q0 -21 -106 -125q-96 -93 -137 -123q-58 -43 -87 -43q-98 0 -98 145q0 87 110.5 226t110.5 161q0 23 -23 23q-105 0 -526 -533z" />
    <glyph glyph-name="o" unicode="o" horiz-adv-x="680" 
d="M115 96q0 -73 63 -73q34 0 88 34q93 58 168 167q82 119 82 220q0 103 -78 103q-80 0 -177 -122q-77 -98 -116 -197q-30 -76 -30 -132zM459 186q37 -6 33 -6q95 0 196 121q4 5 17 6l6 -3q2 -5 2 -9q0 -8 -25 -37q-90 -106 -209 -106q-22 0 -46 3q-152 -165 -271 -165
q-137 0 -137 213q0 36 16 94q-32 -41 -45 -41q-4 0 -7 2t-3 6q0 13 84 105q195 213 360 213q141 0 141 -148q0 -102 -112 -248z" />
    <glyph glyph-name="p" unicode="p" horiz-adv-x="772" 
d="M-256 -526l-133 -15l598 1010q-200 -215 -211 -215q-5 0 -10 2l-2 6q42 50 146 165q144 159 386 540l123 10l-438 -715q289 318 375 318q77 0 77 -101q0 -73 -110.5 -227t-110.5 -195q0 -37 33 -37q48 0 182 135.5t133 135.5q11 0 11 -10q0 -30 -138 -158
q-141 -133 -190 -133q-98 0 -98 145q0 87 110.5 226t110.5 161q0 25 -23 25q-57 0 -229.5 -181t-321.5 -434z" />
    <glyph glyph-name="q" unicode="q" horiz-adv-x="743" 
d="M111 90q0 -63 49 -63q71 0 182 120q90 98 137 187q45 86 45 149q0 64 -67 64q-111 0 -232 -175q-114 -164 -114 -282zM549 431l84 132l108 6l-481 -858q463 580 496 580q1 0 7 -2l3 -4q-2 -7 -229 -279q-232 -277 -435 -579l-127 -9l426 754q-142 -180 -258 -180
q-118 0 -118 209q0 39 15 93q-28 -38 -44 -38q-6 0 -10 2l-2 4q2 18 86 105q206 213 379 213q106 0 106 -97q0 -22 -6 -52z" />
    <glyph glyph-name="r" unicode="r" horiz-adv-x="676" 
d="M29 0l266 397q65 97 65 123q0 27 -28 27q-58 0 -196 -146.5t-140 -146.5q-10 0 -10 8q0 17 112 139q164 179 242 179q80 0 80 -88q0 -89 -98 -254q84 84 176 163q32 85 57 119q44 60 111 60q47 0 47 -31q0 -35 -121 -126q-60 -45 -81 -72q-32 -41 -32 -101q0 -55 51 -55
q42 0 86 34l70 64q12 -2 12 -10q0 -31 -63 -73t-100 -42q-86 0 -86 80q0 29 26 98q-119 -99 -303 -332z" />
    <glyph glyph-name="s" unicode="s" horiz-adv-x="446" 
d="M252 528q-77 -78 -161.5 -176t-96.5 -98q-10 0 -10 8q0 19 266 305q36 86 84 86q41 0 41 -39q0 -30 -47 -51t-47 -74q0 -41 19 -121.5t19 -121.5q0 -63 -26 -121q43 46 86 91q71 75 76 75q12 0 12 -10q0 -15 -80 -99q-105 -110 -173.5 -151t-137.5 -41q-139 0 -139 106
q0 26 18.5 46t44.5 20q43 0 43 -39q0 -10 -12.5 -37t-12.5 -41q0 -22 31 -22q70 0 138.5 127.5t68.5 300.5q0 12 -4 77z" />
    <glyph glyph-name="t" unicode="t" horiz-adv-x="451" 
d="M182 449q-50 -53 -99 -106q-82 -87 -89 -87q-1 0 -6 2l-2 4q0 21 119 144t171 200l89 133h-99l17 29h100l125 199l133 10l-131 -209h235l-16 -29h-237l-306 -489q-96 -153 -96 -193q0 -39 35 -39q65 0 198.5 136.5t135.5 136.5q12 0 12 -10q0 -22 -109 -129
q-101 -98 -141 -125q-54 -37 -94 -37q-111 0 -111 129q0 54 66 170z" />
    <glyph glyph-name="u" unicode="u" horiz-adv-x="795" 
d="M453 57q0 -37 32 -37q49 0 182 135.5t134 135.5q12 0 12 -8q0 -23 -102 -124q-88 -87 -131 -120q-65 -49 -97 -49q-96 0 -96 139q0 19 8 59q-171 -198 -268 -198q-113 0 -113 129q0 86 166 329q-49 -53 -99 -106q-80 -86 -87 -86q-1 0 -7 2l-3 4q1 26 260 297l147 8
l-203 -317q-100 -156 -100 -193t33 -37q177 0 497 539l138 8l-246 -389q-57 -90 -57 -121z" />
    <glyph glyph-name="v" unicode="v" horiz-adv-x="829" 
d="M610 186q51 -6 35 -6q88 0 193 121q4 5 18 6l5 -2q1 -5 1 -10v-7q-1 -2 -24 -30q-87 -106 -209 -106q-19 0 -48 3q-175 -163 -307 -163q-108 0 -108 139q0 80 96 216t96 177q0 23 -26 23q-57 0 -194 -146.5t-142 -146.5q-10 0 -10 8q0 17 112 139q166 181 246 181
q90 0 90 -109q0 -39 -15 -79q-12 -30 -101 -171q-80 -125 -80 -151q0 -52 51 -52q94 0 203 96.5t151 231.5q12 39 20 120q11 112 66 112t55 -68q0 -118 -174 -326z" />
    <glyph glyph-name="w" unicode="w" horiz-adv-x="1053" 
d="M395 188q-171 -198 -268 -198q-113 0 -113 129q0 94 164 323q-7 -6 -98 -103q-79 -85 -84 -85q-10 0 -10 8q0 40 264 297l141 8l-203 -317q-100 -156 -100 -193t33 -37q177 0 497 539l138 8l-230 -360q-65 -102 -65 -135q0 -52 51 -52q94 0 202 96.5t150 231.5
q13 40 21 118q12 114 67 114q56 0 56 -68q0 -115 -177 -326q47 -6 37 -6q87 0 166 90q13 16 34 36q3 1 9 1q4 -1 7 -3q1 -5 1 -16q-106 -136 -233 -136q-19 0 -48 3q-175 -163 -306 -163q-109 0 -109 139q0 25 6 57z" />
    <glyph glyph-name="x" unicode="x" horiz-adv-x="684" 
d="M262 178q-165 -188 -266 -188q-94 0 -94 73q0 66 61 66q40 0 52.5 -47t27.5 -47q28 0 96 54q129 102 190 278q29 86 29 141q0 39 -30 39q-54 0 -191 -146.5t-141 -146.5q-10 0 -10 8q0 17 112 139q164 179 240 179q67 0 88 -76q11 -39 10 -129q147 205 250 205
q88 0 88 -74q0 -53 -55 -53q-34 0 -53 38.5t-33 38.5q-29 0 -85 -58q-77 -78 -137 -190q-67 -127 -67 -221q0 -41 35 -41q48 0 183.5 135.5t131.5 135.5q13 0 13 -10q0 -23 -106 -126q-92 -91 -134 -122q-58 -43 -92 -43q-59 0 -90 68q-23 52 -23 120z" />
    <glyph glyph-name="y" unicode="y" horiz-adv-x="874" 
d="M412 -82q-469 -271 -469 -467q0 -69 59 -69q73 0 165 115q86 109 245 421zM596 272q-233 -266 -344 -266q-42 0 -66 42q-20 34 -20 79q0 82 96 219.5t96 173.5q0 27 -30 27q-54 0 -191 -146.5t-141 -146.5q-10 0 -10 8q0 23 113 142q109 114 153 144q50 34 92 34
q88 0 88 -109q0 -72 -98 -221.5t-98 -175.5q0 -41 32 -41q62 0 207.5 151t278.5 375l125 8q-182 -296 -326 -573q113 73 332 295q10 -2 10 -10q0 -28 -112 -135.5t-259 -196.5q-313 -596 -532 -596q-105 0 -105 102q0 126 220 295q105 81 327 211z" />
    <glyph glyph-name="z" unicode="z" horiz-adv-x="676" 
d="M422 442q-90 -24 -133 -24q-70 0 -113 41q-81 -103 -180 -209l-7 2l-3 4v8q0 7 2 9q60 70 171 216q-9 27 -9 35q0 64 67 64q55 0 55 -45q0 -13 -8 -34t-8 -26q0 -34 66 -34q93 0 177.5 61t82.5 61q28 0 28 -22q0 -33 -73 -72q-49 -26 -205 -148q-89 -69 -172 -141
q111 62 170 62q80 0 80 -76q0 -28 -21.5 -76t-21.5 -55q0 -23 14 -23q36 0 170 135.5t133 135.5q12 0 12 -10q0 -22 -110 -130q-99 -96 -137 -123q-52 -38 -87 -38q-83 0 -83 114q0 16 8 45.5t8 43.5q0 8 -14 8q-88 0 -197 -84q-30 -23 -70 -73t-63 -50q-27 0 -27 24
q0 25 22 48q25 16 74 51q23 20 68 58q179 151 334 267z" />
    <glyph glyph-name="braceleft" unicode="{" 
d="M844 1516v-47q-153 -2 -208 -55.5t-55 -255.5v-49v-50q0 -228 -63 -310q-66 -83 -239 -114q173 -30 239 -112q63 -82 63 -310v-50.5v-49.5q0 -203 55 -256.5t208 -55.5v-45h-10q-238 0 -316 100q-59 75 -59 281q0 27 1 89.5t1 97.5q0 157 -65 217q-60 55 -220 67v56
q162 14 220 67q65 60 65 217q0 35 -1 96t-1 87q0 212 60 287q79 98 325 98z" />
    <glyph glyph-name="bar" unicode="|" 
d="M467 1565h90v-2048h-90v2048z" />
    <glyph glyph-name="braceright" unicode="}" 
d="M178 1516h10q239 0 318 -101q59 -76 59 -285q0 -26 -1 -87t-1 -95q0 -155 58 -212t227 -72v-56q-160 -12 -220 -67q-65 -60 -65 -217q0 -34 1 -94v-86q0 -214 -60 -289q-79 -99 -326 -99v45q154 2 209.5 56t55.5 252v54v56q0 221 64 302.5t238 113.5q-173 31 -237.5 113
t-64.5 310v49.5v49.5q0 202 -55.5 256t-209.5 56v47z" />
    <glyph glyph-name="asciitilde" unicode="~" horiz-adv-x="1706" 
d="M1530 739v-92q-211 -147 -387 -147q-100 0 -290 70.5t-288 70.5q-161 0 -387 -160v92q207 146 387 146q101 0 290.5 -69.5t287.5 -69.5q160 0 387 159z" />
    <glyph glyph-name="exclamdown" unicode="&#xa1;" horiz-adv-x="541" 
d="M737 954q0 -34 -25 -63t-59 -29q-57 0 -57 60q0 33 25 62.5t57 29.5q59 0 59 -60zM197 8l-177 -14l510 753q35 52 54 52q18 0 18 -19q0 -13 -23 -56z" />
    <glyph glyph-name="cent" unicode="&#xa2;" horiz-adv-x="834" 
d="M211 62l295 495q-125 -39 -217 -172t-92 -266q0 -35 14 -57zM233 41q26 -12 48 -12q70 0 165 72.5t93 72.5q1 0 5 -1q0 -2 1 -5q0 -36 -98 -102t-183 -66q-23 0 -49 8l-80 -135l-26 18l77 132q-90 65 -90 192q0 133 135 252t293 119l74 123l27 -19l-68 -112
q78 -26 78 -105q0 -32 -18 -56q-20 -28 -50 -28q-43 0 -43 41q0 24 18.5 55t18.5 39q0 13 -18 29z" />
    <glyph glyph-name="sterling" unicode="&#xa3;" horiz-adv-x="1100" 
d="M270 84q-148 53 -235 53q-90 0 -90 -51q0 -34 52 -53q39 -13 81 -13q102 0 192 64zM317 63q-110 -69 -243 -69q-162 0 -162 90q0 84 129 84q101 0 278 -49q116 92 236 360h-213v31h231q223 483 457 483q61 0 97 -38t36 -99q0 -104 -37 -104q-10 0 -10 14q0 1 10.5 33
t10.5 53q0 111 -101 111q-80 0 -152 -92t-186 -361h236v-31h-250q-138 -267 -309 -377q150 -55 256 -55q68 0 139 43q43 26 100 78q46 43 54 43q1 0 5 -1q0 -2 1 -5q0 -17 -58 -70q-160 -145 -278 -145q-76 0 -277 73z" />
    <glyph glyph-name="currency" unicode="&#xa4;" horiz-adv-x="780" 
d="M281 610h-115l-16 -30h112q-43 -79 -59 -127h-125l-17 -31h132q-31 -89 -31 -180q0 -108 53 -178q58 -78 162 -78q133 0 285 163q65 70 65 87q0 14 -10 14q-5 0 -11 -3q-34 -38 -81 -91q-128 -133 -246 -133q-113 0 -113 118q0 121 62 281h243l17 31h-248q31 76 59 127
h260l17 30h-260q64 122 143 214q112 130 205 130q74 0 74 -51q0 -2 -27 -36t-27 -64q0 -58 62 -58q39 0 66 35q24 32 24 72q0 64 -53 104q-48 35 -115 35q-125 0 -279 -135q-124 -109 -208 -246z" />
    <glyph glyph-name="yen" unicode="&#xa5;" horiz-adv-x="834" 
d="M121 0l262 414h-328l37 57h328l-25 125h-223l39 59h170l-74 306h90l103 -431l512 431h86l-363 -306h191l-37 -59h-223l-158 -125h299l-37 -57h-297l-264 -414h-88z" />
    <glyph glyph-name="brokenbar" unicode="&#xa6;" 
d="M467 408h90v-758h-90v758zM467 1432h90v-758h-90v758z" />
    <glyph glyph-name="section" unicode="&#xa7;" 
d="M586 332q108 13 177 63q83 61 83 162q0 53 -37 133l-147 318q-110 -13 -179 -65q-82 -61 -82 -163q0 -49 37 -129zM602 303q37 -88 37 -143q0 -140 -129 -232q-117 -84 -262 -84q-68 0 -139 21q-97 30 -97 80q0 47 47 47q10 0 96 -42t169 -42q90 0 156 45q75 51 75 137
q0 71 -109.5 290.5t-109.5 334.5q0 139 88 224q81 78 223 97q-37 87 -37 144q0 134 122 227q113 86 251 86q66 0 139 -20q101 -27 101 -74q0 -45 -41 -45q-9 0 -93.5 38t-164.5 38q-228 0 -228 -187q0 -58 52 -170l102 -219q61 -131 61 -229q0 -137 -88 -223
q-82 -80 -221 -99z" />
    <glyph glyph-name="dieresis" unicode="&#xa8;" 
d="M436 754q0 36 24 62t60 26q66 0 66 -68q0 -37 -24 -62.5t-60 -25.5q-66 0 -66 68zM768 754q0 36 25 62t61 26q64 0 64 -68q0 -37 -24 -62.5t-60 -25.5q-66 0 -66 68z" />
    <glyph glyph-name="copyright" unicode="&#xa9;" horiz-adv-x="1683" 
d="M1118 1093l31 1v-308h-37q-65 275 -285 275q-258 0 -258 -377q0 -383 277 -383q178 0 287 172l30 -20q-112 -207 -336 -207q-169 0 -284 125q-111 122 -111 293q0 176 106 302q112 134 285 134q69 0 145 -34t85 -34q57 0 65 61zM844 1298q-255 0 -435 -182.5t-180 -437.5
t179 -437t434 -182q254 0 434 182.5t180 436.5q0 257 -177.5 438.5t-434.5 181.5zM844 1370q285 0 486.5 -203.5t201.5 -488.5q0 -283 -203.5 -486.5t-486.5 -203.5q-286 0 -488 202t-202 488q0 287 202.5 489.5t489.5 202.5z" />
    <glyph glyph-name="ordfeminine" unicode="&#xaa;" horiz-adv-x="606" 
d="M84 1153q0 -45 37 -45q70 0 171 122t101 197q0 46 -51 46q-80 0 -171 -121q-87 -115 -87 -199zM412 1397l63 86l100 6l-167 -248q-58 -86 -58 -113q0 -22 23 -22q37 0 136 93t101 93h7q1 -2 1 -4q0 -20 -84 -96q-76 -68 -107 -86q-38 -23 -71 -23q-63 0 -63 72q0 14 8 53
q-109 -125 -192 -125q-91 0 -91 146q0 29 11 67q-17 -28 -33 -28q-4 0 -5.5 1.5t-2.5 4.5q0 5 20 27q172 192 328 192q82 0 82 -66q0 -12 -6 -30z" />
    <glyph glyph-name="guillemotleft" unicode="&#xab;" horiz-adv-x="631" 
d="M313 309l285 211q20 15 31 15q18 0 18 -19q0 -13 -21 -31l-223 -188l70 -215q6 -18 6 -25q0 -22 -18 -22q-16 0 -31 31zM119 309l284 211q20 15 31 15q21 0 21 -19q0 -11 -22 -30l-222 -189l68 -216q6 -19 6 -24q0 -22 -17 -22q-18 0 -32 30z" />
    <glyph glyph-name="logicalnot" unicode="&#xac;" horiz-adv-x="1706" 
d="M254 856h1198v-502h-78v420h-1120v82z" />
    <glyph glyph-name="registered" unicode="&#xae;" horiz-adv-x="1683" 
d="M717 717q24 -2 67 -2q263 0 263 176q0 85 -70 129q-58 37 -148 37q-112 0 -112 -76v-264zM469 1087h391q121 0 205 -38q111 -51 111 -158q0 -143 -291 -199q168 -55 211 -215q9 -44 18 -87q17 -60 49 -60q78 0 80 128l37 1v-8q0 -177 -150 -177q-84 0 -116 52
q-20 35 -23 115q-3 90 -12 116q-43 127 -223 127q-7 0 -20 -1t-19 -1v-248q0 -62 40 -85q28 -15 97 -18v-38h-385v38q69 3 97 18q40 23 40 85v512q0 63 -39 86q-29 17 -98 19v36zM844 1298q-255 0 -435 -182.5t-180 -437.5t179 -437t434 -182q254 0 434 182.5t180 436.5
q0 257 -177.5 438.5t-434.5 181.5zM844 1370q285 0 486.5 -203.5t201.5 -488.5q0 -283 -203.5 -486.5t-486.5 -203.5q-286 0 -488 202t-202 488q0 287 202.5 489.5t489.5 202.5z" />
    <glyph glyph-name="degree" unicode="&#xb0;" horiz-adv-x="674" 
d="M338 1389q-90 0 -151.5 -61.5t-61.5 -151.5q0 -89 62 -151t151 -62t151 62t62 151t-62 151t-151 62zM338 1450q113 0 192.5 -80.5t79.5 -193.5q0 -115 -79.5 -194t-194.5 -79q-116 0 -194.5 78.5t-78.5 194.5q0 115 80 194.5t195 79.5z" />
    <glyph glyph-name="plusminus" unicode="&#xb1;" horiz-adv-x="1706" 
d="M254 141h1198v-82h-1198v82zM813 1161h80v-354h559v-80h-559v-352h-80v352h-559v80h559v354z" />
    <glyph glyph-name="twosuperior" unicode="&#xb2;" horiz-adv-x="551" 
d="M74 489q64 52 121 52q63 0 80.5 -54.5t31.5 -54.5q35 0 96 64.5t64 64.5l3 -3q0 -3 1 -7q0 -18 -59 -73q-53 -50 -79 -65q-35 -20 -71 -20q-49 0 -66 29q-5 9 -12 53q-5 29 -26 29q-47 0 -103.5 -57.5t-52.5 -57.5q-5 0 -7.5 3t-2.5 7q0 34 53 92t141 115q75 47 151 95
q85 60 122 126q24 43 24 72q0 72 -88 72q-72 0 -138 -46q-73 -51 -73 -120q0 -49 43 -49q39 0 76 27q53 39 85 114q12 29 22 29t10 -19q0 -67 -56.5 -124.5t-123.5 -57.5q-78 0 -78 74q0 83 87 140q78 52 165 52q141 0 141 -121q0 -89 -103 -160q-39 -26 -211 -107
q-130 -61 -167 -114z" />
    <glyph glyph-name="threesuperior" unicode="&#xb3;" horiz-adv-x="551" 
d="M330 705q121 0 121 -99q0 -88 -98 -156q-89 -61 -181 -61q-139 0 -139 109q0 71 59 71q43 0 43 -43q0 -26 -31.5 -41t-31.5 -20q0 -47 82 -47q43 0 85 24t90 83q54 66 54 108q0 51 -55 51q-22 0 -55.5 -14.5t-39.5 -14.5q-4 0 -8 2.5t-4 6.5q0 12 48 33q231 101 231 212
q0 58 -82 58q-56 0 -113 -34q-65 -39 -65 -91q0 -39 41 -39q62 0 114 73l16 29q12 23 17 23q2 -1 4 -2.5t2 -5.5q0 -58 -45.5 -103t-103.5 -45q-68 0 -68 62q0 68 82 115q70 40 143 40q125 0 125 -94q0 -114 -237 -190z" />
    <glyph glyph-name="acute" unicode="&#xb4;" 
d="M578 606q-17 0 -17 15q0 9 64.5 54t103.5 101l50 106q35 72 75 72q61 0 61 -61q0 -107 -188 -217q-119 -70 -149 -70z" />
    <glyph glyph-name="paragraph" unicode="&#xb6;" 
d="M932 1479v-64h-129v-1415h-70v1415h-192v-1415h-70v782q-165 7 -268 94q-113 94 -113 254q0 166 117 261q109 88 278 88h447z" />
    <glyph glyph-name="cedilla" unicode="&#xb8;" 
d="M283 -119q52 29 116 29q152 0 152 -127q0 -82 -67 -126q-58 -38 -144 -38q-95 0 -181 33q-32 12 -49 21q-38 19 -38 32q3 10 18 10q6 0 87 -23.5t155 -23.5q51 0 90 25q45 29 45 78q0 79 -111 79q-14 0 -61 -10z" />
    <glyph glyph-name="onesuperior" unicode="&#xb9;" horiz-adv-x="422" 
d="M74 395l350 510q-311 -263 -352 -264l-4 2q-1 2 -2 6q0 5 69 54q106 76 272 221q74 65 80 65q11 0 13 -6q0 -13 -17 -43l-299 -532z" />
    <glyph glyph-name="ordmasculine" unicode="&#xba;" horiz-adv-x="510" 
d="M86 1157q0 -51 47 -51q75 0 166 107q88 105 88 188q0 72 -57 72q-75 0 -162 -121q-82 -115 -82 -195zM345 1220q13 -3 24 -3q54 0 106 43q26 22 53 45l5 -2q1 -3 2 -7v-5q-2 -2 -19 -21q-66 -74 -159 -74q-16 0 -33 2q-109 -115 -203 -115q-103 0 -103 148q0 28 13 67
q-22 -28 -35 -28q-5 1 -6 4q1 11 63 74q148 149 271 149q104 0 104 -104q0 -71 -83 -173z" />
    <glyph glyph-name="guillemotright" unicode="&#xbb;" horiz-adv-x="631" 
d="M508 260l-285 -211q-19 -14 -30 -14q-21 0 -21 18q0 11 23 31l221 188l-68 216q-6 19 -6 24q0 23 16 23q18 0 33 -31zM313 260l-284 -211q-19 -14 -31 -14q-21 0 -21 18q0 11 23 31l221 188l-67 215q-7 22 -7 25q0 23 17 23q18 0 33 -31z" />
    <glyph glyph-name="onequarter" unicode="&#xbc;" horiz-adv-x="1257" 
d="M903 -6l84 114q-83 11 -108 11q-24 0 -59 -11.5t-34 -11.5q-11 0 -14 6q1 5 32 45q147 185 259 390l113 8q-176 -240 -347 -410q29 8 48 8q40 0 129 -14q201 272 223 272q1 0 6 -1l2 -7q-53 -86 -151 -263q26 2 108 46l6 -2q1 -2 2 -6q0 -13 -37 -35q-31 -19 -49.5 -24
t-46.5 -5q-21 -33 -49 -100zM1094 991l-985 -1018h-56l987 1018h54zM70 434l333 475q-294 -244 -335 -245l-4 2l-3 6q21 17 67 49q109 75 264 209q68 59 73 59q1 0 7 -2l3 -4q0 -19 -12 -39l-287 -498z" />
    <glyph glyph-name="onehalf" unicode="&#xbd;" horiz-adv-x="1270" 
d="M817 88q63 49 115 49q59 0 76 -51t32 -51q33 0 81 50q65 68 69 71l5 -3q1 -4 1 -8q0 -16 -56 -68q-51 -47 -75 -60q-34 -19 -70 -19q-59 0 -69.5 51t-28.5 51q-63 0 -128 -84q-13 -16 -21 -22l-9 2q-2 4 -2 8q0 31 51.5 85.5t135.5 107.5q72 44 143 88q82 57 117 119
q22 40 22 67q0 68 -84 68q-68 0 -131 -44q-69 -49 -69 -114q0 -43 41 -43q73 0 137 98q9 17 17 33q13 25 20 25q8 0 8 -15q0 -64 -53 -117t-117 -53q-76 0 -76 68q0 78 85 132q75 48 157 48q135 0 135 -113q0 -83 -98 -149q-36 -23 -201 -99q-125 -58 -160 -108zM1094 991
l-985 -1018h-56l987 1018h54zM70 434l333 475q-294 -244 -335 -245l-4 2l-3 6q21 17 67 49q109 75 264 209q68 59 73 59q1 0 7 -2l3 -4q0 -19 -12 -39l-287 -498z" />
    <glyph glyph-name="threequarters" unicode="&#xbe;" horiz-adv-x="1380" 
d="M1024 -6l83 115q-12 1 -54 6q-33 4 -54 4q-23 0 -57.5 -11.5l-34.5 -11.5q-11 0 -14 6q1 7 31 45q151 190 260 390l112 8q-179 -244 -346 -410q29 8 47 8q41 0 129 -14q202 272 224 272q1 0 6 -1l2 -7q-53 -86 -151 -264q26 3 108 47l6 -2q1 -2 2 -6q0 -13 -37 -35
q-31 -19 -49.5 -24t-46.5 -5q-21 -33 -49 -100zM1214 991l-985 -1018h-55l987 1018h53zM315 723q115 0 115 -92q0 -84 -94 -146q-84 -57 -172 -57q-53 0 -90 24q-43 28 -43 78q0 68 57 68q41 0 41 -41q0 -25 -30.5 -39.5t-30.5 -19.5q0 -41 77 -41q43 0 83.5 22.5t86.5 76.5
q50 60 50 101q0 48 -52 48q-21 0 -54 -14.5t-38 -14.5q-10 0 -10 10q0 11 45 31q219 96 219 198q0 52 -76 52q-51 0 -107 -32q-63 -36 -63 -83q0 -37 39 -37q63 0 111 68q10 24 29 49l4 -2l2 -6q0 -54 -43.5 -96t-98.5 -42q-65 0 -65 56q0 64 78 109q68 38 137 38
q119 0 119 -90q0 -104 -226 -176z" />
    <glyph glyph-name="questiondown" unicode="&#xbf;" horiz-adv-x="668" 
d="M635 793q0 -22 -48 -94t-120 -148q-103 -101 -206 -203q-122 -135 -122 -246q0 -79 99 -79q69 0 138.5 50t69.5 83q0 4 -37.5 31t-37.5 61q0 71 65 71q76 0 76 -88q0 -97 -95 -170q-88 -69 -188 -69q-88 0 -138 56t-50 145q0 112 89 196q43 40 185 124q171 102 258 235
q40 61 50 61q12 0 12 -16zM758 963q0 -34 -24.5 -63.5t-57.5 -29.5q-58 0 -58 58q0 33 25 63.5t57 30.5q58 0 58 -59z" />
    <glyph glyph-name="Agrave" unicode="&#xc0;" horiz-adv-x="1796" 
d="M1413 322q320 664 741 1077q-272 -121 -772 -643q43 -150 43 -283q0 -75 -12 -151zM913 299q188 159 433 459q-109 264 -355 264q-138 0 -224.5 -92.5t-86.5 -231.5q0 -237 233 -399zM940 283q191 -113 385 -129q70 150 70 350q0 106 -39 223q-161 -184 -201 -229
q-117 -128 -215 -215zM918 260q-297 -266 -553 -266q-114 0 -198 53q-99 62 -99 170q0 56 26 97q31 48 84 48q37 0 62.5 -25.5t25.5 -62.5q0 -54 -54 -84t-54 -34q0 -60 85 -96q67 -29 136 -29q256 0 510 248q-293 218 -293 458q0 145 99 242.5t245 97.5q290 0 428 -295
q262 293 511.5 481.5t338.5 188.5q5 0 10 -1l2 -5q-30 -43 -99 -132q-307 -398 -644 -1160q168 14 307 133q11 10 31 22l3 -2q0 -3 1 -6q0 -17 -27 -45q-122 -124 -327 -133l-30 -72q-25 -48 -52 -51q-97 -10 -111 -10q-16 0 -16 14q0 8 48 127q-203 18 -396 129zM2246 1593
q0 -14 -14 -14q-37 0 -121 103.5t-84 171.5q0 84 66 84q29 0 44 -18.5t15 -113.5q0 -67 47 -142.5t47 -70.5z" />
    <glyph glyph-name="Aacute" unicode="&#xc1;" horiz-adv-x="1796" 
d="M1413 322q320 664 741 1077q-272 -121 -772 -643q43 -150 43 -283q0 -75 -12 -151zM913 299q188 159 433 459q-109 264 -355 264q-138 0 -224.5 -92.5t-86.5 -231.5q0 -237 233 -399zM940 283q191 -113 385 -129q70 150 70 350q0 106 -39 223q-161 -184 -201 -229
q-117 -128 -215 -215zM918 260q-297 -266 -553 -266q-114 0 -198 53q-99 62 -99 170q0 56 26 97q31 48 84 48q37 0 62.5 -25.5t25.5 -62.5q0 -54 -54 -84t-54 -34q0 -60 85 -96q67 -29 136 -29q256 0 510 248q-293 218 -293 458q0 145 99 242.5t245 97.5q290 0 428 -295
q262 293 511.5 481.5t338.5 188.5q5 0 10 -1l2 -5q-30 -43 -99 -132q-307 -398 -644 -1160q168 14 307 133q11 10 31 22l3 -2q0 -3 1 -6q0 -17 -27 -45q-122 -124 -327 -133l-30 -72q-25 -48 -52 -51q-97 -10 -111 -10q-16 0 -16 14q0 8 48 127q-203 18 -396 129zM2083 1583
q-17 0 -17 15q0 9 64.5 54t103.5 101l50 106q35 72 75 72q61 0 61 -61q0 -107 -188 -217q-119 -70 -149 -70z" />
    <glyph glyph-name="Acircumflex" unicode="&#xc2;" horiz-adv-x="1796" 
d="M1413 322q320 664 741 1077q-272 -121 -772 -643q43 -150 43 -283q0 -75 -12 -151zM913 299q188 159 433 459q-109 264 -355 264q-138 0 -224.5 -92.5t-86.5 -231.5q0 -237 233 -399zM940 283q191 -113 385 -129q70 150 70 350q0 106 -39 223q-161 -184 -201 -229
q-117 -128 -215 -215zM918 260q-297 -266 -553 -266q-114 0 -198 53q-99 62 -99 170q0 56 26 97q31 48 84 48q37 0 62.5 -25.5t25.5 -62.5q0 -54 -54 -84t-54 -34q0 -60 85 -96q67 -29 136 -29q256 0 510 248q-293 218 -293 458q0 145 99 242.5t245 97.5q290 0 428 -295
q262 293 511.5 481.5t338.5 188.5q5 0 10 -1l2 -5q-30 -43 -99 -132q-307 -398 -644 -1160q168 14 307 133q11 10 31 22l3 -2q0 -3 1 -6q0 -17 -27 -45q-122 -124 -327 -133l-30 -72q-25 -48 -52 -51q-97 -10 -111 -10q-16 0 -16 14q0 8 48 127q-203 18 -396 129zM2255 1714
l-240 -127q-98 -52 -119 -52q-26 0 -26 19q0 18 76 64q134 80 244 162q89 67 95 67q20 0 27 -23l70 -244q4 -14 4 -26q0 -21 -17 -21q-30 0 -114 181z" />
    <glyph glyph-name="Atilde" unicode="&#xc3;" horiz-adv-x="1796" 
d="M1413 322q320 664 741 1077q-272 -121 -772 -643q43 -150 43 -283q0 -75 -12 -151zM913 299q188 159 433 459q-109 264 -355 264q-138 0 -224.5 -92.5t-86.5 -231.5q0 -237 233 -399zM940 283q191 -113 385 -129q70 150 70 350q0 106 -39 223q-161 -184 -201 -229
q-117 -128 -215 -215zM918 260q-297 -266 -553 -266q-114 0 -198 53q-99 62 -99 170q0 56 26 97q31 48 84 48q37 0 62.5 -25.5t25.5 -62.5q0 -54 -54 -84t-54 -34q0 -60 85 -96q67 -29 136 -29q256 0 510 248q-293 218 -293 458q0 145 99 242.5t245 97.5q290 0 428 -295
q262 293 511.5 481.5t338.5 188.5q5 0 10 -1l2 -5q-30 -43 -99 -132q-307 -398 -644 -1160q168 14 307 133q11 10 31 22l3 -2q0 -3 1 -6q0 -17 -27 -45q-122 -124 -327 -133l-30 -72q-25 -48 -52 -51q-97 -10 -111 -10q-16 0 -16 14q0 8 48 127q-203 18 -396 129zM2068 1827
q43 0 125 -38t123 -38q42 0 81.5 49t45.5 49q20 0 20 -14q0 -57 -55 -118.5t-112 -61.5q-43 0 -124.5 38t-123.5 38q-43 0 -83 -49.5t-46 -49.5q-19 0 -19 15q0 57 55.5 118.5t112.5 61.5z" />
    <glyph glyph-name="Adieresis" unicode="&#xc4;" horiz-adv-x="1796" 
d="M1413 322q320 664 741 1077q-272 -121 -772 -643q43 -150 43 -283q0 -75 -12 -151zM913 299q188 159 433 459q-109 264 -355 264q-138 0 -224.5 -92.5t-86.5 -231.5q0 -237 233 -399zM940 283q191 -113 385 -129q70 150 70 350q0 106 -39 223q-161 -184 -201 -229
q-117 -128 -215 -215zM918 260q-297 -266 -553 -266q-114 0 -198 53q-99 62 -99 170q0 56 26 97q31 48 84 48q37 0 62.5 -25.5t25.5 -62.5q0 -54 -54 -84t-54 -34q0 -60 85 -96q67 -29 136 -29q256 0 510 248q-293 218 -293 458q0 145 99 242.5t245 97.5q290 0 428 -295
q262 293 511.5 481.5t338.5 188.5q5 0 10 -1l2 -5q-30 -43 -99 -132q-307 -398 -644 -1160q168 14 307 133q11 10 31 22l3 -2q0 -3 1 -6q0 -17 -27 -45q-122 -124 -327 -133l-30 -72q-25 -48 -52 -51q-97 -10 -111 -10q-16 0 -16 14q0 8 48 127q-203 18 -396 129zM1941 1731
q0 36 24 62t60 26q66 0 66 -68q0 -37 -24 -62.5t-60 -25.5q-66 0 -66 68zM2273 1731q0 36 25 62t61 26q64 0 64 -68q0 -37 -24 -62.5t-60 -25.5q-66 0 -66 68z" />
    <glyph glyph-name="Aring" unicode="&#xc5;" horiz-adv-x="1796" 
d="M2181 1691q0 -51 35 -84.5t86 -33.5q50 0 83.5 34.5t33.5 84.5q0 49 -34 83.5t-83 34.5q-50 0 -85.5 -34.5t-35.5 -84.5zM2126 1692q0 73 51 123.5t123 50.5q73 0 123.5 -50.5t50.5 -123.5t-50.5 -123.5t-123.5 -50.5t-123.5 50.5t-50.5 123.5zM1413 322
q320 664 741 1077q-272 -121 -772 -643q43 -150 43 -283q0 -75 -12 -151zM913 299q188 159 433 459q-109 264 -355 264q-138 0 -224.5 -92.5t-86.5 -231.5q0 -237 233 -399zM940 283q191 -113 385 -129q70 150 70 350q0 106 -39 223q-161 -184 -201 -229
q-117 -128 -215 -215zM918 260q-297 -266 -553 -266q-114 0 -198 53q-99 62 -99 170q0 56 26 97q31 48 84 48q37 0 62.5 -25.5t25.5 -62.5q0 -53 -53 -84t-53 -36q0 -59 84 -94q67 -29 135 -29q256 0 510 248q-293 218 -293 458q0 145 99 242.5t245 97.5q290 0 428 -295
q262 293 511.5 481.5t338.5 188.5q5 0 10 -1l2 -5q-30 -43 -99 -132q-307 -398 -644 -1160q168 14 307 133q11 10 31 22l3 -2q0 -3 1 -6q0 -17 -27 -45q-122 -124 -327 -133l-30 -72q-25 -48 -52 -51q-97 -10 -111 -10q-16 0 -16 14q0 8 48 127q-203 18 -396 129z" />
    <glyph glyph-name="AE" unicode="&#xc6;" horiz-adv-x="2380" 
d="M1413 322q181 388 335 663.5t273 425.5q-87 -67 -214 -196q-123 -124 -425 -459q43 -150 43 -283q0 -75 -12 -151zM911 301q160 121 435 457q-109 264 -355 264q-138 0 -224.5 -92.5t-86.5 -231.5q0 -229 231 -397zM940 283q191 -113 385 -129q70 150 70 350
q0 106 -39 223q-161 -184 -201 -229q-117 -128 -215 -215zM918 260q-297 -266 -553 -266q-114 0 -198 53q-99 62 -99 170q0 56 26 97q31 48 84 48q37 0 62.5 -25.5t25.5 -62.5q0 -53 -53 -84t-53 -36q0 -59 84 -94q67 -29 135 -29q256 0 510 248q-293 218 -293 458
q0 145 99.5 242.5t244.5 97.5q290 0 428 -295q160 178 348 372q305 314 350 314q7 0 7 -14q0 -6 -39 -76q-176 -315 -308 -655q138 77 308 119q-97 67 -97 166q0 94 50 178q66 111 211 199t272 88q100 0 159.5 -54t59.5 -153q0 -120 -90 -215t-209 -95q-58 0 -95.5 35.5
t-37.5 93.5q0 83 78.5 158.5t130.5 75.5q10 0 12 -6q-45 -40 -89 -79q-85 -82 -85 -165q0 -88 90 -88q100 0 184 92q82 89 82 191q0 178 -178 178q-150 0 -302 -173q-148 -169 -148 -321q0 -93 89 -93h19q13 1 19 1q40 0 64 -9q28 -11 28 -30q0 -29 -62 -29q-24 0 -66 12.5
t-57 12.5q-35 0 -104 -24t-125 -58q-112 -69 -184 -195t-72 -257q0 -113 67 -184.5t179 -71.5q157 0 315 148.5t158 303.5q0 59 -31 97q-33 42 -90 42q-86 0 -181 -101q-74 -79 -124 -179q-29 -58 -47 -132q-9 -34 -27 -71q-10 6 -10 37q0 194 112 340.5t250 146.5
q82 0 132.5 -47.5t50.5 -128.5q0 -123 -110 -258q-99 -123 -221 -181q-104 -50 -216 -50q-233 0 -303 182l-41 -119q-17 -50 -51 -53q-97 -10 -111 -10q-16 0 -16 14q0 8 48 127q-203 18 -396 129z" />
    <glyph glyph-name="Ccedilla" unicode="&#xc7;" horiz-adv-x="1190" 
d="M481 702q-102 -210 -102 -426q0 -251 219 -251q135 0 268 88q128 83 197 206q49 88 49 158q0 57 -29 95q-32 42 -88 42q-103 0 -202 -107q-78 -85 -127 -202q-18 -43 -35.5 -108.5t-28.5 -65.5q-14 0 -14 35q0 206 111.5 354t263.5 148q83 0 132 -52q46 -51 46 -135
q0 -135 -125 -274q-112 -126 -250 -178q-101 -39 -207 -39q-157 0 -246 104q-84 98 -84 258q0 145 64 305q-254 -55 -268 -55q-18 0 -21 10q2 13 132 41q55 12 165 37q289 481 809 700q198 83 330 83q60 0 102 -28q49 -32 49 -89q0 -327 -1110 -654zM494 739q352 99 617 218
q450 204 450 391q0 98 -121 98q-113 0 -291 -82q-207 -95 -379.5 -259.5t-275.5 -365.5zM273 -119q52 29 116 29q152 0 152 -127q0 -82 -67 -126q-58 -38 -144 -38q-95 0 -181 33q-32 12 -49 21q-38 19 -38 32q3 10 18 10q6 0 87 -23.5t155 -23.5q51 0 90 25q45 29 45 78
q0 79 -111 79q-14 0 -61 -10z" />
    <glyph glyph-name="Egrave" unicode="&#xc8;" 
d="M678 842q-96 67 -96 166q0 94 50 178q65 111 210.5 199t271.5 88q100 0 159.5 -54t59.5 -153q0 -120 -90 -215t-209 -95q-58 0 -95.5 35.5t-37.5 93.5q0 83 78.5 158.5t130.5 75.5q4 0 9 -1l3 -5q-45 -40 -89 -80q-85 -82 -85 -164q0 -88 90 -88q101 0 185 92
q82 89 82 191q0 178 -179 178q-150 0 -302 -173q-148 -169 -148 -321q0 -93 89 -93h20q13 1 20 1q39 0 64.5 -10t25.5 -29q0 -29 -61 -29q-25 0 -68 12.5t-55 12.5q-38 0 -102 -22q-162 -55 -269 -201t-107 -316q0 -111 63 -181t173 -70q156 0 315.5 148.5t159.5 303.5
q0 59 -31 97q-33 42 -90 42q-69 0 -156 -77q-145 -129 -196 -335q-8 -35 -27 -71q-10 6 -10 37q0 194 112.5 340.5t250.5 146.5q82 0 132 -47t50 -129q0 -123 -109 -258q-98 -122 -220 -181q-104 -50 -216 -50q-147 0 -243 79q-103 84 -103 228q0 181 162 333.5t428 211.5z
M1314 1593q0 -14 -14 -14q-37 0 -121 103.5t-84 171.5q0 84 66 84q29 0 44 -18.5t15 -113.5q0 -67 47 -142.5t47 -70.5z" />
    <glyph glyph-name="Eacute" unicode="&#xc9;" 
d="M678 842q-96 67 -96 166q0 94 50 178q65 111 210.5 199t271.5 88q100 0 159.5 -54t59.5 -153q0 -120 -90 -215t-209 -95q-58 0 -95.5 35.5t-37.5 93.5q0 83 78.5 158.5t130.5 75.5q4 0 9 -1l3 -5q-45 -40 -89 -80q-85 -82 -85 -164q0 -88 90 -88q101 0 185 92
q82 89 82 191q0 178 -179 178q-150 0 -302 -173q-148 -169 -148 -321q0 -93 89 -93h20q13 1 20 1q39 0 64.5 -10t25.5 -29q0 -29 -61 -29q-25 0 -68 12.5t-55 12.5q-38 0 -102 -22q-162 -55 -269 -201t-107 -316q0 -111 63 -181t173 -70q156 0 315.5 148.5t159.5 303.5
q0 59 -31 97q-33 42 -90 42q-69 0 -156 -77q-145 -129 -196 -335q-8 -35 -27 -71q-10 6 -10 37q0 194 112.5 340.5t250.5 146.5q82 0 132 -47t50 -129q0 -123 -109 -258q-98 -122 -220 -181q-104 -50 -216 -50q-147 0 -243 79q-103 84 -103 228q0 181 162 333.5t428 211.5z
M1151 1583q-17 0 -17 15q0 9 64.5 54t103.5 101l50 106q35 72 75 72q61 0 61 -61q0 -107 -188 -217q-119 -70 -149 -70z" />
    <glyph glyph-name="Ecircumflex" unicode="&#xca;" 
d="M678 842q-96 67 -96 166q0 94 50 178q65 111 210.5 199t271.5 88q100 0 159.5 -54t59.5 -153q0 -120 -90 -215t-209 -95q-58 0 -95.5 35.5t-37.5 93.5q0 83 78.5 158.5t130.5 75.5q4 0 9 -1l3 -5q-45 -40 -89 -80q-85 -82 -85 -164q0 -88 90 -88q101 0 185 92
q82 89 82 191q0 178 -179 178q-150 0 -302 -173q-148 -169 -148 -321q0 -93 89 -93h20q13 1 20 1q39 0 64.5 -10t25.5 -29q0 -29 -61 -29q-25 0 -68 12.5t-55 12.5q-38 0 -102 -22q-162 -55 -269 -201t-107 -316q0 -111 63 -181t173 -70q156 0 315.5 148.5t159.5 303.5
q0 59 -31 97q-33 42 -90 42q-69 0 -156 -77q-145 -129 -196 -335q-8 -35 -27 -71q-10 6 -10 37q0 194 112.5 340.5t250.5 146.5q82 0 132 -47t50 -129q0 -123 -109 -258q-98 -122 -220 -181q-104 -50 -216 -50q-147 0 -243 79q-103 84 -103 228q0 181 162 333.5t428 211.5z
M1275 1714l-240 -127q-98 -52 -119 -52q-26 0 -26 19q0 18 76 64q134 80 244 162q89 67 95 67q20 0 27 -23l70 -244q4 -14 4 -26q0 -21 -17 -21q-30 0 -114 181z" />
    <glyph glyph-name="Edieresis" unicode="&#xcb;" 
d="M678 842q-96 67 -96 166q0 94 50 178q65 111 210.5 199t271.5 88q100 0 159.5 -54t59.5 -153q0 -120 -90 -215t-209 -95q-58 0 -95.5 35.5t-37.5 93.5q0 83 78.5 158.5t130.5 75.5q4 0 9 -1l3 -5q-45 -40 -89 -80q-85 -82 -85 -164q0 -88 90 -88q101 0 185 92
q82 89 82 191q0 178 -179 178q-150 0 -302 -173q-148 -169 -148 -321q0 -93 89 -93h20q13 1 20 1q39 0 64.5 -10t25.5 -29q0 -29 -61 -29q-25 0 -68 12.5t-55 12.5q-38 0 -102 -22q-162 -55 -269 -201t-107 -316q0 -111 63 -181t173 -70q156 0 315.5 148.5t159.5 303.5
q0 59 -31 97q-33 42 -90 42q-69 0 -156 -77q-145 -129 -196 -335q-8 -35 -27 -71q-10 6 -10 37q0 194 112.5 340.5t250.5 146.5q82 0 132 -47t50 -129q0 -123 -109 -258q-98 -122 -220 -181q-104 -50 -216 -50q-147 0 -243 79q-103 84 -103 228q0 181 162 333.5t428 211.5z
M1009 1731q0 36 24 62t60 26q66 0 66 -68q0 -37 -24 -62.5t-60 -25.5q-66 0 -66 68zM1341 1731q0 36 25 62t61 26q64 0 64 -68q0 -37 -24 -62.5t-60 -25.5q-66 0 -66 68z" />
    <glyph glyph-name="Igrave" unicode="&#xcc;" horiz-adv-x="1139" 
d="M1028 688q285 531 649 721q-365 -28 -587 -179q-224 -154 -224 -358q0 -76 44 -127t118 -57zM1165 657q-141 -268 -312 -438q-230 -229 -468 -229q-95 0 -164 36q-88 46 -88 132q0 100 92 100q74 0 74 -82q0 -18 -12.5 -46t-12.5 -32q0 -40 46 -62q36 -18 81 -18
q334 0 615 641q-103 14 -167 78q-67 68 -67 170q0 313 566 471q244 68 417 68q22 0 27 -10q-2 -9 -48 -26q-53 -20 -87 -40q-134 -79 -273 -305q-63 -101 -198 -371q114 24 229 132q12 13 37 28l4 -2q2 -4 2 -8q0 -37 -86 -96q-70 -49 -121 -68q-42 -16 -86 -23zM1742 1593
q0 -14 -14 -14q-37 0 -121 103.5t-84 171.5q0 84 66 84q29 0 44 -18.5t15 -113.5q0 -67 47 -142.5t47 -70.5z" />
    <glyph glyph-name="Iacute" unicode="&#xcd;" horiz-adv-x="1139" 
d="M1028 688q285 531 649 721q-365 -28 -587 -179q-224 -154 -224 -358q0 -76 44 -127t118 -57zM1165 657q-141 -268 -312 -438q-230 -229 -468 -229q-95 0 -164 36q-88 46 -88 132q0 100 92 100q74 0 74 -82q0 -18 -12.5 -46t-12.5 -32q0 -40 46 -62q36 -18 81 -18
q334 0 615 641q-103 14 -167 78q-67 68 -67 170q0 313 566 471q244 68 417 68q22 0 27 -10q-2 -9 -48 -26q-53 -20 -87 -40q-134 -79 -273 -305q-63 -101 -198 -371q114 24 229 132q12 13 37 28l4 -2q2 -4 2 -8q0 -37 -86 -96q-70 -49 -121 -68q-42 -16 -86 -23zM1579 1583
q-17 0 -17 15q0 9 64.5 54t103.5 101l50 106q35 72 75 72q61 0 61 -61q0 -107 -188 -217q-119 -70 -149 -70z" />
    <glyph glyph-name="Icircumflex" unicode="&#xce;" horiz-adv-x="1139" 
d="M1028 688q285 531 649 721q-365 -28 -587 -179q-224 -154 -224 -358q0 -76 44 -127t118 -57zM1165 657q-141 -268 -312 -438q-230 -229 -468 -229q-95 0 -164 36q-88 46 -88 132q0 100 92 100q74 0 74 -82q0 -18 -12.5 -46t-12.5 -32q0 -40 46 -62q36 -18 81 -18
q334 0 615 641q-103 14 -167 78q-67 68 -67 170q0 313 566 471q244 68 417 68q22 0 27 -10q-2 -9 -48 -26q-53 -20 -87 -40q-134 -79 -273 -305q-63 -101 -198 -371q114 24 229 132q12 13 37 28l4 -2q2 -4 2 -8q0 -37 -86 -96q-70 -49 -121 -68q-42 -16 -86 -23zM1751 1774
l-240 -127q-98 -52 -119 -52q-26 0 -26 19q0 18 76 64q134 80 244 162q89 67 95 67q20 0 27 -23l70 -244q4 -14 4 -26q0 -21 -17 -21q-30 0 -114 181z" />
    <glyph glyph-name="Idieresis" unicode="&#xcf;" horiz-adv-x="1139" 
d="M1028 688q285 531 649 721q-365 -28 -587 -179q-224 -154 -224 -358q0 -76 44 -127t118 -57zM1165 657q-141 -268 -312 -438q-230 -229 -468 -229q-95 0 -164 36q-88 46 -88 132q0 100 92 100q74 0 74 -82q0 -18 -12.5 -46t-12.5 -32q0 -40 46 -62q36 -18 81 -18
q334 0 615 641q-103 14 -167 78q-67 68 -67 170q0 313 566 471q244 68 417 68q22 0 27 -10q-2 -9 -48 -26q-53 -20 -87 -40q-134 -79 -273 -305q-63 -101 -198 -371q114 24 229 132q12 13 37 28l4 -2q2 -4 2 -8q0 -37 -86 -96q-70 -49 -121 -68q-42 -16 -86 -23zM1437 1731
q0 36 24 62t60 26q66 0 66 -68q0 -37 -24 -62.5t-60 -25.5q-66 0 -66 68zM1769 1731q0 36 25 62t61 26q64 0 64 -68q0 -37 -24 -62.5t-60 -25.5q-66 0 -66 68z" />
    <glyph glyph-name="Eth" unicode="&#xd0;" horiz-adv-x="1792" 
d="M1690 1243q-89 -109 -186 -282q-80 -148 -161 -297h191l-18 -37h-195q-263 -457 -567 -576q26 0 77 -4t76 -4q579 0 826 434q102 180 102 371q0 234 -145 395zM1718 1268q146 -187 146 -418q0 -266 -172 -488q-166 -213 -423 -302q-174 -60 -380 -60q-39 0 -116 3t-116 3
q-32 0 -95 -8t-95 -8q-256 0 -256 73q0 46 96 46q78 0 197 -26t149 -26q210 0 502 570h-188l16 37h195q198 381 467 616q-184 150 -447 150q-256 0 -456 -135t-299 -373q-50 -119 -50 -220q0 -178 182 -178q99 0 208 67q28 17 34 17t9 -3t3 -9q0 -24 -88 -65.5t-184 -41.5
q-126 0 -199 87q-69 82 -69 210q0 205 165 382q145 155 356 233q170 63 359 63q303 0 502 -157q194 135 252 135q4 0 7 -1l1 -3q-2 -9 -76 -57q-79 -51 -137 -113z" />
    <glyph glyph-name="Ntilde" unicode="&#xd1;" horiz-adv-x="1802" 
d="M1479 1235q-383 -707 -643 -973t-537 -266q-102 0 -178 42q-92 51 -92 146q0 43 26.5 74t69.5 31q33 0 55.5 -22.5t22.5 -55.5q0 -29 -20.5 -69.5t-20.5 -43.5q0 -75 145 -75q312 0 631 394q146 180 425 665q214 372 249 372q8 0 8 -14q0 -8 -11 -39q-55 -156 -55 -342
q0 -46 1 -137t1 -136q0 -323 -63 -600q663 1268 993 1268q92 0 92 -80q0 -33 -23 -58.5t-56 -25.5q-41 0 -66 45t-43 45q-68 0 -216 -169q-258 -295 -617 -961q-140 -260 -156 -260q-15 0 -15 22q1 4 5 13q41 101 41 233q0 74 -18.5 222t-18.5 222q0 211 84 533zM2001 1827
q43 0 125 -38t123 -38q42 0 81.5 49t45.5 49q20 0 20 -14q0 -57 -55 -118.5t-112 -61.5q-43 0 -124.5 38t-123.5 38q-43 0 -83 -49.5t-46 -49.5q-19 0 -19 15q0 57 55.5 118.5t112.5 61.5z" />
    <glyph glyph-name="Ograve" unicode="&#xd2;" horiz-adv-x="1145" 
d="M1317 1040q0 -259 -203 -562q-196 -292 -434 -418q-133 -70 -246 -70q-153 0 -238 118q-75 104 -75 263q0 178 102 379q134 264 400 478q296 238 561 238q107 0 179 -50q83 -57 83 -159q0 -92 -23 -92q-8 4 -8 21q0 9 2 27.5t2 27.5q0 97 -66 149q-59 48 -159 48
q-225 0 -458 -209q-209 -187 -352 -470q-140 -278 -140 -497q0 -102 49 -166q54 -71 153 -71q114 0 257 82q314 178 496 584q89 201 89 345q0 86 -32 144q-40 73 -119 73q-111 0 -258 -145q-202 -200 -284 -492q-8 -34 -28 -71q-8 6 -8 30q0 162 119 381q83 153 205 246.5
t229 93.5q105 0 159 -79q46 -67 46 -177zM1351 1593q0 -14 -14 -14q-37 0 -121 103.5t-84 171.5q0 84 66 84q29 0 44 -18.5t15 -113.5q0 -67 47 -142.5t47 -70.5z" />
    <glyph glyph-name="Oacute" unicode="&#xd3;" horiz-adv-x="1145" 
d="M1317 1040q0 -259 -203 -562q-196 -292 -434 -418q-133 -70 -246 -70q-153 0 -238 118q-75 104 -75 263q0 178 102 379q134 264 400 478q296 238 561 238q107 0 179 -50q83 -57 83 -159q0 -92 -23 -92q-8 4 -8 21q0 9 2 27.5t2 27.5q0 97 -66 149q-59 48 -159 48
q-225 0 -458 -209q-209 -187 -352 -470q-140 -278 -140 -497q0 -102 49 -166q54 -71 153 -71q114 0 257 82q314 178 496 584q89 201 89 345q0 86 -32 144q-40 73 -119 73q-111 0 -258 -145q-202 -200 -284 -492q-8 -34 -28 -71q-8 6 -8 30q0 162 119 381q83 153 205 246.5
t229 93.5q105 0 159 -79q46 -67 46 -177zM1188 1583q-17 0 -17 15q0 9 64.5 54t103.5 101l50 106q35 72 75 72q61 0 61 -61q0 -107 -188 -217q-119 -70 -149 -70z" />
    <glyph glyph-name="Ocircumflex" unicode="&#xd4;" horiz-adv-x="1145" 
d="M1317 1040q0 -259 -203 -562q-196 -292 -434 -418q-133 -70 -246 -70q-153 0 -238 118q-75 104 -75 263q0 178 102 379q134 264 400 478q296 238 561 238q107 0 179 -50q83 -57 83 -159q0 -92 -23 -92q-8 4 -8 21q0 9 2 27.5t2 27.5q0 97 -66 149q-59 48 -159 48
q-225 0 -458 -209q-209 -187 -352 -470q-140 -278 -140 -497q0 -102 49 -166q54 -71 153 -71q114 0 257 82q314 178 496 584q89 201 89 345q0 86 -32 144q-40 73 -119 73q-111 0 -258 -145q-202 -200 -284 -492q-8 -34 -28 -71q-8 6 -8 30q0 162 119 381q83 153 205 246.5
t229 93.5q105 0 159 -79q46 -67 46 -177zM1335 1714l-240 -127q-98 -52 -119 -52q-26 0 -26 19q0 18 76 64q134 80 244 162q89 67 95 67q20 0 27 -23l70 -244q4 -14 4 -26q0 -21 -17 -21q-30 0 -114 181z" />
    <glyph glyph-name="Otilde" unicode="&#xd5;" horiz-adv-x="1145" 
d="M1317 1040q0 -259 -203 -562q-196 -292 -434 -418q-133 -70 -246 -70q-153 0 -238 118q-75 104 -75 263q0 178 102 379q134 264 400 478q296 238 561 238q107 0 179 -50q83 -57 83 -159q0 -92 -23 -92q-8 4 -8 21q0 9 2 27.5t2 27.5q0 97 -66 149q-59 48 -159 48
q-225 0 -458 -209q-209 -187 -352 -470q-140 -278 -140 -497q0 -102 49 -166q54 -71 153 -71q114 0 257 82q314 178 496 584q89 201 89 345q0 86 -32 144q-40 73 -119 73q-111 0 -258 -145q-202 -200 -284 -492q-8 -34 -28 -71q-8 6 -8 30q0 162 119 381q83 153 205 246.5
t229 93.5q105 0 159 -79q46 -67 46 -177zM1173 1827q43 0 125 -38t123 -38q42 0 81.5 49t45.5 49q20 0 20 -14q0 -57 -55 -118.5t-112 -61.5q-43 0 -124.5 38t-123.5 38q-43 0 -83 -49.5t-46 -49.5q-19 0 -19 15q0 57 55.5 118.5t112.5 61.5z" />
    <glyph glyph-name="Odieresis" unicode="&#xd6;" horiz-adv-x="1145" 
d="M1317 1040q0 -259 -203 -562q-196 -292 -434 -418q-133 -70 -246 -70q-153 0 -238 118q-75 104 -75 263q0 178 102 379q134 264 400 478q296 238 561 238q107 0 179 -50q83 -57 83 -159q0 -92 -23 -92q-8 4 -8 21q0 9 2 27.5t2 27.5q0 97 -66 149q-59 48 -159 48
q-225 0 -458 -209q-209 -187 -352 -470q-140 -278 -140 -497q0 -102 49 -166q54 -71 153 -71q114 0 257 82q314 178 496 584q89 201 89 345q0 86 -32 144q-40 73 -119 73q-111 0 -258 -145q-202 -200 -284 -492q-8 -34 -28 -71q-8 6 -8 30q0 162 119 381q83 153 205 246.5
t229 93.5q105 0 159 -79q46 -67 46 -177zM1046 1731q0 36 24 62t60 26q66 0 66 -68q0 -37 -24 -62.5t-60 -25.5q-66 0 -66 68zM1378 1731q0 36 25 62t61 26q64 0 64 -68q0 -37 -24 -62.5t-60 -25.5q-66 0 -66 68z" />
    <glyph glyph-name="multiply" unicode="&#xd7;" horiz-adv-x="1706" 
d="M367 1155l487 -487l487 487l58 -57l-488 -488l488 -487l-58 -57l-487 487l-487 -487l-58 57l488 487l-488 488z" />
    <glyph glyph-name="Oslash" unicode="&#xd8;" horiz-adv-x="1145" 
d="M96 -160l137 187q-159 99 -159 348q0 176 102 375q135 262 399 476q297 240 562 240q78 0 129 -20l110 151l31 -20l-109 -147q103 -65 103 -189q0 -78 -25 -80q-10 5 -10 21q0 9 3 28t3 29q0 126 -92 166l-102 -141q92 -61 92 -226q0 -167 -105 -386q-88 -183 -222 -336
q-147 -168 -311 -255q-135 -71 -249 -71q-59 0 -119 22l-141 -194zM295 53q45 -28 104 -28q113 0 257 82q313 178 495 584q90 200 90 345q0 138 -82 199zM1147 1282l100 139q-47 19 -102 19q-130 0 -283 -86q-356 -201 -561 -670q-106 -243 -106 -422q0 -121 71 -190
l858 1177q-18 6 -37 6q-104 0 -244 -135q-216 -209 -293 -494q-10 -39 -30 -81q-8 6 -8 30q0 163 119 381q82 150 203.5 245t222.5 95q38 0 90 -14z" />
    <glyph glyph-name="Ugrave" unicode="&#xd9;" horiz-adv-x="1350" 
d="M999 418q-117 -143 -244 -258q-188 -170 -292 -170q-113 0 -113 157q0 163 199 465l260 394q109 165 109 258q0 166 -213 166q-121 0 -249 -53q-163 -67 -296 -200q-158 -157 -158 -307q0 -71 40.5 -113t111.5 -42q135 0 286 134q130 116 199 257q26 54 48 135
q9 36 30 74q10 -7 10 -31q0 -163 -81 -312.5t-217 -237.5q-127 -83 -251 -83q-95 0 -152 56t-57 151q0 87 50 181q91 173 296 296t402 123q131 0 202.5 -70.5t71.5 -201.5q0 -108 -71 -249q-36 -72 -136 -226l-235 -361q-129 -198 -129 -262q0 -57 65 -57q102 0 301 197
t410 522l440 677l170 13l-690 -1082q-125 -196 -125 -274q0 -47 41 -47q75 0 202 127t124 127q12 0 12 -10q0 -18 -104 -125q-80 -82 -138 -120q-63 -40 -108 -40q-96 0 -96 149q0 115 75 273zM1429 1593q0 -14 -14 -14q-37 0 -121 103.5t-84 171.5q0 84 66 84
q29 0 44 -18.5t15 -113.5q0 -67 47 -142.5t47 -70.5z" />
    <glyph glyph-name="Uacute" unicode="&#xda;" horiz-adv-x="1350" 
d="M999 418q-117 -143 -244 -258q-188 -170 -292 -170q-113 0 -113 157q0 163 199 465l260 394q109 165 109 258q0 166 -213 166q-121 0 -249 -53q-163 -67 -296 -200q-158 -157 -158 -307q0 -71 40.5 -113t111.5 -42q135 0 286 134q130 116 199 257q26 54 48 135
q9 36 30 74q10 -7 10 -31q0 -163 -81 -312.5t-217 -237.5q-127 -83 -251 -83q-95 0 -152 56t-57 151q0 87 50 181q91 173 296 296t402 123q131 0 202.5 -70.5t71.5 -201.5q0 -108 -71 -249q-36 -72 -136 -226l-235 -361q-129 -198 -129 -262q0 -57 65 -57q102 0 301 197
t410 522l440 677l170 13l-690 -1082q-125 -196 -125 -274q0 -47 41 -47q75 0 202 127t124 127q12 0 12 -10q0 -18 -104 -125q-80 -82 -138 -120q-63 -40 -108 -40q-96 0 -96 149q0 115 75 273zM1266 1583q-17 0 -17 15q0 9 64.5 54t103.5 101l50 106q35 72 75 72
q61 0 61 -61q0 -107 -188 -217q-119 -70 -149 -70z" />
    <glyph glyph-name="Ucircumflex" unicode="&#xdb;" horiz-adv-x="1350" 
d="M999 418q-117 -143 -244 -258q-188 -170 -292 -170q-113 0 -113 157q0 163 199 465l260 394q109 165 109 258q0 166 -213 166q-121 0 -249 -53q-163 -67 -296 -200q-158 -157 -158 -307q0 -71 40.5 -113t111.5 -42q135 0 286 134q130 116 199 257q26 54 48 135
q9 36 30 74q10 -7 10 -31q0 -163 -81 -312.5t-217 -237.5q-127 -83 -251 -83q-95 0 -152 56t-57 151q0 87 50 181q91 173 296 296t402 123q131 0 202.5 -70.5t71.5 -201.5q0 -108 -71 -249q-36 -72 -136 -226l-235 -361q-129 -198 -129 -262q0 -57 65 -57q102 0 301 197
t410 522l440 677l170 13l-690 -1082q-125 -196 -125 -274q0 -47 41 -47q75 0 202 127t124 127q12 0 12 -10q0 -18 -104 -125q-80 -82 -138 -120q-63 -40 -108 -40q-96 0 -96 149q0 115 75 273zM1438 1774l-240 -127q-98 -52 -119 -52q-26 0 -26 19q0 18 76 64
q134 80 244 162q89 67 95 67q20 0 27 -23l70 -244q4 -14 4 -26q0 -21 -17 -21q-30 0 -114 181z" />
    <glyph glyph-name="Udieresis" unicode="&#xdc;" horiz-adv-x="1350" 
d="M999 418q-117 -143 -244 -258q-188 -170 -292 -170q-113 0 -113 157q0 163 199 465l260 394q109 165 109 258q0 166 -213 166q-121 0 -249 -53q-163 -67 -296 -200q-158 -157 -158 -307q0 -71 40.5 -113t111.5 -42q135 0 286 134q130 116 199 257q26 54 48 135
q9 36 30 74q10 -7 10 -31q0 -163 -81 -312.5t-217 -237.5q-127 -83 -251 -83q-95 0 -152 56t-57 151q0 87 50 181q91 173 296 296t402 123q131 0 202.5 -70.5t71.5 -201.5q0 -108 -71 -249q-36 -72 -136 -226l-235 -361q-129 -198 -129 -262q0 -57 65 -57q102 0 301 197
t410 522l440 677l170 13l-690 -1082q-125 -196 -125 -274q0 -47 41 -47q75 0 202 127t124 127q12 0 12 -10q0 -18 -104 -125q-80 -82 -138 -120q-63 -40 -108 -40q-96 0 -96 149q0 115 75 273zM1124 1731q0 36 24 62t60 26q66 0 66 -68q0 -37 -24 -62.5t-60 -25.5
q-66 0 -66 68zM1456 1731q0 36 25 62t61 26q64 0 64 -68q0 -37 -24 -62.5t-60 -25.5q-66 0 -66 68z" />
    <glyph glyph-name="Yacute" unicode="&#xdd;" horiz-adv-x="1432" 
d="M1335 713q-321 -363 -487 -363q-61 0 -94 53q-27 44 -27 109q0 126 90 281q84 127 168 253q90 140 90 228q0 168 -217 168q-221 0 -450 -170q-246 -181 -246 -391q0 -60 35 -102t94 -42q135 0 281 113q127 100 204 233q41 72 70 161q12 41 33 85q12 -6 12 -31
q0 -241 -169 -429.5t-374 -188.5q-223 0 -223 197q0 82 51 178q94 175 295 295t401 120q129 0 203 -73.5t74 -202.5q0 -184 -193 -452q-157 -218 -157 -289q0 -66 59 -66q117 0 334 219q145 146 278 325q21 29 64 85q152 192 312 315t227 123q12 0 12 -8q0 -10 -41 -29
q-173 -83 -286 -236q-56 -76 -185 -324q-157 -301 -248 -434q-164 -237 -353 -347q-149 -86 -292 -86q-94 0 -160 37q-82 45 -82 131q0 108 84 108q80 0 80 -88q0 -19 -16.5 -53.5t-16.5 -42.5q0 -62 119 -62q184 0 326 147t321 546zM1356 1583q-17 0 -17 15q0 9 64.5 54
t103.5 101l50 106q35 72 75 72q61 0 61 -61q0 -107 -188 -217q-119 -70 -149 -70z" />
    <glyph glyph-name="Thorn" unicode="&#xde;" horiz-adv-x="1503" 
d="M1518 1235q258 -133 258 -363q0 -159 -119.5 -278t-278.5 -119q-81 0 -140 26q-62 26 -62 48q0 4 3 8l5 2q7 -2 19 -7q64 -28 128 -28q122 0 216.5 123.5t94.5 288.5q0 159 -153 262q-74 -105 -197 -342q-134 -259 -235 -402q-149 -209 -323 -331q-193 -135 -384 -135
q-101 0 -172 36q-92 47 -92 138q0 46 25 79q27 38 71 38q36 0 61 -26.5t25 -62.5q0 -16 -12 -46t-12 -46q0 -41 50 -62q38 -16 85 -16q159 0 303 140q141 136 348 508q217 390 395 557q-130 55 -303 55q-235 0 -440 -93q-230 -104 -335 -290q-50 -90 -50 -170
q0 -164 188 -164q89 0 191 57q7 4 22 11q9 -2 9 -10q0 -29 -73.5 -70t-154.5 -41q-98 0 -158.5 58.5t-60.5 156.5q0 95 70 205q117 182 344 283q206 92 440 92q194 0 344 -50q227 199 287 199q4 0 9 -1l3 -5q-23 -21 -82 -65q-84 -64 -157 -148z" />
    <glyph glyph-name="germandbls" unicode="&#xdf;" horiz-adv-x="707" 
d="M-207 -586l-145 -16l598 1108q-83 -74 -162.5 -163t-89.5 -89q-1 0 -6 2q-1 2 -2 6q0 18 91 119q66 73 161 165q29 25 69 66q8 15 23 44q167 313 295 465q137 161 249 161q40 0 67.5 -29t27.5 -69q0 -98 -110 -223q-103 -103 -206 -205q-110 -113 -110 -178
q0 -52 17.5 -156.5t17.5 -157.5q0 -81 -27 -139q42 45 85 91q70 75 75 75q12 0 12 -10q0 -17 -78 -99q-183 -192 -311 -192q-139 0 -139 106q0 26 18 46t43 20q45 0 45 -39q0 -10 -13.5 -37t-13.5 -41q0 -22 39 -22q80 0 127 86q39 71 39 157q0 41 -9 123t-9 123
q0 81 219 313q114 121 179 220t65 149q0 59 -56 59q-112 0 -288 -285q-72 -116 -203 -380z" />
    <glyph glyph-name="agrave" unicode="&#xe0;" horiz-adv-x="807" 
d="M111 90q0 -63 49 -63q71 0 182 120q90 98 137 187q45 86 45 149q0 64 -67 64q-111 0 -232 -175q-114 -164 -114 -282zM549 438l84 123l135 8l-225 -354q-76 -120 -76 -160q0 -32 31 -32q47 0 181 134l134 134q4 0 9 -2l3 -6q-1 -25 -112 -134q-103 -101 -141 -125
q-52 -34 -97 -34q-84 0 -84 102q0 25 10 78q-142 -180 -258 -180q-118 0 -118 209q0 45 13 95q-25 -40 -42 -40q-5 0 -10 2l-2 6q0 8 26 39q90 108 195 183q134 94 244 94q108 0 108 -95q0 -19 -8 -45zM632 616q0 -14 -14 -14q-37 0 -121 103.5t-84 171.5q0 84 66 84
q29 0 44 -18.5t15 -113.5q0 -67 47 -142.5t47 -70.5z" />
    <glyph glyph-name="aacute" unicode="&#xe1;" horiz-adv-x="807" 
d="M111 90q0 -63 49 -63q71 0 182 120q90 98 137 187q45 86 45 149q0 64 -67 64q-111 0 -232 -175q-114 -164 -114 -282zM549 438l84 123l135 8l-225 -354q-76 -120 -76 -160q0 -32 31 -32q47 0 181 134l134 134q4 0 9 -2l3 -6q-1 -25 -112 -134q-103 -101 -141 -125
q-52 -34 -97 -34q-84 0 -84 102q0 25 10 78q-142 -180 -258 -180q-118 0 -118 209q0 45 13 95q-25 -40 -42 -40q-5 0 -10 2l-2 6q0 8 26 39q90 108 195 183q134 94 244 94q108 0 108 -95q0 -19 -8 -45zM469 606q-17 0 -17 15q0 9 64.5 54t103.5 101l50 106q35 72 75 72
q61 0 61 -61q0 -107 -188 -217q-119 -70 -149 -70z" />
    <glyph glyph-name="acircumflex" unicode="&#xe2;" horiz-adv-x="807" 
d="M111 90q0 -63 49 -63q71 0 182 120q90 98 137 187q45 86 45 149q0 64 -67 64q-111 0 -232 -175q-114 -164 -114 -282zM549 438l84 123l135 8l-225 -354q-76 -120 -76 -160q0 -32 31 -32q47 0 181 134l134 134q4 0 9 -2l3 -6q-1 -25 -112 -134q-103 -101 -141 -125
q-52 -34 -97 -34q-84 0 -84 102q0 25 10 78q-142 -180 -258 -180q-118 0 -118 209q0 45 13 95q-25 -40 -42 -40q-5 0 -10 2l-2 6q0 8 26 39q90 108 195 183q134 94 244 94q108 0 108 -95q0 -19 -8 -45zM641 797l-240 -127q-98 -52 -119 -52q-26 0 -26 19q0 18 76 64
q134 80 244 162q89 67 95 67q20 0 27 -23l70 -244q4 -14 4 -26q0 -21 -17 -21q-30 0 -114 181z" />
    <glyph glyph-name="atilde" unicode="&#xe3;" horiz-adv-x="807" 
d="M111 90q0 -63 49 -63q71 0 182 120q90 98 137 187q45 86 45 149q0 64 -67 64q-111 0 -232 -175q-114 -164 -114 -282zM549 438l84 123l135 8l-225 -354q-76 -120 -76 -160q0 -32 31 -32q47 0 181 134l134 134q4 0 9 -2l3 -6q-1 -25 -112 -134q-103 -101 -141 -125
q-52 -34 -97 -34q-84 0 -84 102q0 25 10 78q-142 -180 -258 -180q-118 0 -118 209q0 45 13 95q-25 -40 -42 -40q-5 0 -10 2l-2 6q0 8 26 39q90 108 195 183q134 94 244 94q108 0 108 -95q0 -19 -8 -45zM454 850q43 0 125 -38t123 -38q42 0 81.5 49t45.5 49q20 0 20 -14
q0 -57 -55 -118.5t-112 -61.5q-43 0 -124.5 38t-123.5 38q-43 0 -83 -49.5t-46 -49.5q-19 0 -19 15q0 57 55.5 118.5t112.5 61.5z" />
    <glyph glyph-name="adieresis" unicode="&#xe4;" horiz-adv-x="807" 
d="M111 90q0 -63 49 -63q71 0 182 120q90 98 137 187q45 86 45 149q0 64 -67 64q-111 0 -232 -175q-114 -164 -114 -282zM549 438l84 123l135 8l-225 -354q-76 -120 -76 -160q0 -32 31 -32q47 0 181 134l134 134q4 0 9 -2l3 -6q-1 -25 -112 -134q-103 -101 -141 -125
q-52 -34 -97 -34q-84 0 -84 102q0 25 10 78q-142 -180 -258 -180q-118 0 -118 209q0 45 13 95q-25 -40 -42 -40q-5 0 -10 2l-2 6q0 8 26 39q90 108 195 183q134 94 244 94q108 0 108 -95q0 -19 -8 -45zM327 754q0 36 24 62t60 26q66 0 66 -68q0 -37 -24 -62.5t-60 -25.5
q-66 0 -66 68zM659 754q0 36 25 62t61 26q64 0 64 -68q0 -37 -24 -62.5t-60 -25.5q-66 0 -66 68z" />
    <glyph glyph-name="aring" unicode="&#xe5;" horiz-adv-x="807" 
d="M469 784q0 -51 34 -85.5t85 -34.5q50 0 84.5 35t34.5 85q0 49 -35 83t-84 34q-51 0 -85 -33t-34 -84zM414 784q0 73 50.5 122.5t123.5 49.5q74 0 124 -49.5t50 -122.5t-51 -124.5t-123 -51.5t-123 51.5t-51 124.5zM111 90q0 -63 49 -63q71 0 182 120q90 98 137 187
q45 86 45 149q0 64 -67 64q-111 0 -232 -175q-114 -164 -114 -282zM549 438l84 123l135 8l-225 -354q-76 -120 -76 -160q0 -32 31 -32q47 0 181 134l134 134q4 0 9 -2l3 -6q-1 -25 -112 -134q-103 -101 -141 -125q-52 -34 -97 -34q-84 0 -84 102q0 25 10 78
q-142 -180 -258 -180q-118 0 -118 209q0 45 13 95q-25 -40 -42 -40q-5 0 -10 2l-2 6q0 8 26 39q90 108 195 183q134 94 244 94q108 0 108 -95q0 -19 -8 -45z" />
    <glyph glyph-name="ae" unicode="&#xe6;" horiz-adv-x="995" 
d="M676 498q92 80 186 80q111 0 111 -95q0 -106 -160 -193q-110 -61 -252 -93q-10 -62 -10 -82q0 -95 82 -95q71 0 162 70q59 45 138 131q65 70 71 70q12 0 12 -10q0 -17 -105 -123q-166 -168 -290 -168q-87 0 -133 74q-39 63 -39 155q-166 -229 -279 -229q-125 0 -125 198
q0 48 23 127q-59 -61 -72 -61q-5 0 -10 2l-2 6q1 21 86 103q221 213 379 213q94 0 104 -104l61 106l113 12zM571 229q139 30 236.5 118t97.5 165q0 41 -37 41q-66 0 -156 -93.5t-141 -230.5zM123 82q0 -62 43 -62q70 0 176 117q85 94 131 182q47 92 47 164q0 62 -63 62
q-114 0 -228 -178q-106 -163 -106 -285z" />
    <glyph glyph-name="ccedilla" unicode="&#xe7;" horiz-adv-x="575" 
d="M40 294q-28 -38 -44 -38q-5 0 -10 2l-2 6q1 15 82 101q199 213 370 213q133 0 133 -107q0 -36 -19 -63q-21 -31 -56 -31q-62 0 -62 53q0 24 32 46.5t32 37.5q0 35 -43 35q-91 0 -207.5 -145t-116.5 -289q0 -97 84 -97q71 0 162 71q59 45 138 131q65 71 71 71q12 0 12 -10
q0 -18 -104 -123q-166 -168 -291 -168q-84 0 -131 71q-41 62 -41 150q0 32 11 83zM113 -119q52 29 116 29q152 0 152 -127q0 -82 -67 -126q-58 -38 -144 -38q-95 0 -181 33q-32 12 -49 21q-38 19 -38 32q3 10 18 10q6 0 87 -23.5t155 -23.5q51 0 90 25q45 29 45 78
q0 79 -111 79q-14 0 -61 -10z" />
    <glyph glyph-name="egrave" unicode="&#xe8;" horiz-adv-x="575" 
d="M152 229q138 30 235.5 118t97.5 165q0 41 -36 41q-67 0 -157 -93.5t-140 -230.5zM41 297q-32 -41 -45 -41q-4 0 -7 2t-3 6q0 14 80 101q196 213 374 213q113 0 113 -95q0 -106 -160 -193q-110 -61 -252 -93q-10 -62 -10 -82q0 -95 82 -95q72 0 163 70q58 45 137 131
q65 70 71 70q12 0 12 -10q0 -18 -104 -123q-166 -168 -289 -168q-83 0 -132 71q-42 63 -42 150q0 40 12 86zM518 616q0 -14 -14 -14q-37 0 -121 103.5t-84 171.5q0 84 66 84q29 0 44 -18.5t15 -113.5q0 -67 47 -142.5t47 -70.5z" />
    <glyph glyph-name="eacute" unicode="&#xe9;" horiz-adv-x="575" 
d="M152 229q138 30 235.5 118t97.5 165q0 41 -36 41q-67 0 -157 -93.5t-140 -230.5zM41 297q-32 -41 -45 -41q-4 0 -7 2t-3 6q0 14 80 101q196 213 374 213q113 0 113 -95q0 -106 -160 -193q-110 -61 -252 -93q-10 -62 -10 -82q0 -95 82 -95q72 0 163 70q58 45 137 131
q65 70 71 70q12 0 12 -10q0 -18 -104 -123q-166 -168 -289 -168q-83 0 -132 71q-42 63 -42 150q0 40 12 86zM355 606q-17 0 -17 15q0 9 64.5 54t103.5 101l50 106q35 72 75 72q61 0 61 -61q0 -107 -188 -217q-119 -70 -149 -70z" />
    <glyph glyph-name="ecircumflex" unicode="&#xea;" horiz-adv-x="575" 
d="M152 229q138 30 235.5 118t97.5 165q0 41 -36 41q-67 0 -157 -93.5t-140 -230.5zM41 297q-32 -41 -45 -41q-4 0 -7 2t-3 6q0 14 80 101q196 213 374 213q113 0 113 -95q0 -106 -160 -193q-110 -61 -252 -93q-10 -62 -10 -82q0 -95 82 -95q72 0 163 70q58 45 137 131
q65 70 71 70q12 0 12 -10q0 -18 -104 -123q-166 -168 -289 -168q-83 0 -132 71q-42 63 -42 150q0 40 12 86zM527 797l-240 -127q-98 -52 -119 -52q-26 0 -26 19q0 18 76 64q134 80 244 162q89 67 95 67q20 0 27 -23l70 -244q4 -14 4 -26q0 -21 -17 -21q-30 0 -114 181z" />
    <glyph glyph-name="edieresis" unicode="&#xeb;" horiz-adv-x="575" 
d="M152 229q138 30 235.5 118t97.5 165q0 41 -36 41q-67 0 -157 -93.5t-140 -230.5zM41 297q-32 -41 -45 -41q-4 0 -7 2t-3 6q0 14 80 101q196 213 374 213q113 0 113 -95q0 -106 -160 -193q-110 -61 -252 -93q-10 -62 -10 -82q0 -95 82 -95q72 0 163 70q58 45 137 131
q65 70 71 70q12 0 12 -10q0 -18 -104 -123q-166 -168 -289 -168q-83 0 -132 71q-42 63 -42 150q0 40 12 86zM213 754q0 36 24 62t60 26q66 0 66 -68q0 -37 -24 -62.5t-60 -25.5q-66 0 -66 68zM545 754q0 36 25 62t61 26q64 0 64 -68q0 -37 -24 -62.5t-60 -25.5q-66 0 -66 68
z" />
    <glyph glyph-name="igrave" unicode="&#xec;" horiz-adv-x="451" 
d="M182 449q-50 -53 -99 -106q-82 -87 -89 -87q-1 0 -6 2l-2 4q1 30 260 297l147 10l-203 -319q-100 -157 -100 -193q0 -39 35 -39q67 0 199 136.5t135 136.5q12 0 12 -10q0 -22 -110 -129q-100 -99 -140 -125q-54 -37 -94 -37q-111 0 -111 129q0 54 66 170zM454 616
q0 -14 -14 -14q-37 0 -121 103.5t-84 171.5q0 84 66 84q29 0 44 -18.5t15 -113.5q0 -67 47 -142.5t47 -70.5z" />
    <glyph glyph-name="iacute" unicode="&#xed;" horiz-adv-x="451" 
d="M182 449q-50 -53 -99 -106q-82 -87 -89 -87q-1 0 -6 2l-2 4q1 30 260 297l147 10l-203 -319q-100 -157 -100 -193q0 -39 35 -39q67 0 199 136.5t135 136.5q12 0 12 -10q0 -22 -110 -129q-100 -99 -140 -125q-54 -37 -94 -37q-111 0 -111 129q0 54 66 170zM291 606
q-17 0 -17 15q0 9 64.5 54t103.5 101l50 106q35 72 75 72q61 0 61 -61q0 -107 -188 -217q-119 -70 -149 -70z" />
    <glyph glyph-name="icircumflex" unicode="&#xee;" horiz-adv-x="451" 
d="M182 449q-50 -53 -99 -106q-82 -87 -89 -87q-1 0 -6 2l-2 4q1 30 260 297l147 10l-203 -319q-100 -157 -100 -193q0 -39 35 -39q67 0 199 136.5t135 136.5q12 0 12 -10q0 -22 -110 -129q-100 -99 -140 -125q-54 -37 -94 -37q-111 0 -111 129q0 54 66 170zM463 797
l-240 -127q-98 -52 -119 -52q-26 0 -26 19q0 18 76 64q134 80 244 162q89 67 95 67q20 0 27 -23l70 -244q4 -14 4 -26q0 -21 -17 -21q-30 0 -114 181z" />
    <glyph glyph-name="idieresis" unicode="&#xef;" horiz-adv-x="451" 
d="M182 449q-50 -53 -99 -106q-82 -87 -89 -87q-1 0 -6 2l-2 4q1 30 260 297l147 10l-203 -319q-100 -157 -100 -193q0 -39 35 -39q67 0 199 136.5t135 136.5q12 0 12 -10q0 -22 -110 -129q-100 -99 -140 -125q-54 -37 -94 -37q-111 0 -111 129q0 54 66 170zM149 754
q0 36 24 62t60 26q66 0 66 -68q0 -37 -24 -62.5t-60 -25.5q-66 0 -66 68zM481 754q0 36 25 62t61 26q64 0 64 -68q0 -37 -24 -62.5t-60 -25.5q-66 0 -66 68z" />
    <glyph glyph-name="eth" unicode="&#xf0;" horiz-adv-x="680" 
d="M532 543q9 43 9 88q0 104 -41 280l-269 -88l-10 35l268 86q-31 93 -72.5 188t-41.5 101q0 16 10 16q25 0 162 -288l215 71l12 -35l-215 -67q70 -208 70 -361q0 -400 -319 -543q-80 -36 -146 -36q-139 0 -139 213q0 36 16 94q-32 -41 -45 -41q-4 0 -7 2t-3 6q0 13 84 105
q195 215 366 215q57 0 96 -41zM113 94q0 -71 61 -71q37 0 90 33q94 58 170 167q82 119 82 221q0 103 -80 103q-101 0 -216 -178q-107 -166 -107 -275z" />
    <glyph glyph-name="ntilde" unicode="&#xf1;" horiz-adv-x="907" 
d="M29 -2l266 399q65 98 65 123q0 27 -28 27q-58 0 -196 -146.5t-140 -146.5q-10 0 -10 8q0 17 112 139q164 179 242 179q80 0 80 -97q0 -89 -82 -221q280 316 373 316q77 0 77 -99q0 -75 -110.5 -228.5t-110.5 -193.5q0 -37 33 -37q48 0 182 135.5t133 135.5q13 0 13 -10
q0 -21 -106 -125q-96 -93 -137 -123q-58 -43 -87 -43q-98 0 -98 145q0 87 110.5 226t110.5 161q0 23 -23 23q-105 0 -526 -533zM502 850q43 0 125 -38t123 -38q42 0 81.5 49t45.5 49q20 0 20 -14q0 -57 -55 -118.5t-112 -61.5q-43 0 -124.5 38t-123.5 38q-43 0 -83 -49.5
t-46 -49.5q-19 0 -19 15q0 57 55.5 118.5t112.5 61.5z" />
    <glyph glyph-name="ograve" unicode="&#xf2;" horiz-adv-x="680" 
d="M115 96q0 -73 63 -73q34 0 88 34q93 58 168 167q82 119 82 220q0 103 -78 103q-80 0 -177 -122q-77 -98 -116 -197q-30 -76 -30 -132zM459 186q37 -6 33 -6q95 0 196 121q4 5 17 6l6 -3q2 -5 2 -9q0 -8 -25 -37q-90 -106 -209 -106q-22 0 -46 3q-152 -165 -271 -165
q-137 0 -137 213q0 36 16 94q-32 -41 -45 -41q-4 0 -7 2t-3 6q0 13 84 105q195 213 360 213q141 0 141 -148q0 -102 -112 -248zM540 616q0 -14 -14 -14q-37 0 -121 103.5t-84 171.5q0 84 66 84q29 0 44 -18.5t15 -113.5q0 -67 47 -142.5t47 -70.5z" />
    <glyph glyph-name="oacute" unicode="&#xf3;" horiz-adv-x="680" 
d="M115 96q0 -73 63 -73q34 0 88 34q93 58 168 167q82 119 82 220q0 103 -78 103q-80 0 -177 -122q-77 -98 -116 -197q-30 -76 -30 -132zM459 186q37 -6 33 -6q95 0 196 121q4 5 17 6l6 -3q2 -5 2 -9q0 -8 -25 -37q-90 -106 -209 -106q-22 0 -46 3q-152 -165 -271 -165
q-137 0 -137 213q0 36 16 94q-32 -41 -45 -41q-4 0 -7 2t-3 6q0 13 84 105q195 213 360 213q141 0 141 -148q0 -102 -112 -248zM377 606q-17 0 -17 15q0 9 64.5 54t103.5 101l50 106q35 72 75 72q61 0 61 -61q0 -107 -188 -217q-119 -70 -149 -70z" />
    <glyph glyph-name="ocircumflex" unicode="&#xf4;" horiz-adv-x="680" 
d="M115 96q0 -73 63 -73q34 0 88 34q93 58 168 167q82 119 82 220q0 103 -78 103q-80 0 -177 -122q-77 -98 -116 -197q-30 -76 -30 -132zM459 186q37 -6 33 -6q95 0 196 121q4 5 17 6l6 -3q2 -5 2 -9q0 -8 -25 -37q-90 -106 -209 -106q-22 0 -46 3q-152 -165 -271 -165
q-137 0 -137 213q0 36 16 94q-32 -41 -45 -41q-4 0 -7 2t-3 6q0 13 84 105q195 213 360 213q141 0 141 -148q0 -102 -112 -248zM549 797l-240 -127q-98 -52 -119 -52q-26 0 -26 19q0 18 76 64q134 80 244 162q89 67 95 67q20 0 27 -23l70 -244q4 -14 4 -26q0 -21 -17 -21
q-30 0 -114 181z" />
    <glyph glyph-name="otilde" unicode="&#xf5;" horiz-adv-x="680" 
d="M115 96q0 -73 63 -73q34 0 88 34q93 58 168 167q82 119 82 220q0 103 -78 103q-80 0 -177 -122q-77 -98 -116 -197q-30 -76 -30 -132zM459 186q37 -6 33 -6q95 0 196 121q4 5 17 6l6 -3q2 -5 2 -9q0 -8 -25 -37q-90 -106 -209 -106q-22 0 -46 3q-152 -165 -271 -165
q-137 0 -137 213q0 36 16 94q-32 -41 -45 -41q-4 0 -7 2t-3 6q0 13 84 105q195 213 360 213q141 0 141 -148q0 -102 -112 -248zM362 850q43 0 125 -38t123 -38q42 0 81.5 49t45.5 49q20 0 20 -14q0 -57 -55 -118.5t-112 -61.5q-43 0 -124.5 38t-123.5 38q-43 0 -83 -49.5
t-46 -49.5q-19 0 -19 15q0 57 55.5 118.5t112.5 61.5z" />
    <glyph glyph-name="odieresis" unicode="&#xf6;" horiz-adv-x="680" 
d="M115 96q0 -73 63 -73q34 0 88 34q93 58 168 167q82 119 82 220q0 103 -78 103q-80 0 -177 -122q-77 -98 -116 -197q-30 -76 -30 -132zM459 186q37 -6 33 -6q95 0 196 121q4 5 17 6l6 -3q2 -5 2 -9q0 -8 -25 -37q-90 -106 -209 -106q-22 0 -46 3q-152 -165 -271 -165
q-137 0 -137 213q0 36 16 94q-32 -41 -45 -41q-4 0 -7 2t-3 6q0 13 84 105q195 213 360 213q141 0 141 -148q0 -102 -112 -248zM235 754q0 36 24 62t60 26q66 0 66 -68q0 -37 -24 -62.5t-60 -25.5q-66 0 -66 68zM567 754q0 36 25 62t61 26q64 0 64 -68q0 -37 -24 -62.5
t-60 -25.5q-66 0 -66 68z" />
    <glyph glyph-name="divide" unicode="&#xf7;" horiz-adv-x="1706" 
d="M854 365q42 0 70 -29.5t28 -71.5q0 -41 -28.5 -69.5t-69.5 -28.5t-69.5 28.5t-28.5 69.5t28.5 71t69.5 30zM254 651h1198v-82h-1198v82zM854 1055q42 0 70 -28.5t28 -70.5q0 -41 -28.5 -70.5t-69.5 -29.5t-69.5 29.5t-28.5 70.5t28.5 70t69.5 29z" />
    <glyph glyph-name="oslash" unicode="&#xf8;" horiz-adv-x="678" 
d="M494 520l-338 -497q23 -3 14 -3q34 0 79 26q98 56 178 169q87 122 87 227q0 45 -20 78zM129 43l335 498q-23 4 -28 4q-79 0 -176 -124q-77 -98 -116 -197q-31 -77 -31 -134q0 -20 16 -47zM431 153q-148 -165 -265 -165q-15 0 -28 4l-95 -142l-33 21l92 135
q-77 38 -77 195q0 40 16 96q-28 -41 -45 -41q-6 0 -10 2l-2 4q0 8 27 42q85 105 186 181q130 97 233 97q22 0 56 -10l81 124l31 -18l-82 -123q53 -35 53 -121q0 -116 -112 -250q6 0 18 -3t19 -3q52 0 126.5 60.5t71.5 60.5q4 0 9 -1l4 -5q0 -31 -78.5 -87t-149.5 -56
q-22 0 -46 3z" />
    <glyph glyph-name="ugrave" unicode="&#xf9;" horiz-adv-x="795" 
d="M453 57q0 -37 32 -37q49 0 182 135.5t134 135.5q12 0 12 -8q0 -23 -102 -124q-88 -87 -131 -120q-65 -49 -97 -49q-96 0 -96 139q0 19 8 59q-171 -198 -268 -198q-113 0 -113 129q0 86 166 329q-49 -53 -99 -106q-80 -86 -87 -86q-1 0 -7 2l-3 4q1 26 260 297l147 8
l-203 -317q-100 -156 -100 -193t33 -37q177 0 497 539l138 8l-246 -389q-57 -90 -57 -121zM626 616q0 -14 -14 -14q-37 0 -121 103.5t-84 171.5q0 84 66 84q29 0 44 -18.5t15 -113.5q0 -67 47 -142.5t47 -70.5z" />
    <glyph glyph-name="uacute" unicode="&#xfa;" horiz-adv-x="795" 
d="M453 57q0 -37 32 -37q49 0 182 135.5t134 135.5q12 0 12 -8q0 -23 -102 -124q-88 -87 -131 -120q-65 -49 -97 -49q-96 0 -96 139q0 19 8 59q-171 -198 -268 -198q-113 0 -113 129q0 86 166 329q-49 -53 -99 -106q-80 -86 -87 -86q-1 0 -7 2l-3 4q1 26 260 297l147 8
l-203 -317q-100 -156 -100 -193t33 -37q177 0 497 539l138 8l-246 -389q-57 -90 -57 -121zM463 606q-17 0 -17 15q0 9 64.5 54t103.5 101l50 106q35 72 75 72q61 0 61 -61q0 -107 -188 -217q-119 -70 -149 -70z" />
    <glyph glyph-name="ucircumflex" unicode="&#xfb;" horiz-adv-x="795" 
d="M453 57q0 -37 32 -37q49 0 182 135.5t134 135.5q12 0 12 -8q0 -23 -102 -124q-88 -87 -131 -120q-65 -49 -97 -49q-96 0 -96 139q0 19 8 59q-171 -198 -268 -198q-113 0 -113 129q0 86 166 329q-49 -53 -99 -106q-80 -86 -87 -86q-1 0 -7 2l-3 4q1 26 260 297l147 8
l-203 -317q-100 -156 -100 -193t33 -37q177 0 497 539l138 8l-246 -389q-57 -90 -57 -121zM635 797l-240 -127q-98 -52 -119 -52q-26 0 -26 19q0 18 76 64q134 80 244 162q89 67 95 67q20 0 27 -23l70 -244q4 -14 4 -26q0 -21 -17 -21q-30 0 -114 181z" />
    <glyph glyph-name="udieresis" unicode="&#xfc;" horiz-adv-x="795" 
d="M453 57q0 -37 32 -37q49 0 182 135.5t134 135.5q12 0 12 -8q0 -23 -102 -124q-88 -87 -131 -120q-65 -49 -97 -49q-96 0 -96 139q0 19 8 59q-171 -198 -268 -198q-113 0 -113 129q0 86 166 329q-49 -53 -99 -106q-80 -86 -87 -86q-1 0 -7 2l-3 4q1 26 260 297l147 8
l-203 -317q-100 -156 -100 -193t33 -37q177 0 497 539l138 8l-246 -389q-57 -90 -57 -121zM321 754q0 36 24 62t60 26q66 0 66 -68q0 -37 -24 -62.5t-60 -25.5q-66 0 -66 68zM653 754q0 36 25 62t61 26q64 0 64 -68q0 -37 -24 -62.5t-60 -25.5q-66 0 -66 68z" />
    <glyph glyph-name="yacute" unicode="&#xfd;" horiz-adv-x="874" 
d="M412 -82q-469 -271 -469 -467q0 -69 59 -69q73 0 165 115q86 109 245 421zM596 272q-233 -266 -344 -266q-42 0 -66 42q-20 34 -20 79q0 82 96 219.5t96 173.5q0 27 -30 27q-54 0 -191 -146.5t-141 -146.5q-10 0 -10 8q0 23 113 142q109 114 153 144q50 34 92 34
q88 0 88 -109q0 -72 -98 -221.5t-98 -175.5q0 -41 32 -41q62 0 207.5 151t278.5 375l125 8q-182 -296 -326 -573q113 73 332 295q10 -2 10 -10q0 -28 -112 -135.5t-259 -196.5q-313 -596 -532 -596q-105 0 -105 102q0 126 220 295q105 81 327 211zM504 606q-17 0 -17 15
q0 9 64.5 54t103.5 101l50 106q35 72 75 72q61 0 61 -61q0 -107 -188 -217q-119 -70 -149 -70z" />
    <glyph glyph-name="thorn" unicode="&#xfe;" horiz-adv-x="772" 
d="M-389 -541l598 1010q-200 -215 -211 -215q-5 0 -10 2l-2 6q44 52 145 164q144 159 268 354l289 453l131 18l-616 -989q288 316 375 316q77 0 77 -99q0 -74 -110.5 -228t-110.5 -194q0 -37 33 -37q46 0 201 154q35 41 110 117l11 -2q4 -4 4 -8q0 -23 -106 -126
q-92 -91 -135 -122q-58 -43 -87 -43q-98 0 -98 145q0 86 110.5 226.5t110.5 160.5q0 25 -23 25q-57 0 -229.5 -181t-321.5 -434l-270 -458z" />
    <glyph glyph-name="ydieresis" unicode="&#xff;" horiz-adv-x="874" 
d="M412 -82q-469 -271 -469 -467q0 -69 59 -69q73 0 165 115q86 109 245 421zM596 272q-233 -266 -344 -266q-42 0 -66 42q-20 34 -20 79q0 82 96 219.5t96 173.5q0 27 -30 27q-54 0 -191 -146.5t-141 -146.5q-10 0 -10 8q0 23 113 142q109 114 153 144q50 34 92 34
q88 0 88 -109q0 -72 -98 -221.5t-98 -175.5q0 -41 32 -41q62 0 207.5 151t278.5 375l125 8q-182 -296 -326 -573q113 73 332 295q10 -2 10 -10q0 -28 -112 -135.5t-259 -196.5q-313 -596 -532 -596q-105 0 -105 102q0 126 220 295q105 81 327 211zM362 754q0 36 24 62t60 26
q66 0 66 -68q0 -37 -24 -62.5t-60 -25.5q-66 0 -66 68zM694 754q0 36 25 62t61 26q64 0 64 -68q0 -37 -24 -62.5t-60 -25.5q-66 0 -66 68z" />
    <glyph glyph-name="Cacute" unicode="&#x106;" horiz-adv-x="1190" 
d="M481 702q-102 -210 -102 -426q0 -251 219 -251q135 0 268 88q128 83 197 206q49 88 49 158q0 57 -29 95q-32 42 -88 42q-103 0 -202 -107q-78 -85 -127 -202q-18 -43 -35.5 -108.5t-28.5 -65.5q-14 0 -14 35q0 206 111.5 354t263.5 148q83 0 132 -52q46 -51 46 -135
q0 -135 -125 -274q-112 -126 -250 -178q-101 -39 -207 -39q-157 0 -246 104q-84 98 -84 258q0 145 64 305q-254 -55 -268 -55q-18 0 -21 10q2 13 132 41q55 12 165 37q289 481 809 700q198 83 330 83q60 0 102 -28q49 -32 49 -89q0 -327 -1110 -654zM494 739q352 99 617 218
q450 204 450 391q0 98 -121 98q-113 0 -291 -82q-207 -95 -379.5 -259.5t-275.5 -365.5zM1283 1583q-17 0 -17 15q0 9 64.5 54t103.5 101l50 106q35 72 75 72q61 0 61 -61q0 -107 -188 -217q-119 -70 -149 -70z" />
    <glyph glyph-name="cacute" unicode="&#x107;" horiz-adv-x="575" 
d="M40 294q-28 -38 -44 -38q-5 0 -10 2l-2 6q1 15 82 101q199 213 370 213q133 0 133 -107q0 -36 -19 -63q-21 -31 -56 -31q-62 0 -62 53q0 24 32 46.5t32 37.5q0 35 -43 35q-91 0 -207.5 -145t-116.5 -289q0 -97 84 -97q71 0 162 71q59 45 138 131q65 71 71 71q12 0 12 -10
q0 -18 -104 -123q-166 -168 -291 -168q-84 0 -131 71q-41 62 -41 150q0 32 11 83zM367 606q-17 0 -17 15q0 9 64.5 54t103.5 101l50 106q35 72 75 72q61 0 61 -61q0 -107 -188 -217q-119 -70 -149 -70z" />
    <glyph glyph-name="Ccaron" unicode="&#x10c;" horiz-adv-x="1190" 
d="M481 702q-102 -210 -102 -426q0 -251 219 -251q135 0 268 88q128 83 197 206q49 88 49 158q0 57 -29 95q-32 42 -88 42q-103 0 -202 -107q-78 -85 -127 -202q-18 -43 -35.5 -108.5t-28.5 -65.5q-14 0 -14 35q0 206 111.5 354t263.5 148q83 0 132 -52q46 -51 46 -135
q0 -135 -125 -274q-112 -126 -250 -178q-101 -39 -207 -39q-157 0 -246 104q-84 98 -84 258q0 145 64 305q-254 -55 -268 -55q-18 0 -21 10q2 13 132 41q55 12 165 37q289 481 809 700q198 83 330 83q60 0 102 -28q49 -32 49 -89q0 -327 -1110 -654zM494 739q352 99 617 218
q450 204 450 391q0 98 -121 98q-113 0 -291 -82q-207 -95 -379.5 -259.5t-275.5 -365.5zM1379 1727l237 127q91 49 119 49q27 0 27 -17q0 -19 -89 -73q-109 -66 -229 -155q-91 -67 -98 -67q-17 0 -24 24l-70 242q-4 14 -4 27q0 23 14 23q27 0 117 -180z" />
    <glyph glyph-name="ccaron" unicode="&#x10d;" horiz-adv-x="575" 
d="M40 294q-28 -38 -44 -38q-5 0 -10 2l-2 6q1 15 82 101q199 213 370 213q133 0 133 -107q0 -36 -19 -63q-21 -31 -56 -31q-62 0 -62 53q0 24 32 46.5t32 37.5q0 35 -43 35q-91 0 -207.5 -145t-116.5 -289q0 -97 84 -97q71 0 162 71q59 45 138 131q65 71 71 71q12 0 12 -10
q0 -18 -104 -123q-166 -168 -291 -168q-84 0 -131 71q-41 62 -41 150q0 32 11 83zM463 750l237 127q91 49 119 49q27 0 27 -17q0 -19 -89 -73q-109 -66 -229 -155q-91 -67 -98 -67q-17 0 -24 24l-70 242q-4 14 -4 27q0 23 14 23q27 0 117 -180z" />
    <glyph glyph-name="Dslash" unicode="&#x110;" horiz-adv-x="1792" 
d="M1690 1243q-89 -109 -186 -282q-80 -148 -161 -297h191l-18 -37h-195q-263 -457 -567 -576q26 0 77 -4t76 -4q579 0 826 434q102 180 102 371q0 234 -145 395zM1718 1268q146 -187 146 -418q0 -266 -172 -488q-166 -213 -423 -302q-174 -60 -380 -60q-39 0 -116 3t-116 3
q-32 0 -95 -8t-95 -8q-256 0 -256 73q0 46 96 46q78 0 197 -26t149 -26q210 0 502 570h-188l16 37h195q198 381 467 616q-184 150 -447 150q-256 0 -456 -135t-299 -373q-50 -119 -50 -220q0 -178 182 -178q99 0 208 67q28 17 34 17t9 -3t3 -9q0 -24 -88 -65.5t-184 -41.5
q-126 0 -199 87q-69 82 -69 210q0 205 165 382q145 155 356 233q170 63 359 63q303 0 502 -157q194 135 252 135q4 0 7 -1l1 -3q-2 -9 -76 -57q-79 -51 -137 -113z" />
    <glyph glyph-name="dcroat" unicode="&#x111;" horiz-adv-x="807" 
d="M111 90q0 -63 49 -63q71 0 182 120q90 98 137 187q45 86 45 149q0 64 -67 64q-111 0 -232 -175q-114 -164 -114 -282zM549 438l233 420h-260l19 33h262l201 354l133 6l-207 -360h211l-21 -33h-209l-333 -577q-101 -175 -101 -224q0 -28 33 -28q40 0 171.5 131l131.5 131
q4 0 9 -2l3 -6q-1 -25 -112 -134q-103 -101 -141 -125q-52 -34 -97 -34q-84 0 -84 102q0 25 10 78q-142 -180 -258 -180q-118 0 -118 209q0 45 13 95q-25 -40 -42 -40q-5 0 -10 2l-2 6q0 8 26 39q90 108 195 183q134 94 244 94q108 0 108 -95q0 -19 -8 -45z" />
    <glyph glyph-name="Gbreve" unicode="&#x11e;" horiz-adv-x="1180" 
d="M590 752q320 94 571 212q414 195 414 369q0 84 -133 84q-165 0 -395 -143q-210 -132 -323 -279q-82 -107 -134 -243zM1047 582q-232 -195 -404 -195q-109 0 -171 77q-58 72 -58 183v25q-248 -56 -271 -56q-13 0 -16 9q1 16 115 40q93 20 174 40q34 203 255 397
q177 157 409 258q222 96 368 96q164 0 164 -115q0 -190 -434 -399q-256 -123 -596 -225q-27 -71 -27 -152q0 -141 113 -141q114 0 270 110q97 69 238 206q114 110 127 110q14 0 14 -8q0 -10 -54 -121q-65 -133 -67 -139q-110 -253 -278 -408q-200 -184 -445 -184
q-107 0 -187 48q-96 57 -96 157q0 50 29.5 86t77.5 36q35 0 60.5 -23t25.5 -58q0 -26 -28.5 -65.5t-28.5 -55.5q0 -97 151 -97q146 0 276 125q127 124 294 439zM1108 1897q14 0 34 -39q25 -51 51 -74q45 -39 122 -39q110 0 270 117q14 10 43 30q16 0 16 -18q0 -16 -52 -78
q-140 -168 -294 -168q-86 0 -151 75q-62 71 -62 159q0 35 23 35z" />
    <glyph glyph-name="gbreve" unicode="&#x11f;" horiz-adv-x="756" 
d="M291 -82q-469 -271 -469 -467q0 -69 59 -69q145 0 410 536zM111 90q0 -63 49 -63q71 0 182 120q90 98 137 187q45 86 45 149q0 64 -67 64q-111 0 -232 -175q-114 -164 -114 -282zM549 438l84 123l125 8q-182 -296 -326 -573q127 82 332 295q10 0 10 -10
q0 -28 -112 -135.5t-259 -196.5q-313 -596 -532 -596q-104 0 -104 102q0 126 219 295q105 82 327 211l105 225q-169 -196 -275 -196q-118 0 -118 209q0 45 13 95q-25 -40 -42 -40q-5 0 -10 2l-2 6q1 9 26 39q88 107 195 183q135 94 244 94q108 0 108 -95q0 -19 -8 -45z
M324 920q14 0 34 -39q25 -51 51 -74q45 -39 122 -39q110 0 270 117q14 10 43 30q16 0 16 -18q0 -16 -52 -78q-140 -168 -294 -168q-86 0 -151 75q-62 71 -62 159q0 35 23 35z" />
    <glyph glyph-name="Idotaccent" unicode="&#x130;" horiz-adv-x="1139" 
d="M1028 688q285 531 649 721q-365 -28 -587 -179q-224 -154 -224 -358q0 -76 44 -127t118 -57zM1165 657q-141 -268 -312 -438q-230 -229 -468 -229q-95 0 -164 36q-88 46 -88 132q0 100 92 100q74 0 74 -82q0 -18 -12.5 -46t-12.5 -32q0 -40 46 -62q36 -18 81 -18
q334 0 615 641q-103 14 -167 78q-67 68 -67 170q0 313 566 471q244 68 417 68q22 0 27 -10q-2 -9 -48 -26q-53 -20 -87 -40q-134 -79 -273 -305q-63 -101 -198 -371q114 24 229 132q12 13 37 28l4 -2q2 -4 2 -8q0 -37 -86 -96q-70 -49 -121 -68q-42 -16 -86 -23zM1615 1735
q0 41 25 70.5t66 29.5q67 0 67 -70q0 -98 -88 -98q-70 0 -70 68z" />
    <glyph glyph-name="dotlessi" unicode="&#x131;" horiz-adv-x="451" 
d="M182 449q-50 -53 -99 -106q-82 -87 -89 -87q-1 0 -6 2l-2 4q1 30 260 297l147 10l-203 -319q-100 -157 -100 -193q0 -39 35 -39q67 0 199 136.5t135 136.5q12 0 12 -10q0 -22 -110 -129q-100 -99 -140 -125q-54 -37 -94 -37q-111 0 -111 129q0 54 66 170z" />
    <glyph glyph-name="Lslash" unicode="&#x141;" horiz-adv-x="1526" 
d="M600 121q-231 84 -340 84q-143 0 -143 -82q0 -53 75 -82q56 -21 121 -21q151 0 287 101zM655 100q-185 -106 -344 -106q-85 0 -149 26q-88 35 -88 107q0 125 207 125q129 0 391 -74q108 78 319 498l-340 -152l31 58l336 147q180 324 389.5 525.5t345.5 201.5
q111 0 111 -110q0 -69 -63.5 -162.5t-92.5 -93.5q-4 0 -7 2l-3 4q42 57 85 115q50 75 50 128q0 84 -76 84q-146 0 -328 -249q-121 -165 -221 -379l342 151l-32 -57l-334 -148q-172 -366 -443 -581q227 -86 398 -86q106 0 207 61q63 38 141 113q63 62 76 63l3 -2l1 -4
q-3 -29 -82 -102q-230 -213 -412 -213q-120 0 -418 110z" />
    <glyph glyph-name="lslash" unicode="&#x142;" horiz-adv-x="451" 
d="M182 449q-50 -53 -99 -106q-82 -87 -89 -87q-1 0 -6 2l-2 4q0 12 129 160q79 90 157 180l-245 -94l32 49l242 94l379 582l133 18l-336 -536l242 92l-33 -51l-242 -94l-262 -412q-100 -157 -100 -193q0 -39 37 -39q68 0 204 136.5l136 136.5q12 0 12 -10q0 -22 -110 -129
q-100 -99 -140 -125q-54 -37 -94 -37q-111 0 -111 129q0 54 66 170z" />
    <glyph glyph-name="OE" unicode="&#x152;" horiz-adv-x="1886" 
d="M1540 842q-96 67 -96 166q0 93 50 178q65 111 211 199t273 88q100 0 158.5 -54t58.5 -153q0 -120 -89 -215t-208 -95q-58 0 -95.5 35.5t-37.5 93.5q0 83 77.5 158.5t129.5 75.5q4 0 9 -1l4 -5q-46 -41 -91 -81q-84 -80 -84 -163q0 -88 91 -88q100 0 183 91t83 192
q0 178 -176 178q-151 0 -304 -173q-149 -168 -149 -321q0 -93 88 -93q7 0 21 1h21q39 0 63 -9q28 -12 28 -30q0 -29 -63 -29q-25 0 -67 12.5t-54 12.5q-38 0 -101 -22q-163 -56 -270 -200q-108 -147 -108 -317q0 -111 62.5 -180t172.5 -69q157 0 315 146q162 149 162 304
q0 58 -33 98.5t-89 40.5q-86 0 -182 -101q-75 -79 -124 -179q-27 -55 -46 -132q-19 -71 -27 -71q-11 0 -11 37q0 195 112.5 341t250.5 146q82 0 132 -47.5t50 -128.5q0 -123 -109 -258q-98 -122 -220 -181q-104 -50 -214 -50q-150 0 -245 79q-103 85 -103 232v25
q-294 -336 -565 -336q-154 0 -237 118q-74 103 -74 263q0 179 102 379q134 264 399 477q296 239 562 239q118 0 188 -55q76 -61 76 -176q0 -73 -25 -74q-10 5 -10 21q0 9 3 27.5t3 27.5q0 98 -65 152q-59 49 -160 49q-134 0 -287 -86q-353 -198 -559 -670
q-106 -241 -106 -420q0 -102 49 -166q54 -71 153 -71q114 0 258 82t263 219q127 146 218 332q105 214 105 378q0 86 -32 144q-40 73 -119 73q-112 0 -259 -145q-208 -205 -284 -492q-8 -34 -27 -71q-8 6 -8 30q0 162 119 381q83 153 204.5 246.5t229.5 93.5q105 0 159 -79
q46 -67 46 -177q0 -164 -94 -360q128 104 364 162z" />
    <glyph glyph-name="oe" unicode="&#x153;" horiz-adv-x="983" 
d="M111 94q0 -71 63 -71q34 0 88 33q93 58 166 167q80 118 80 219q0 103 -76 103q-99 0 -214 -177q-107 -167 -107 -274zM565 229q139 31 235.5 119t96.5 164q0 41 -37 41q-66 0 -155 -93t-140 -231zM446 176q-157 -186 -286 -186q-135 0 -135 211q0 49 13 95
q-27 -40 -42 -40q-6 0 -10 2l-2 4q0 9 63 82q204 238 377 238q127 0 141 -136q151 136 287 136q46 0 78.5 -27t32.5 -72q0 -107 -157 -193q-109 -60 -251 -93q-10 -62 -10 -82q0 -92 82 -92q72 0 162 69q56 44 134 130q63 69 70 69q3 0 10 -3q3 -4 3 -7q0 -15 -105 -123
q-164 -168 -287 -168q-132 0 -168 186z" />
    <glyph glyph-name="Scedilla" unicode="&#x15e;" horiz-adv-x="1190" 
d="M1264 741q268 144 443 325t175 290q0 78 -80 78q-255 0 -538 -693zM1247 700q-116 -295 -308 -484q-231 -226 -511 -226q-105 0 -187 42q-102 52 -102 148q0 45 26.5 76t70.5 31q34 0 57.5 -24t23.5 -58q0 -22 -14 -56t-14 -43q0 -46 58 -69q43 -17 97 -17q216 0 388 199
q132 151 223 395q-292 -147 -340 -147q-8 0 -12.5 2t-4.5 4q0 11 128 66q133 57 243 114q159 362 367 585.5t368 223.5q109 0 109 -104q0 -126 -186.5 -315t-479.5 -343zM273 -119q52 29 116 29q152 0 152 -127q0 -82 -67 -126q-58 -38 -144 -38q-95 0 -181 33
q-32 12 -49 21q-38 19 -38 32q3 10 18 10q6 0 87 -23.5t155 -23.5q51 0 90 25q45 29 45 78q0 79 -111 79q-14 0 -61 -10z" />
    <glyph glyph-name="scedilla" unicode="&#x15f;" horiz-adv-x="446" 
d="M252 528q-77 -78 -161.5 -176t-96.5 -98q-10 0 -10 8q0 19 266 305q36 86 84 86q41 0 41 -39q0 -30 -47 -51t-47 -74q0 -41 19 -121.5t19 -121.5q0 -63 -26 -121q43 46 86 91q71 75 76 75q12 0 12 -10q0 -15 -80 -99q-105 -110 -173.5 -151t-137.5 -41q-139 0 -139 106
q0 26 18.5 46t44.5 20q43 0 43 -39q0 -10 -12.5 -37t-12.5 -41q0 -22 31 -22q70 0 138.5 127.5t68.5 300.5q0 12 -4 77zM-6 -119q52 29 116 29q152 0 152 -127q0 -82 -67 -126q-58 -38 -144 -38q-95 0 -181 33q-32 12 -49 21q-38 19 -38 32q3 10 18 10q6 0 87 -23.5
t155 -23.5q51 0 90 25q45 29 45 78q0 79 -111 79q-14 0 -61 -10z" />
    <glyph glyph-name="Scaron" unicode="&#x160;" horiz-adv-x="1190" 
d="M1264 741q268 144 443 325t175 290q0 78 -80 78q-255 0 -538 -693zM1247 700q-116 -295 -308 -484q-231 -226 -511 -226q-105 0 -187 42q-102 52 -102 148q0 45 26.5 76t70.5 31q34 0 57.5 -24t23.5 -58q0 -22 -14 -56t-14 -43q0 -46 58 -69q43 -17 97 -17q216 0 388 199
q132 151 223 395q-292 -147 -340 -147q-8 0 -12.5 2t-4.5 4q0 11 128 66q133 57 243 114q159 362 367 585.5t368 223.5q109 0 109 -104q0 -126 -186.5 -315t-479.5 -343zM1829 1727l237 127q91 49 119 49q27 0 27 -17q0 -19 -89 -73q-109 -66 -229 -155q-91 -67 -98 -67
q-17 0 -24 24l-70 242q-4 14 -4 27q0 23 14 23q27 0 117 -180z" />
    <glyph glyph-name="scaron" unicode="&#x161;" horiz-adv-x="446" 
d="M770 1044q27 0 27 -18q0 -17 -72 -60q-117 -69 -247 -166q-90 -67 -97 -67q-21 0 -27 23l-67 243q-6 22 -6 27q0 21 16 21q28 0 114 -180l240 126q97 51 119 51zM334 653q41 0 41 -39q0 -29 -47 -51.5t-47 -73.5q0 -41 19 -121.5t19 -121.5q0 -63 -26 -121q43 46 86 91
q71 75 76 75q8 0 12 -10q0 -16 -80 -99q-109 -113 -176 -152.5t-135 -39.5q-139 0 -139 106q0 26 18.5 46t44.5 20q43 0 43 -39q0 -10 -13.5 -37t-13.5 -41q0 -22 33 -22q70 0 137.5 128t67.5 304q0 47 -2 73q-77 -78 -161.5 -176t-96.5 -98q-4 0 -8 2l-2 4q1 16 128 157
l138 150q9 22 39 65q21 21 45 21z" />
    <glyph glyph-name="Ydieresis" unicode="&#x178;" horiz-adv-x="1432" 
d="M1335 713q-321 -363 -487 -363q-61 0 -94 53q-27 44 -27 109q0 126 90 281q84 127 168 253q90 140 90 228q0 168 -217 168q-221 0 -450 -170q-246 -181 -246 -391q0 -60 35 -102t94 -42q135 0 281 113q127 100 204 233q41 72 70 161q12 41 33 85q12 -6 12 -31
q0 -241 -169 -429.5t-374 -188.5q-223 0 -223 197q0 82 51 178q94 175 295 295t401 120q129 0 203 -73.5t74 -202.5q0 -184 -193 -452q-157 -218 -157 -289q0 -66 59 -66q117 0 334 219q145 146 278 325q21 29 64 85q152 192 312 315t227 123q12 0 12 -8q0 -10 -41 -29
q-173 -83 -286 -236q-56 -76 -185 -324q-157 -301 -248 -434q-164 -237 -353 -347q-149 -86 -292 -86q-94 0 -160 37q-82 45 -82 131q0 108 84 108q80 0 80 -88q0 -19 -16.5 -53.5t-16.5 -42.5q0 -62 119 -62q184 0 326 147t321 546zM1214 1731q0 36 24 62t60 26
q66 0 66 -68q0 -37 -24 -62.5t-60 -25.5q-66 0 -66 68zM1546 1731q0 36 25 62t61 26q64 0 64 -68q0 -37 -24 -62.5t-60 -25.5q-66 0 -66 68z" />
    <glyph glyph-name="Zcaron" unicode="&#x17d;" horiz-adv-x="1417" 
d="M569 360q257 150 385 150q88 0 142.5 -53.5t54.5 -141.5q0 -51 -41 -142t-41 -110q0 -38 33 -38q89 0 291 236q26 30 32 30q13 0 13 -10q0 -26 -127 -150q-78 -77 -135 -111q-61 -38 -101 -38q-59 0 -89 63q-23 49 -23 115q0 62 40.5 149.5t40.5 93.5q0 74 -98 74
q-115 0 -291 -102q-138 -80 -256 -185q-29 -26 -93 -89q-125 -124 -173 -124q-27 0 -27 29q0 66 140.5 145t269.5 216q32 34 85 96q388 454 816 786q-134 -63 -248 -63q-98 0 -169 47l-104 88q-60 47 -132 47q-153 0 -305 -133q-158 -137 -158 -287q0 -141 143 -141
q109 0 236 90q109 77 182 182q10 15 38 62q8 16 26 35q6 -5 6 -25q0 -55 -51 -145q-146 -258 -416 -258q-89 0 -143 51t-54 139q0 137 124 270q107 116 250 177q116 49 239 49q98 0 229.5 -94.5t183.5 -94.5q92 0 215 99.5t142 99.5q26 0 26 -29q0 -30 -107 -101
q-126 -84 -220 -186q-353 -384 -781 -768zM1444 1727l237 127q91 49 119 49q27 0 27 -17q0 -19 -89 -73q-109 -66 -229 -155q-91 -67 -98 -67q-17 0 -24 24l-70 242q-4 14 -4 27q0 23 14 23q27 0 117 -180z" />
    <glyph glyph-name="zcaron" unicode="&#x17e;" horiz-adv-x="676" 
d="M422 442q-90 -24 -133 -24q-70 0 -113 41q-81 -103 -180 -209l-7 2l-3 4v8q0 7 2 9q60 70 171 216q-9 27 -9 35q0 64 67 64q55 0 55 -45q0 -13 -8 -34t-8 -26q0 -34 66 -34q93 0 177.5 61t82.5 61q28 0 28 -22q0 -33 -73 -72q-49 -26 -205 -148q-89 -69 -172 -141
q111 62 170 62q80 0 80 -76q0 -28 -21.5 -76t-21.5 -55q0 -23 14 -23q36 0 170 135.5t133 135.5q12 0 12 -10q0 -22 -110 -130q-99 -96 -137 -123q-52 -38 -87 -38q-83 0 -83 114q0 16 8 45.5t8 43.5q0 8 -14 8q-88 0 -197 -84q-30 -23 -70 -73t-63 -50q-27 0 -27 24
q0 25 22 48q25 16 74 51q23 20 68 58q179 151 334 267zM500 750l237 127q91 49 119 49q27 0 27 -17q0 -19 -89 -73q-109 -66 -229 -155q-91 -67 -98 -67q-17 0 -24 24l-70 242q-4 14 -4 27q0 23 14 23q27 0 117 -180z" />
    <glyph glyph-name="florin" unicode="&#x192;" horiz-adv-x="664" 
d="M-391 -434q-125 0 -125 88q0 59 59 59q45 0 55 -58t42 -58q211 0 708 960h-184v31h201q143 242 252 367q189 214 366 214q125 0 125 -88q0 -59 -59 -59q-48 0 -57.5 58.5t-39.5 58.5q-100 0 -208 -118t-283 -433h207v-31h-222q-223 -436 -331 -594q-270 -397 -506 -397z
" />
    <glyph glyph-name="circumflex" unicode="&#x2c6;" 
d="M750 797l-240 -127q-98 -52 -119 -52q-26 0 -26 19q0 18 76 64q134 80 244 162q89 67 95 67q20 0 27 -23l70 -244q4 -14 4 -26q0 -21 -17 -21q-30 0 -114 181z" />
    <glyph glyph-name="caron" unicode="&#x2c7;" 
d="M674 750l237 127q91 49 119 49q27 0 27 -17q0 -19 -89 -73q-109 -66 -229 -155q-91 -67 -98 -67q-17 0 -24 24l-70 242q-4 14 -4 27q0 23 14 23q27 0 117 -180z" />
    <glyph glyph-name="macron" unicode="&#xaf;" 
d="M455 723q-34 0 -27 27q6 22 11 43q10 24 32 24h430q34 0 27 -26q-6 -22 -11 -44q-10 -24 -32 -24h-430z" />
    <glyph glyph-name="macron" unicode="&#x2c9;" 
d="M455 723q-34 0 -27 27q6 22 11 43q10 24 32 24h430q34 0 27 -26q-6 -22 -11 -44q-10 -24 -32 -24h-430z" />
    <glyph glyph-name="breve" unicode="&#x2d8;" 
d="M457 920q14 0 34 -39q25 -51 51 -74q45 -39 122 -39q110 0 270 117q14 10 43 30q16 0 16 -18q0 -16 -52 -78q-140 -168 -294 -168q-86 0 -151 75q-62 71 -62 159q0 35 23 35z" />
    <glyph glyph-name="dotaccent" unicode="&#x2d9;" 
d="M614 758q0 41 25 70.5t66 29.5q67 0 67 -70q0 -98 -88 -98q-70 0 -70 68z" />
    <glyph glyph-name="ring" unicode="&#x2da;" 
d="M573 784q0 -51 34 -85.5t85 -34.5q50 0 84.5 35t34.5 85t-34.5 83.5t-84.5 33.5t-84.5 -33.5t-34.5 -83.5zM518 784q0 72 50.5 122t123.5 50q74 0 124 -49t50 -123q0 -73 -51 -124.5t-123 -51.5t-123 51.5t-51 124.5z" />
    <glyph glyph-name="ogonek" unicode="&#x2db;" 
d="M440 6q-141 -155 -141 -250q0 -80 68 -80q46 0 100 51q5 5 16 13q17 0 17 -12q0 -29 -55.5 -70t-120.5 -41q-115 0 -115 111t199 278h32z" />
    <glyph glyph-name="tilde" unicode="&#x2dc;" 
d="M563 850q43 0 125 -38t123 -38q42 0 81.5 49t45.5 49q20 0 20 -14q0 -57 -55 -118.5t-112 -61.5q-43 0 -124.5 38t-123.5 38q-43 0 -83 -49.5t-46 -49.5q-19 0 -19 15q0 57 55.5 118.5t112.5 61.5z" />
    <glyph glyph-name="hungarumlaut" unicode="&#x2dd;" 
d="M520 616q-14 0 -14 15q0 10 51.5 54.5t83.5 102.5q19 52 38 103q29 74 58 74q54 0 54 -62q0 -49 -33 -98q-28 -40 -112 -111q-92 -78 -126 -78zM729 616q-14 0 -14 15q0 8 56 58t87 114q17 48 34 95q27 67 58 67q47 0 47 -62q0 -49 -32 -98q-28 -43 -109 -112
q-90 -77 -127 -77z" />
    <glyph glyph-name="Delta" unicode="&#x394;" horiz-adv-x="995" 
d="M485 1272l-391 -1172h768zM492 1497h26l486 -1497h-1010z" />
    <glyph glyph-name="Delta" unicode="&#x2206;" horiz-adv-x="995" 
d="M485 1272l-391 -1172h768zM492 1497h26l486 -1497h-1010z" />
    <glyph glyph-name="Omega" unicode="&#x3a9;" horiz-adv-x="1565" 
d="M1079 123v-23h318l78 232h59l-98 -332h-492q313 520 313 864q0 245 -110 397q-125 171 -361 171t-361 -171q-112 -153 -112 -397q0 -349 314 -864h-492l-98 332h59l78 -232h318v23q-297 395 -297 760q0 272 158 441q162 173 433 173t434 -173q158 -168 158 -441
q0 -361 -299 -760z" />
    <glyph glyph-name="Omega" unicode="&#x2126;" horiz-adv-x="1565" 
d="M1079 123v-23h318l78 232h59l-98 -332h-492q313 520 313 864q0 245 -110 397q-125 171 -361 171t-361 -171q-112 -153 -112 -397q0 -349 314 -864h-492l-98 332h59l78 -232h318v23q-297 395 -297 760q0 272 158 441q162 173 433 173t434 -173q158 -168 158 -441
q0 -361 -299 -760z" />
    <glyph glyph-name="mu" unicode="&#xb5;" horiz-adv-x="1051" 
d="M162 190q-19 -119 -41 -330q-29 -276 -101 -276q-69 0 -69 62q0 39 60 287q66 276 98 432l108 520h119l-111 -518q-8 -37 -8 -88q0 -86 40 -144q45 -67 128 -67q203 0 279 335l110 482h119l-117 -527q-26 -117 -26 -178q0 -94 75 -94q68 0 111 65q21 33 52 122
q23 65 42 65q27 0 27 -31q0 -30 -15 -82q-71 -239 -249 -239q-144 0 -144 174q0 6 1 17t1 16q-85 -213 -270 -213q-191 0 -219 210z" />
    <glyph glyph-name="mu" unicode="&#x3bc;" horiz-adv-x="1051" 
d="M162 190q-19 -119 -41 -330q-29 -276 -101 -276q-69 0 -69 62q0 39 60 287q66 276 98 432l108 520h119l-111 -518q-8 -37 -8 -88q0 -86 40 -144q45 -67 128 -67q203 0 279 335l110 482h119l-117 -527q-26 -117 -26 -178q0 -94 75 -94q68 0 111 65q21 33 52 122
q23 65 42 65q27 0 27 -31q0 -30 -15 -82q-71 -239 -249 -239q-144 0 -144 174q0 6 1 17t1 16q-85 -213 -270 -213q-191 0 -219 210z" />
    <glyph glyph-name="pi" unicode="&#x3c0;" horiz-adv-x="1298" 
d="M1268 885l-25 -109h-311q-40 -196 -78 -520l-4 -31q-33 -268 -109 -268q-75 0 -75 80q0 28 78 275t133 464h-361q-42 -207 -78 -520l-2 -21q-33 -278 -110 -278q-76 0 -76 80q0 28 78 275t133 464h-189q-87 0 -132 -85q-24 -46 -50 -163h-65q29 171 91 252
q80 105 236 105h916z" />
    <glyph glyph-name="endash" unicode="&#x2013;" 
d="M1040 332l-43 -70h-981l41 70h983z" />
    <glyph glyph-name="emdash" unicode="&#x2014;" horiz-adv-x="2048" 
d="M2068 332l-40 -70h-2048l40 70h2048z" />
    <glyph glyph-name="quoteleft" unicode="&#x2018;" horiz-adv-x="418" 
d="M403 1169q0 112 215 282q55 44 68 44q21 0 21 -14q0 -1 -69 -67q-73 -69 -87 -114q-10 -57 -21 -115q-19 -77 -65 -77q-62 0 -62 61z" />
    <glyph glyph-name="quoteright" unicode="&#x2019;" horiz-adv-x="418" 
d="M438 981q0 -111 -214 -283q-55 -45 -68 -45q-21 0 -21 17q0 6 69.5 65.5t86.5 112.5q10 57 20 115q18 77 66 77q61 0 61 -59z" />
    <glyph glyph-name="quotesinglbase" unicode="&#x201a;" horiz-adv-x="418" 
d="M229 82q0 -116 -213 -283q-56 -43 -69 -43q-21 0 -21 15l69 66q73 70 87 114q10 57 20 115q18 77 66 77q61 0 61 -61z" />
    <glyph glyph-name="quotedblleft" unicode="&#x201c;" horiz-adv-x="649" 
d="M637 1169q0 111 214 282q55 44 69 44q18 0 18 -14q0 -1 -69 -68q-73 -70 -87 -113q-10 -57 -20 -115q-18 -77 -66 -77q-59 0 -59 61zM403 1169q0 112 215 282q55 44 68 44q21 0 21 -14q0 -1 -69 -67q-73 -69 -87 -114q-10 -57 -21 -115q-19 -77 -65 -77q-62 0 -62 61z
" />
    <glyph glyph-name="quotedblright" unicode="&#x201d;" horiz-adv-x="649" 
d="M895 1434q0 -116 -213 -282q-56 -44 -70 -44q-18 0 -18 14q0 1 69 67q73 69 87 112q10 57 20 115q18 77 66 77q59 0 59 -59zM664 1434q0 -114 -214 -282q-55 -44 -69 -44q-21 0 -21 14q0 1 69 66q73 69 87 112q10 58 21 115q19 78 65 78q62 0 62 -59z" />
    <glyph glyph-name="quotedblbase" unicode="&#x201e;" horiz-adv-x="649" 
d="M487 82q0 -116 -213 -283q-56 -43 -69 -43q-19 0 -19 15l69 66q73 70 87 114q10 58 21 115q18 77 65 77q59 0 59 -61zM256 82q0 -116 -213 -283q-56 -43 -70 -43q-18 0 -18 15l68 66q71 70 85 113q11 58 21 116q19 77 66 77q61 0 61 -61z" />
    <glyph glyph-name="dagger" unicode="&#x2020;" horiz-adv-x="1147" 
d="M903 1073l-12 -141q-269 -429 -668 -1127l-35 11l55 101q184 338 261 488q142 275 237 500q4 13 15 35l114 133q-190 -57 -303 -57q-71 0 -71 53q0 59 110 59q62 0 279 -30q24 58 73 197q71 200 129 200q68 0 68 -51q0 -36 -99 -168l-134 -176q230 30 286 30q78 0 78 -55
q0 -59 -90 -59q-111 0 -293 57z" />
    <glyph glyph-name="daggerdbl" unicode="&#x2021;" horiz-adv-x="1147" 
d="M455 225q193 58 301 58q71 0 71 -54q0 -61 -110 -61q-22 0 -279 32q-25 -61 -73 -197q-70 -200 -129 -200q-68 0 -68 52q0 41 106 175q82 104 127 169q-223 -31 -286 -31q-76 0 -76 55q0 60 88 60q108 0 293 -58q48 111 96 221q58 143 76 228q165 196 278 399
q-190 -57 -303 -57q-71 0 -71 53q0 59 110 59q65 0 279 -30q25 61 73 197q70 200 129 200q68 0 68 -51q0 -36 -99 -168l-134 -176q230 30 286 30q78 0 78 -55q0 -59 -90 -59q-111 0 -293 57q-47 -111 -95 -221q-57 -138 -75 -225q-59 -57 -147 -191q-65 -106 -131 -211z" />
    <glyph glyph-name="bullet" unicode="&#x2022;" horiz-adv-x="1208" 
d="M307 762q0 124 86.5 209.5t210.5 85.5q123 0 209 -86t86 -209t-87 -210t-210 -87q-124 0 -209.5 86.5t-85.5 210.5z" />
    <glyph glyph-name="ellipsis" unicode="&#x2026;" horiz-adv-x="2048" 
d="M235 49q0 34 25.5 64t58.5 30q58 0 58 -59q0 -33 -25 -63.5t-57 -30.5q-60 0 -60 59zM917 49q0 34 25.5 64t58.5 30q58 0 58 -59q0 -33 -25 -63.5t-57 -30.5q-60 0 -60 59zM1601 49q0 34 25.5 64t58.5 30q58 0 58 -59q0 -33 -25 -63.5t-57 -30.5q-60 0 -60 59z" />
    <glyph glyph-name="perthousand" unicode="&#x2030;" horiz-adv-x="1659" 
d="M1589 371q0 -128 -99.5 -254.5t-197.5 -126.5q-60 0 -96 47q-33 42 -33 104q0 119 99 233q102 118 219 118q108 0 108 -121zM1485 457q-55 0 -132 -93q-62 -73 -94 -143.5t-32 -120.5q0 -77 65 -77q82 0 172 120t90 230q0 84 -69 84zM973 457q-55 0 -132 -93
q-62 -73 -94 -143.5t-32 -120.5q0 -77 65 -77q82 0 171 119.5t89 230.5q0 84 -67 84zM1077 371q0 -128 -99.5 -254.5t-197.5 -126.5q-60 0 -97 46q-34 43 -34 105q0 119 100 233q103 118 220 118q108 0 108 -121zM516 954q-78 0 -171 -140q-87 -131 -87 -216q0 -76 66 -76
q81 0 170.5 118.5t89.5 229.5q0 84 -68 84zM985 866q-118 -61 -205 -61q-107 0 -162 51q-18 -146 -109.5 -256.5t-182.5 -110.5q-61 0 -97 47q-34 43 -34 105q0 119 98 232q102 118 219 118q58 0 88 -40q26 -36 51 -73q42 -40 127 -40t182 54q81 51 162 103l12 -1q3 -4 3 -7
q0 -17 -56 -74l-944 -962q-69 -70 -100 -70q-27 0 -27 13q0 14 66 79z" />
    <glyph glyph-name="guilsinglleft" unicode="&#x2039;" horiz-adv-x="436" 
d="M119 309l284 211q20 15 31 15q21 0 21 -19q0 -11 -22 -30l-222 -189l68 -216q6 -19 6 -24q0 -22 -17 -22q-18 0 -32 30z" />
    <glyph glyph-name="guilsinglright" unicode="&#x203a;" horiz-adv-x="436" 
d="M313 260l-284 -211q-19 -14 -31 -14q-21 0 -21 18q0 11 23 31l221 188l-67 215q-7 22 -7 25q0 23 17 23q18 0 33 -31z" />
    <glyph glyph-name="fraction" unicode="&#x2044;" horiz-adv-x="342" 
d="M690 991l-985 -1018h-55l987 1018h53z" />
    <glyph glyph-name="franc" unicode="&#x20a3;" horiz-adv-x="2171" 
d="M1180 1210q0 -26 -30 -105q-107 -282 -320 -421q-155 -102 -295 -102q-102 0 -170 48q-78 54 -78 152q0 150 111 287q108 132 311 227q307 143 887 143h136q90 -1 134 -1q161 0 316 23q20 3 24 3q28 0 28 -16q0 -32 -118.5 -76.5t-264.5 -44.5q-109 0 -330 21.5
t-333 21.5q-236 0 -454 -92q-246 -104 -355 -286q-60 -99 -60 -193q0 -76 47 -121t123 -45q164 0 349 154q154 128 254 298q34 70 79 144q9 -4 9 -19zM1321 670q-153 -277 -340 -452q-245 -228 -500 -228q-108 0 -187 44q-97 55 -97 154q0 42 25 71.5t67 29.5q82 0 82 -86
q0 -20 -13.5 -53.5t-13.5 -40.5q0 -44 59 -69q46 -20 97 -20q349 0 647 619q-175 -56 -321 -200q-38 -38 -48 -38q-3 0 -5 2t-3 5q0 38 118 127.5t277 142.5q146 258 312.5 434t240.5 176l2 -2q-5 -6 -17 -19q-196 -198 -366 -565q153 24 316 113q42 23 49 23q14 0 14 -11
q-5 -10 -23 -32q-124 -154 -190 -287q-13 -35 -53 -88q-69 -48 -121 -51q-10 3 -10 20q0 42 110 181q82 103 150 173q-128 -56 -258 -73zM1524 0l266 397q65 97 65 123q0 27 -28 27q-58 0 -196 -146.5t-140 -146.5q-10 0 -10 8q0 17 112 139q164 179 242 179q80 0 80 -88
q0 -89 -98 -254q84 84 176 163q32 85 57 119q44 60 111 60q47 0 47 -31q0 -35 -121 -126q-60 -45 -81 -72q-32 -41 -32 -101q0 -55 51 -55q42 0 86 34l70 64q12 -2 12 -10q0 -31 -63 -73t-100 -42q-86 0 -86 80q0 29 26 98q-119 -99 -303 -332z" />
    <glyph glyph-name="trademark" unicode="&#x2122;" horiz-adv-x="1683" 
d="M801 1432h170l145 -414l158 414h162v-25q-80 0 -80 -55v-369q0 -55 80 -55v-25h-228v25q80 0 80 55v406l-186 -490h-8l-174 487v-403q0 -55 79 -55v-25h-198v23q80 0 80 57v367q0 57 -80 57v25zM264 1432h436l11 -175h-23q-8 85 -43 118.5t-123 33.5v-426q0 -55 80 -55
v-25h-242v25q42 0 57 7q25 11 25 48v426h-22q-129 0 -144 -152h-22z" />
    <glyph glyph-name="partialdiff" unicode="&#x2202;" 
d="M750 578q22 138 22 305q0 354 -154 354q-39 0 -99 -73.5t-109 -73.5q-68 0 -68 65q0 69 73 110q62 35 136 35q188 0 279 -192q69 -145 69 -356q0 -335 -131.5 -557t-323.5 -222q-153 0 -236 121q-73 105 -73 264q0 164 99 288q106 132 266 132q191 0 250 -200zM713 459
q0 256 -185 256q-141 0 -212 -167q-52 -124 -52 -288q0 -242 185 -242q136 0 208 161q56 125 56 280z" />
    <glyph glyph-name="product" unicode="&#x220f;" horiz-adv-x="1538" 
d="M61 1473h1416v-64h-187v-1739h187v-63h-494v63h207v1739h-842v-1739h207v-63h-494v63h187v1739h-187v64z" />
    <glyph glyph-name="summation" unicode="&#x2211;" horiz-adv-x="1384" 
d="M8 1473h1090l80 -304h-68l-55 209q-8 31 -49 31h-824l951 -879v-36l-914 -789h900q53 0 71 9q25 12 39 57l71 229h68l-119 -393h-1237v10l1018 872l-1022 941v43z" />
    <glyph glyph-name="minus" unicode="&#x2212;" horiz-adv-x="1706" 
d="M254 651h1198v-82h-1198v82z" />
    <glyph glyph-name="periodcentered" horiz-adv-x="418" 
d="M197 489q0 32 21.5 54t53.5 22q31 0 52.5 -22.5t21.5 -53.5t-21.5 -52t-52.5 -21q-75 0 -75 73z" />
    <glyph glyph-name="radical" unicode="&#x221a;" horiz-adv-x="1264" 
d="M1092 1626h172v-61h-129l-596 -1606h-31l-330 907l-110 -39l-15 50l230 79l278 -759z" />
    <glyph glyph-name="infinity" unicode="&#x221e;" horiz-adv-x="1706" 
d="M889 557q107 -205 287 -205q113 0 181 84q64 78 64 193q0 109 -56 187q-62 87 -167 87q-106 0 -196 -126q-49 -70 -113 -220zM819 670q-104 204 -287 204q-113 0 -182 -83q-63 -77 -63 -193q0 -109 56 -186q62 -86 167 -86q108 0 196 124q49 69 113 220zM870 510
q-135 -266 -321 -266q-141 0 -230 116q-81 107 -81 252q0 150 68 252q79 117 222 117q190 0 308 -268q130 274 323 274q142 0 229 -118q80 -107 80 -253q0 -150 -68 -253q-79 -119 -222 -119q-175 0 -308 266z" />
    <glyph glyph-name="integral" unicode="&#x222b;" horiz-adv-x="948" 
d="M756 1546q61 0 102 -31q45 -35 45 -94q0 -98 -102 -98q-75 0 -101.5 64.5t-33.5 64.5q-66 0 -93 -159q-13 -77 -20 -262q-6 -170 -6 -425q0 -510 -86 -743.5t-268 -233.5q-58 0 -100 30q-48 33 -48 89q0 107 105 107q55 0 81 -34q14 -17 27 -63q10 -34 25 -34
q65 0 92 165q13 80 20 266q6 169 6 423q0 499 87 733.5t268 234.5z" />
    <glyph glyph-name="approxequal" unicode="&#x2248;" horiz-adv-x="1706" 
d="M1530 578v-93q-211 -147 -387 -147q-100 0 -293 70.5t-285 70.5q-157 0 -387 -160v93q209 145 387 145q100 0 293 -69.5t285 -69.5q157 0 387 160zM1530 903v-94q-209 -145 -387 -145q-100 0 -293 69.5t-285 69.5q-157 0 -387 -160v92q209 148 387 148q100 0 293 -71
t285 -71q151 0 387 162z" />
    <glyph glyph-name="approxequal" unicode="&#x22f2;" horiz-adv-x="1706" 
d="M1530 578v-93q-211 -147 -387 -147q-100 0 -293 70.5t-285 70.5q-157 0 -387 -160v93q209 145 387 145q100 0 293 -69.5t285 -69.5q157 0 387 160zM1530 903v-94q-209 -145 -387 -145q-100 0 -293 69.5t-285 69.5q-157 0 -387 -160v92q209 148 387 148q100 0 293 -71
t285 -71q151 0 387 162z" />
    <glyph glyph-name="notequal" unicode="&#x2260;" horiz-adv-x="1706" 
d="M1217 1157l63 -49l-217 -277h389v-79h-440l-219 -283h659v-82h-711l-254 -324l-61 48l215 276h-387v82h436l221 283h-657v79h709z" />
    <glyph glyph-name="lessequal" unicode="&#x2264;" horiz-adv-x="1706" 
d="M264 129h1178v-80h-1178v80zM1442 1171v-88l-1043 -350l1043 -352v-88l-1178 405v70z" />
    <glyph glyph-name="greaterequal" unicode="&#x2265;" horiz-adv-x="1706" 
d="M264 129h1178v-80h-1178v80zM264 1171l1178 -403v-70l-1178 -405v88l1043 352l-1043 350v88z" />
    <glyph glyph-name="SF370000" unicode="&#x255f;" horiz-adv-x="1796" 
d="M1413 322q320 664 741 1077q-272 -121 -772 -643q43 -150 43 -283q0 -75 -12 -151zM913 299q188 159 433 459q-109 264 -355 264q-138 0 -224.5 -92.5t-86.5 -231.5q0 -237 233 -399zM940 283q191 -113 385 -129q70 150 70 350q0 106 -39 223q-161 -184 -201 -229
q-117 -128 -215 -215zM918 260q-297 -266 -553 -266q-114 0 -198 53q-99 62 -99 170q0 56 26 97q31 48 84 48q37 0 62.5 -25.5t25.5 -62.5q0 -54 -54 -84t-54 -34q0 -60 85 -96q67 -29 136 -29q256 0 510 248q-293 218 -293 458q0 145 99 242.5t245 97.5q290 0 428 -295
q262 293 511.5 481.5t338.5 188.5q5 0 10 -1l2 -5q-30 -43 -99 -132q-307 -398 -644 -1160q168 14 307 133q11 10 31 22l3 -2q0 -3 1 -6q0 -17 -27 -45q-122 -124 -327 -133l-30 -72q-25 -48 -52 -51q-97 -10 -111 -10q-16 0 -16 14q0 8 48 127q-203 18 -396 129z" />
    <glyph glyph-name="SF420000" unicode="&#x2560;" 
d="M678 842q-96 67 -96 166q0 94 50 178q65 111 210.5 199t271.5 88q100 0 159.5 -54t59.5 -153q0 -120 -90 -215t-209 -95q-58 0 -95.5 35.5t-37.5 93.5q0 83 78.5 158.5t130.5 75.5q4 0 9 -1l3 -5q-45 -40 -89 -80q-85 -82 -85 -164q0 -88 90 -88q101 0 185 92
q82 89 82 191q0 178 -179 178q-150 0 -302 -173q-148 -169 -148 -321q0 -93 89 -93h20q13 1 20 1q39 0 64.5 -10t25.5 -29q0 -29 -61 -29q-25 0 -68 12.5t-55 12.5q-38 0 -102 -22q-162 -55 -269 -201t-107 -316q0 -111 63 -181t173 -70q156 0 315.5 148.5t159.5 303.5
q0 59 -31 97q-33 42 -90 42q-69 0 -156 -77q-145 -129 -196 -335q-8 -35 -27 -71q-10 6 -10 37q0 194 112.5 340.5t250.5 146.5q82 0 132 -47t50 -129q0 -123 -109 -258q-98 -122 -220 -181q-104 -50 -216 -50q-147 0 -243 79q-103 84 -103 228q0 181 162 333.5t428 211.5z
" />
    <glyph glyph-name="SF190000" unicode="&#x2561;" horiz-adv-x="1139" 
d="M1028 688q285 531 649 721q-365 -28 -587 -179q-224 -154 -224 -358q0 -76 44 -127t118 -57zM1165 657q-141 -268 -312 -438q-230 -229 -468 -229q-95 0 -164 36q-88 46 -88 132q0 100 92 100q74 0 74 -82q0 -18 -12.5 -46t-12.5 -32q0 -40 46 -62q36 -18 81 -18
q334 0 615 641q-103 14 -167 78q-67 68 -67 170q0 313 566 471q244 68 417 68q22 0 27 -10q-2 -9 -48 -26q-53 -20 -87 -40q-134 -79 -273 -305q-63 -101 -198 -371q114 24 229 132q12 13 37 28l4 -2q2 -4 2 -8q0 -37 -86 -96q-70 -49 -121 -68q-42 -16 -86 -23z" />
    <glyph glyph-name="SF200000" unicode="&#x2562;" horiz-adv-x="1145" 
d="M1317 1040q0 -259 -203 -562q-196 -292 -434 -418q-133 -70 -246 -70q-153 0 -238 118q-75 104 -75 263q0 178 102 379q134 264 400 478q296 238 561 238q107 0 179 -50q83 -57 83 -159q0 -92 -23 -92q-8 4 -8 21q0 9 2 27.5t2 27.5q0 97 -66 149q-59 48 -159 48
q-225 0 -458 -209q-209 -187 -352 -470q-140 -278 -140 -497q0 -102 49 -166q54 -71 153 -71q114 0 257 82q314 178 496 584q89 201 89 345q0 86 -32 144q-40 73 -119 73q-111 0 -258 -145q-202 -200 -284 -492q-8 -34 -28 -71q-8 6 -8 30q0 162 119 381q83 153 205 246.5
t229 93.5q105 0 159 -79q46 -67 46 -177z" />
    <glyph glyph-name="SF230000" unicode="&#x2563;" horiz-adv-x="1350" 
d="M999 418q-117 -143 -244 -258q-188 -170 -292 -170q-113 0 -113 157q0 163 199 465l260 394q109 165 109 258q0 166 -213 166q-121 0 -249 -53q-163 -67 -296 -200q-158 -157 -158 -307q0 -71 40.5 -113t111.5 -42q135 0 286 134q130 116 199 257q26 54 48 135
q9 36 30 74q10 -7 10 -31q0 -163 -81 -312.5t-217 -237.5q-127 -83 -251 -83q-95 0 -152 56t-57 151q0 87 50 181q91 173 296 296t402 123q131 0 202.5 -70.5t71.5 -201.5q0 -108 -71 -249q-36 -72 -136 -226l-235 -361q-129 -198 -129 -262q0 -57 65 -57q102 0 301 197
t410 522l440 677l170 13l-690 -1082q-125 -196 -125 -274q0 -47 41 -47q75 0 202 127t124 127q12 0 12 -10q0 -18 -104 -125q-80 -82 -138 -120q-63 -40 -108 -40q-96 0 -96 149q0 115 75 273z" />
    <glyph glyph-name="SF470000" unicode="&#x2564;" horiz-adv-x="1432" 
d="M1335 713q-321 -363 -487 -363q-61 0 -94 53q-27 44 -27 109q0 126 90 281q84 127 168 253q90 140 90 228q0 168 -217 168q-221 0 -450 -170q-246 -181 -246 -391q0 -60 35 -102t94 -42q135 0 281 113q127 100 204 233q41 72 70 161q12 41 33 85q12 -6 12 -31
q0 -241 -169 -429.5t-374 -188.5q-223 0 -223 197q0 82 51 178q94 175 295 295t401 120q129 0 203 -73.5t74 -202.5q0 -184 -193 -452q-157 -218 -157 -289q0 -66 59 -66q117 0 334 219q145 146 278 325q21 29 64 85q152 192 312 315t227 123q12 0 12 -8q0 -10 -41 -29
q-173 -83 -286 -236q-56 -76 -185 -324q-157 -301 -248 -434q-164 -237 -353 -347q-149 -86 -292 -86q-94 0 -160 37q-82 45 -82 131q0 108 84 108q80 0 80 -88q0 -19 -16.5 -53.5t-16.5 -42.5q0 -62 119 -62q184 0 326 147t321 546z" />
    <glyph glyph-name="SF480000" unicode="&#x2565;" horiz-adv-x="807" 
d="M111 90q0 -63 49 -63q71 0 182 120q90 98 137 187q45 86 45 149q0 64 -67 64q-111 0 -232 -175q-114 -164 -114 -282zM549 438l84 123l135 8l-225 -354q-76 -120 -76 -160q0 -32 31 -32q47 0 181 134l134 134q4 0 9 -2l3 -6q-1 -25 -112 -134q-103 -101 -141 -125
q-52 -34 -97 -34q-84 0 -84 102q0 25 10 78q-142 -180 -258 -180q-118 0 -118 209q0 45 13 95q-25 -40 -42 -40q-5 0 -10 2l-2 6q0 8 26 39q90 108 195 183q134 94 244 94q108 0 108 -95q0 -19 -8 -45z" />
    <glyph glyph-name="SF410000" unicode="&#x2566;" horiz-adv-x="575" 
d="M152 229q138 30 235.5 118t97.5 165q0 41 -36 41q-67 0 -157 -93.5t-140 -230.5zM41 297q-32 -41 -45 -41q-4 0 -7 2t-3 6q0 14 80 101q196 213 374 213q113 0 113 -95q0 -106 -160 -193q-110 -61 -252 -93q-10 -62 -10 -82q0 -95 82 -95q72 0 163 70q58 45 137 131
q65 70 71 70q12 0 12 -10q0 -18 -104 -123q-166 -168 -289 -168q-83 0 -132 71q-42 63 -42 150q0 40 12 86z" />
    <glyph glyph-name="SF450000" unicode="&#x2567;" horiz-adv-x="451" 
d="M182 449q-50 -53 -99 -106q-82 -87 -89 -87q-1 0 -6 2l-2 4q1 30 260 297l147 10l-203 -319q-100 -157 -100 -193q0 -39 35 -39q67 0 199 136.5t135 136.5q12 0 12 -10q0 -22 -110 -129q-100 -99 -140 -125q-54 -37 -94 -37q-111 0 -111 129q0 54 66 170zM434 891
q0 33 26 62.5t58 29.5q55 0 55 -59q0 -33 -24.5 -63t-56.5 -30q-58 0 -58 60z" />
    <glyph glyph-name="SF460000" unicode="&#x2568;" horiz-adv-x="451" 
d="M182 449q-50 -53 -99 -106q-82 -87 -89 -87q-1 0 -6 2l-2 4q1 30 260 297l147 10l-203 -319q-100 -157 -100 -193q0 -39 35 -39q67 0 199 136.5t135 136.5q12 0 12 -10q0 -22 -110 -129q-100 -99 -140 -125q-54 -37 -94 -37q-111 0 -111 129q0 54 66 170z" />
    <glyph glyph-name="SF400000" unicode="&#x2569;" horiz-adv-x="680" 
d="M115 96q0 -73 63 -73q34 0 88 34q93 58 168 167q82 119 82 220q0 103 -78 103q-80 0 -177 -122q-77 -98 -116 -197q-30 -76 -30 -132zM459 186q37 -6 33 -6q95 0 196 121q4 5 17 6l6 -3q2 -5 2 -9q0 -8 -25 -37q-90 -106 -209 -106q-22 0 -46 3q-152 -165 -271 -165
q-137 0 -137 213q0 36 16 94q-32 -41 -45 -41q-4 0 -7 2t-3 6q0 13 84 105q195 213 360 213q141 0 141 -148q0 -102 -112 -248z" />
    <glyph glyph-name="SF540000" unicode="&#x256a;" horiz-adv-x="795" 
d="M453 57q0 -37 32 -37q49 0 182 135.5t134 135.5q12 0 12 -8q0 -23 -102 -124q-88 -87 -131 -120q-65 -49 -97 -49q-96 0 -96 139q0 19 8 59q-171 -198 -268 -198q-113 0 -113 129q0 86 166 329q-49 -53 -99 -106q-80 -86 -87 -86q-1 0 -7 2l-3 4q1 26 260 297l147 8
l-203 -317q-100 -156 -100 -193t33 -37q177 0 497 539l138 8l-246 -389q-57 -90 -57 -121z" />
    <glyph glyph-name="SF530000" unicode="&#x256b;" horiz-adv-x="874" 
d="M412 -82q-469 -271 -469 -467q0 -69 59 -69q73 0 165 115q86 109 245 421zM596 272q-233 -266 -344 -266q-42 0 -66 42q-20 34 -20 79q0 82 96 219.5t96 173.5q0 27 -30 27q-54 0 -191 -146.5t-141 -146.5q-10 0 -10 8q0 23 113 142q109 114 153 144q50 34 92 34
q88 0 88 -109q0 -72 -98 -221.5t-98 -175.5q0 -41 32 -41q62 0 207.5 151t278.5 375l125 8q-182 -296 -326 -573q113 73 332 295q10 -2 10 -10q0 -28 -112 -135.5t-259 -196.5q-313 -596 -532 -596q-105 0 -105 102q0 126 220 295q105 81 327 211z" />
    <glyph glyph-name="lozenge" unicode="&#x25ca;" horiz-adv-x="1012" 
d="M506 1409l-385 -817l385 -825l385 825zM506 1653l500 -1061l-500 -1069l-500 1069z" />
    <glyph glyph-name="openbullet" unicode="&#x25e6;" horiz-adv-x="1796" 
d="M2255 1714l-240 -127q-98 -52 -119 -52q-26 0 -26 19q0 18 76 64q134 80 244 162q89 67 95 67q20 0 27 -23l70 -244q4 -14 4 -26q0 -21 -17 -21q-30 0 -114 181zM2162 1884q-17 0 -17 15q0 9 64.5 54t103.5 101l50 106q35 72 75 72q61 0 61 -61q0 -107 -188 -217
q-119 -70 -149 -70z" />
    <glyph glyph-name="glyph269" horiz-adv-x="1796" 
d="M2255 1714l-240 -127q-98 -52 -119 -52q-26 0 -26 19q0 18 76 64q134 80 244 162q89 67 95 67q20 0 27 -23l70 -244q4 -14 4 -26q0 -21 -17 -21q-30 0 -114 181zM2435 1896q0 -14 -14 -14q-37 0 -121 103.5t-84 171.5q0 84 66 84q29 0 44 -18.5t15 -113.5
q0 -67 47 -142.5t47 -70.5z" />
    <glyph glyph-name="smileface" unicode="&#x263a;" horiz-adv-x="1796" 
d="M2255 1714l-240 -127q-98 -52 -119 -52q-26 0 -26 19q0 18 76 64q134 80 244 162q89 67 95 67q20 0 27 -23l70 -244q4 -14 4 -26q0 -21 -17 -21q-30 0 -114 181zM2333 1851q0 9 20 38q24 36 56 69q45 42 89 84q49 54 49 105q0 45 -52 45q-19 0 -41.5 -16.5t-22.5 -35.5
q0 -2 12 -13.5t12 -26.5q0 -33 -32 -33q-40 0 -40 46q0 48 43.5 85t93.5 37q123 0 123 -108q0 -52 -44 -91q-8 -7 -88 -60q-74 -48 -132 -110q-26 -29 -33 -29q-13 0 -13 14z" />
    <glyph glyph-name="invsmileface" unicode="&#x263b;" horiz-adv-x="1796" 
d="M2255 1714l-240 -127q-98 -52 -119 -52q-26 0 -26 19q0 18 76 64q134 80 244 162q89 67 95 67q20 0 27 -23l70 -244q4 -14 4 -26q0 -21 -17 -21q-30 0 -114 181zM2276 2098q43 0 125 -38t123 -38q42 0 81.5 49t45.5 49q20 0 20 -14q0 -57 -55 -118.5t-112 -61.5
q-43 0 -124.5 38t-123.5 38q-43 0 -83 -49.5t-46 -49.5q-19 0 -19 15q0 57 55.5 118.5t112.5 61.5z" />
    <glyph glyph-name="fi" unicode="&#xf001;" horiz-adv-x="901" 
d="M887 891q0 33 25.5 62.5t58.5 29.5q55 0 55 -59q0 -33 -25 -63t-57 -30q-57 0 -57 60zM102 29h7q110 0 371 293q71 80 216 237l148 10l-203 -319q-100 -157 -100 -193q0 -39 34 -39q67 0 199 136.5t135 136.5t10 -3q3 -4 3 -7q0 -21 -110 -129q-102 -99 -140 -125
q-54 -37 -94 -37q-111 0 -111 129q0 88 166 330q-239 -258 -262 -280q-195 -189 -295 -189l-283 -566l-145 -16l325 602q-32 28 -32 57q0 68 63 68q11 0 33 -10l209 391q-83 -74 -162.5 -163t-89.5 -89q-1 0 -6 2q-1 2 -2 6q0 18 91 119q65 71 159 163q31 27 71 68
q8 15 23 44q167 314 295 465q137 161 249 161q40 0 67.5 -29t27.5 -69q0 -211 -627 -668zM377 584q240 161 393.5 340.5t153.5 269.5q0 59 -56 59q-164 0 -491 -669z" />
    <glyph glyph-name="fl" unicode="&#xf002;" horiz-adv-x="901" 
d="M102 29h13q44 0 111 43q62 40 139 123q133 142 244 271q45 48 118 140l403 627l134 18l-631 -1001q-103 -163 -103 -193q0 -39 39 -39q69 0 204.5 136.5l135.5 136.5q3 0 10 -3q3 -4 3 -7q0 -21 -110 -128q-102 -100 -140 -126q-54 -37 -94 -37q-111 0 -111 129
q0 88 166 330q-204 -225 -260 -279q-197 -190 -297 -190l-283 -566l-145 -16l325 602q-32 28 -32 57q0 68 63 68q11 0 33 -10l209 391q-83 -74 -162.5 -163t-89.5 -89q-1 0 -6 2q-1 2 -2 6q0 18 91 119q66 72 161 165q29 25 69 66q8 15 23 44q167 314 295 465
q137 161 249 161q40 0 67.5 -29t27.5 -69q0 -211 -627 -668zM377 584q240 161 393.5 340.5t153.5 269.5q0 59 -56 59q-164 0 -491 -669z" />
    <glyph glyph-name="u20AB" unicode="&#x20ab;" horiz-adv-x="762" 
d="M127 606q0 -46 35 -46q52 0 133 88q66 71 99.5 135t33.5 110q0 47 -49 47q-81 0 -169 -128q-83 -120 -83 -206zM446 860l171 307h-190l14 24h191l147 259l97 4l-151 -263h154l-15 -24h-153l-243 -421q-74 -128 -74 -164q0 -20 24 -20q29 0 125 95.5l96 95.5q4 0 7 -2
l2 -4q0 -18 -82 -98q-75 -73 -103 -91q-38 -25 -71 -25q-61 0 -61 75q0 18 7 57q-103 -132 -188 -132q-86 0 -86 153q0 33 9 69q-18 -29 -30 -29q-5 0 -7 1l-2 5q0 6 19 28q168 203 320 203q79 0 79 -70q0 -14 -6 -33zM45 436h303v-59h-303v59z" />
    <glyph glyph-name="glyph275" horiz-adv-x="420" 
 />
    <glyph glyph-name="nonbreakingspace" unicode="&#xa0;" horiz-adv-x="840" 
 />
    <glyph glyph-name="apple" unicode="&#xf000;" horiz-adv-x="1618" 
d="M836 1216q-2 12 -2 37q0 132 101 237q96 99 230 124q2 -20 2 -62q0 -131 -103.5 -234.5t-211.5 -103.5q-3 0 -8.5 1t-7.5 1zM1505 403q-90 -195 -153 -280q-118 -158 -256 -158q-45 0 -128 33t-126 33q-45 0 -129.5 -33t-128.5 -33q-128 0 -259 176q-99 134 -156 296
q-56 155 -56 300q0 211 117 348q124 146 331 146q57 0 150 -34t129 -34q34 0 126 35t148 35q217 0 359 -164q-201 -128 -201 -328q0 -233 233 -338z" />
    <glyph glyph-name="sfthyphen" unicode="&#xad;" horiz-adv-x="729" 
d="M115 252l43 90h477l-43 -90h-477z" />
    <glyph glyph-name="ch270" unicode="&#xb7;" horiz-adv-x="418" 
d="M197 489q0 32 21.5 54t53.5 22q31 0 52.5 -22.5t21.5 -53.5t-21.5 -52t-52.5 -21q-75 0 -75 73z" />
    <glyph glyph-name="ch270" unicode="&#x2219;" horiz-adv-x="418" 
d="M197 489q0 32 21.5 54t53.5 22q31 0 52.5 -22.5t21.5 -53.5t-21.5 -52t-52.5 -21q-75 0 -75 73z" />
    <glyph glyph-name="euro" horiz-adv-x="780" 
d="M281 610h-115l-16 -30h112q-43 -79 -59 -127h-125l-17 -31h132q-31 -89 -31 -180q0 -108 53 -178q58 -78 162 -78q133 0 285 163q65 70 65 87q0 14 -10 14q-5 0 -11 -3q-34 -38 -81 -91q-128 -133 -246 -133q-113 0 -113 118q0 121 62 281h243l17 31h-248q31 76 59 127
h260l17 30h-260q64 122 143 214q112 130 205 130q74 0 74 -51q0 -2 -27 -36t-27 -64q0 -58 62 -58q39 0 66 35q24 32 24 72q0 64 -53 104q-48 35 -115 35q-125 0 -279 -135q-124 -109 -208 -246z" />
    <glyph glyph-name="glyph261" horiz-adv-x="418" 
d="M122 698q-19 0 -19 17q0 3 0.5 4t83 51t106.5 90q21 52 41 103q31 69 72 69q60 0 60 -57q0 -110 -270 -248q-58 -29 -74 -29z" />
    <glyph glyph-name="glyph262" horiz-adv-x="837" 
d="M509 614q0 9 20 38q24 36 56 69q45 42 89 84q49 54 49 105q0 45 -52 45q-19 0 -41.5 -16.5t-22.5 -35.5q0 -2 12 -13.5t12 -26.5q0 -33 -32 -33q-40 0 -40 46q0 48 43.5 85t93.5 37q123 0 123 -108q0 -52 -44 -91q-8 -7 -88 -60q-74 -48 -132 -110q-26 -29 -33 -29
q-13 0 -13 14z" />
    <glyph glyph-name="glyph263" horiz-adv-x="420" 
 />
    <glyph glyph-name="glyph264" horiz-adv-x="420" 
 />
    <glyph glyph-name="glyph265" horiz-adv-x="420" 
 />
    <glyph glyph-name="glyph266" horiz-adv-x="420" 
 />
    <glyph glyph-name="glyph267" horiz-adv-x="420" 
 />
    <glyph glyph-name="glyph268" horiz-adv-x="420" 
 />
    <glyph glyph-name="glyph269" horiz-adv-x="807" 
d="M641 797l-240 -127q-98 -52 -119 -52q-26 0 -26 19q0 18 76 64q134 80 244 162q89 67 95 67q20 0 27 -23l70 -244q4 -14 4 -26q0 -21 -17 -21q-30 0 -114 181zM548 966q-17 0 -17 15q0 9 64.5 54t103.5 101l50 106q35 72 75 72q61 0 61 -61q0 -107 -188 -217
q-119 -70 -149 -70z" />
    <glyph glyph-name="glyph270" horiz-adv-x="807" 
d="M641 797l-240 -127q-98 -52 -119 -52q-26 0 -26 19q0 18 76 64q134 80 244 162q89 67 95 67q20 0 27 -23l70 -244q4 -14 4 -26q0 -21 -17 -21q-30 0 -114 181zM821 979q0 -14 -14 -14q-37 0 -121 103.5t-84 171.5q0 84 66 84q29 0 44 -18.5t15 -113.5q0 -67 47 -142.5
t47 -70.5z" />
    <glyph glyph-name="glyph271" horiz-adv-x="807" 
d="M641 797l-240 -127q-98 -52 -119 -52q-26 0 -26 19q0 18 76 64q134 80 244 162q89 67 95 67q20 0 27 -23l70 -244q4 -14 4 -26q0 -21 -17 -21q-30 0 -114 181zM719 934q0 9 20 38q24 36 56 69q45 42 89 84q49 54 49 105q0 45 -52 45q-19 0 -41.5 -16.5t-22.5 -35.5
q0 -2 12 -13.5t12 -26.5q0 -33 -32 -33q-40 0 -40 46q0 48 43.5 85t93.5 37q123 0 123 -108q0 -52 -44 -91q-8 -7 -88 -60q-74 -48 -132 -110q-26 -29 -33 -29q-13 0 -13 14z" />
    <glyph glyph-name="glyph272" horiz-adv-x="807" 
d="M641 797l-240 -127q-98 -52 -119 -52q-26 0 -26 19q0 18 76 64q134 80 244 162q89 67 95 67q20 0 27 -23l70 -244q4 -14 4 -26q0 -21 -17 -21q-30 0 -114 181zM663 1180q43 0 125 -38t123 -38q42 0 81.5 49t45.5 49q20 0 20 -14q0 -57 -55 -118.5t-112 -61.5
q-43 0 -124.5 38t-123.5 38q-43 0 -83 -49.5t-46 -49.5q-19 0 -19 15q0 57 55.5 118.5t112.5 61.5z" />
    <glyph glyph-name="glyph273" horiz-adv-x="807" 
d="M317 920q14 0 34 -39q25 -51 51 -74q45 -39 122 -39q110 0 270 117q14 10 43 30q16 0 16 -18q0 -16 -52 -78q-140 -168 -294 -168q-86 0 -151 75q-62 71 -62 159q0 35 23 35zM508 966q-17 0 -17 15q0 9 64.5 54t103.5 101l50 106q35 72 75 72q61 0 61 -61
q0 -107 -188 -217q-119 -70 -149 -70z" />
    <glyph glyph-name="glyph274" horiz-adv-x="807" 
d="M317 920q14 0 34 -39q25 -51 51 -74q45 -39 122 -39q110 0 270 117q14 10 43 30q16 0 16 -18q0 -16 -52 -78q-140 -168 -294 -168q-86 0 -151 75q-62 71 -62 159q0 35 23 35zM691 979q0 -14 -14 -14q-37 0 -121 103.5t-84 171.5q0 84 66 84q29 0 44 -18.5t15 -113.5
q0 -67 47 -142.5t47 -70.5z" />
    <glyph glyph-name="glyph275" horiz-adv-x="807" 
d="M317 920q14 0 34 -39q25 -51 51 -74q45 -39 122 -39q110 0 270 117q14 10 43 30q16 0 16 -18q0 -16 -52 -78q-140 -168 -294 -168q-86 0 -151 75q-62 71 -62 159q0 35 23 35zM529 934q0 9 20 38q24 36 56 69q45 42 89 84q49 54 49 105q0 45 -52 45q-19 0 -41.5 -16.5
t-22.5 -35.5q0 -2 12 -13.5t12 -26.5q0 -33 -32 -33q-40 0 -40 46q0 48 43.5 85t93.5 37q123 0 123 -108q0 -52 -44 -91q-8 -7 -88 -60q-74 -48 -132 -110q-26 -29 -33 -29q-13 0 -13 14z" />
    <glyph glyph-name="glyph276" horiz-adv-x="807" 
d="M317 920q14 0 34 -39q25 -51 51 -74q45 -39 122 -39q110 0 270 117q14 10 43 30q16 0 16 -18q0 -16 -52 -78q-140 -168 -294 -168q-86 0 -151 75q-62 71 -62 159q0 35 23 35zM613 1180q43 0 125 -38t123 -38q42 0 81.5 49t45.5 49q20 0 20 -14q0 -57 -55 -118.5
t-112 -61.5q-43 0 -124.5 38t-123.5 38q-43 0 -83 -49.5t-46 -49.5q-19 0 -19 15q0 57 55.5 118.5t112.5 61.5z" />
    <glyph glyph-name="glyph277" unicode="&#x102;" horiz-adv-x="1796" 
d="M1413 322q320 664 741 1077q-272 -121 -772 -643q43 -150 43 -283q0 -75 -12 -151zM913 299q188 159 433 459q-109 264 -355 264q-138 0 -224.5 -92.5t-86.5 -231.5q0 -237 233 -399zM940 283q191 -113 385 -129q70 150 70 350q0 106 -39 223q-161 -184 -201 -229
q-117 -128 -215 -215zM918 260q-297 -266 -553 -266q-114 0 -198 53q-99 62 -99 170q0 56 26 97q31 48 84 48q37 0 62.5 -25.5t25.5 -62.5q0 -54 -54 -84t-54 -34q0 -60 85 -96q67 -29 136 -29q256 0 510 248q-293 218 -293 458q0 145 99 242.5t245 97.5q290 0 428 -295
q262 293 511.5 481.5t338.5 188.5q5 0 10 -1l2 -5q-30 -43 -99 -132q-307 -398 -644 -1160q168 14 307 133q11 10 31 22l3 -2q0 -3 1 -6q0 -17 -27 -45q-122 -124 -327 -133l-30 -72q-25 -48 -52 -51q-97 -10 -111 -10q-16 0 -16 14q0 8 48 127q-203 18 -396 129zM1987 1820
q14 0 34 -39q25 -51 51 -74q45 -39 122 -39q110 0 270 117q14 10 43 30q16 0 16 -18q0 -16 -52 -78q-140 -168 -294 -168q-86 0 -151 75q-62 71 -62 159q0 35 23 35z" />
    <glyph glyph-name="glyph278" unicode="&#x103;" horiz-adv-x="807" 
d="M111 90q0 -63 49 -63q71 0 182 120q90 98 137 187q45 86 45 149q0 64 -67 64q-111 0 -232 -175q-114 -164 -114 -282zM549 438l84 123l135 8l-225 -354q-76 -120 -76 -160q0 -32 31 -32q47 0 181 134l134 134q4 0 9 -2l3 -6q-1 -25 -112 -134q-103 -101 -141 -125
q-52 -34 -97 -34q-84 0 -84 102q0 25 10 78q-142 -180 -258 -180q-118 0 -118 209q0 45 13 95q-25 -40 -42 -40q-5 0 -10 2l-2 6q0 8 26 39q90 108 195 183q134 94 244 94q108 0 108 -95q0 -19 -8 -45zM317 920q14 0 34 -39q25 -51 51 -74q45 -39 122 -39q110 0 270 117
q14 10 43 30q16 0 16 -18q0 -16 -52 -78q-140 -168 -294 -168q-86 0 -151 75q-62 71 -62 159q0 35 23 35z" />
    <glyph glyph-name="glyph279" unicode="&#x128;" horiz-adv-x="1139" 
d="M1028 688q285 531 649 721q-365 -28 -587 -179q-224 -154 -224 -358q0 -76 44 -127t118 -57zM1165 657q-141 -268 -312 -438q-230 -229 -468 -229q-95 0 -164 36q-88 46 -88 132q0 100 92 100q74 0 74 -82q0 -18 -12.5 -46t-12.5 -32q0 -40 46 -62q36 -18 81 -18
q334 0 615 641q-103 14 -167 78q-67 68 -67 170q0 313 566 471q244 68 417 68q22 0 27 -10q-2 -9 -48 -26q-53 -20 -87 -40q-134 -79 -273 -305q-63 -101 -198 -371q114 24 229 132q12 13 37 28l4 -2q2 -4 2 -8q0 -37 -86 -96q-70 -49 -121 -68q-42 -16 -86 -23zM1543 1827
q43 0 125 -38t123 -38q42 0 81.5 49t45.5 49q20 0 20 -14q0 -57 -55 -118.5t-112 -61.5q-43 0 -124.5 38t-123.5 38q-43 0 -83 -49.5t-46 -49.5q-19 0 -19 15q0 57 55.5 118.5t112.5 61.5z" />
    <glyph glyph-name="glyph280" unicode="&#x129;" horiz-adv-x="451" 
d="M182 449q-50 -53 -99 -106q-82 -87 -89 -87q-1 0 -6 2l-2 4q1 30 260 297l147 10l-203 -319q-100 -157 -100 -193q0 -39 35 -39q67 0 199 136.5t135 136.5q12 0 12 -10q0 -22 -110 -129q-100 -99 -140 -125q-54 -37 -94 -37q-111 0 -111 129q0 54 66 170zM292 850
q43 0 125 -38t123 -38q42 0 81.5 49t45.5 49q20 0 20 -14q0 -57 -55 -118.5t-112 -61.5q-43 0 -124.5 38t-123.5 38q-43 0 -83 -49.5t-46 -49.5q-19 0 -19 15q0 57 55.5 118.5t112.5 61.5z" />
    <glyph glyph-name="glyph281" unicode="&#x168;" horiz-adv-x="1350" 
d="M999 418q-117 -143 -244 -258q-188 -170 -292 -170q-113 0 -113 157q0 163 199 465l260 394q109 165 109 258q0 166 -213 166q-121 0 -249 -53q-163 -67 -296 -200q-158 -157 -158 -307q0 -71 40.5 -113t111.5 -42q135 0 286 134q130 116 199 257q26 54 48 135
q9 36 30 74q10 -7 10 -31q0 -163 -81 -312.5t-217 -237.5q-127 -83 -251 -83q-95 0 -152 56t-57 151q0 87 50 181q91 173 296 296t402 123q131 0 202.5 -70.5t71.5 -201.5q0 -108 -71 -249q-36 -72 -136 -226l-235 -361q-129 -198 -129 -262q0 -57 65 -57q102 0 301 197
t410 522l440 677l170 13l-690 -1082q-125 -196 -125 -274q0 -47 41 -47q75 0 202 127t124 127q12 0 12 -10q0 -18 -104 -125q-80 -82 -138 -120q-63 -40 -108 -40q-96 0 -96 149q0 115 75 273zM1353 1827q43 0 125 -38t123 -38q42 0 81.5 49t45.5 49q20 0 20 -14
q0 -57 -55 -118.5t-112 -61.5q-43 0 -124.5 38t-123.5 38q-43 0 -83 -49.5t-46 -49.5q-19 0 -19 15q0 57 55.5 118.5t112.5 61.5z" />
    <glyph glyph-name="glyph282" unicode="&#x169;" horiz-adv-x="795" 
d="M453 57q0 -37 32 -37q49 0 182 135.5t134 135.5q12 0 12 -8q0 -23 -102 -124q-88 -87 -131 -120q-65 -49 -97 -49q-96 0 -96 139q0 19 8 59q-171 -198 -268 -198q-113 0 -113 129q0 86 166 329q-49 -53 -99 -106q-80 -86 -87 -86q-1 0 -7 2l-3 4q1 26 260 297l147 8
l-203 -317q-100 -156 -100 -193t33 -37q177 0 497 539l138 8l-246 -389q-57 -90 -57 -121zM442 850q43 0 125 -38t123 -38q42 0 81.5 49t45.5 49q20 0 20 -14q0 -57 -55 -118.5t-112 -61.5q-43 0 -124.5 38t-123.5 38q-43 0 -83 -49.5t-46 -49.5q-19 0 -19 15
q0 57 55.5 118.5t112.5 61.5z" />
    <glyph glyph-name="glyph283" unicode="&#x1a0;" horiz-adv-x="1145" 
d="M1317 1040q0 -259 -203 -562q-196 -292 -434 -418q-133 -70 -246 -70q-153 0 -238 118q-75 104 -75 263q0 178 102 379q134 264 400 478q296 238 561 238q107 0 179 -50q83 -57 83 -159q0 -92 -23 -92q-8 4 -8 21q0 9 2 27.5t2 27.5q0 97 -66 149q-59 48 -159 48
q-225 0 -458 -209q-209 -187 -352 -470q-140 -278 -140 -497q0 -102 49 -166q54 -71 153 -71q114 0 257 82q314 178 496 584q89 201 89 345q0 86 -32 144q-40 73 -119 73q-111 0 -258 -145q-202 -200 -284 -492q-8 -34 -28 -71q-8 6 -8 30q0 162 119 381q83 153 205 246.5
t229 93.5q105 0 159 -79q46 -67 46 -177zM1309 1190q-19 0 -19 17q0 3 0.5 4t83 51t106.5 90q21 52 41 103q31 69 72 69q60 0 60 -57q0 -110 -270 -248q-58 -29 -74 -29z" />
    <glyph glyph-name="glyph284" unicode="&#x1a1;" horiz-adv-x="680" 
d="M115 96q0 -73 63 -73q34 0 88 34q93 58 168 167q82 119 82 220q0 103 -78 103q-80 0 -177 -122q-77 -98 -116 -197q-30 -76 -30 -132zM459 186q37 -6 33 -6q95 0 196 121q4 5 17 6l6 -3q2 -5 2 -9q0 -8 -25 -37q-90 -106 -209 -106q-22 0 -46 3q-152 -165 -271 -165
q-137 0 -137 213q0 36 16 94q-32 -41 -45 -41q-4 0 -7 2t-3 6q0 13 84 105q195 213 360 213q141 0 141 -148q0 -102 -112 -248zM464 351q-19 0 -19 17q0 3 0.5 4t83 51t106.5 90q21 52 41 103q31 69 72 69q60 0 60 -57q0 -110 -270 -248q-58 -29 -74 -29z" />
    <glyph glyph-name="glyph285" unicode="&#x1af;" horiz-adv-x="1350" 
d="M999 418q-117 -143 -244 -258q-188 -170 -292 -170q-113 0 -113 157q0 163 199 465l260 394q109 165 109 258q0 166 -213 166q-121 0 -249 -53q-163 -67 -296 -200q-158 -157 -158 -307q0 -71 40.5 -113t111.5 -42q135 0 286 134q130 116 199 257q26 54 48 135
q9 36 30 74q10 -7 10 -31q0 -163 -81 -312.5t-217 -237.5q-127 -83 -251 -83q-95 0 -152 56t-57 151q0 87 50 181q91 173 296 296t402 123q131 0 202.5 -70.5t71.5 -201.5q0 -108 -71 -249q-36 -72 -136 -226l-235 -361q-129 -198 -129 -262q0 -57 65 -57q102 0 301 197
t410 522l440 677l170 13l-690 -1082q-125 -196 -125 -274q0 -47 41 -47q75 0 202 127t124 127q12 0 12 -10q0 -18 -104 -125q-80 -82 -138 -120q-63 -40 -108 -40q-96 0 -96 149q0 115 75 273zM1639 1190q-19 0 -19 17q0 3 0.5 4t83 51t106.5 90q21 52 41 103q31 69 72 69
q60 0 60 -57q0 -110 -270 -248q-58 -29 -74 -29z" />
    <glyph glyph-name="glyph286" unicode="&#x1b0;" horiz-adv-x="795" 
d="M453 57q0 -37 32 -37q49 0 182 135.5t134 135.5q12 0 12 -8q0 -23 -102 -124q-88 -87 -131 -120q-65 -49 -97 -49q-96 0 -96 139q0 19 8 59q-171 -198 -268 -198q-113 0 -113 129q0 86 166 329q-49 -53 -99 -106q-80 -86 -87 -86q-1 0 -7 2l-3 4q1 26 260 297l147 8
l-203 -317q-100 -156 -100 -193t33 -37q177 0 497 539l138 8l-246 -389q-57 -90 -57 -121zM594 351q-19 0 -19 17q0 3 0.5 4t83 51t106.5 90q21 52 41 103q31 69 72 69q60 0 60 -57q0 -110 -270 -248q-58 -29 -74 -29z" />
    <glyph glyph-name="glyph287" unicode="&#x1ea0;" horiz-adv-x="1796" 
d="M1413 322q320 664 741 1077q-272 -121 -772 -643q43 -150 43 -283q0 -75 -12 -151zM913 299q188 159 433 459q-109 264 -355 264q-138 0 -224.5 -92.5t-86.5 -231.5q0 -237 233 -399zM940 283q191 -113 385 -129q70 150 70 350q0 106 -39 223q-161 -184 -201 -229
q-117 -128 -215 -215zM918 260q-297 -266 -553 -266q-114 0 -198 53q-99 62 -99 170q0 56 26 97q31 48 84 48q37 0 62.5 -25.5t25.5 -62.5q0 -54 -54 -84t-54 -34q0 -60 85 -96q67 -29 136 -29q256 0 510 248q-293 218 -293 458q0 145 99 242.5t245 97.5q290 0 428 -295
q262 293 511.5 481.5t338.5 188.5q5 0 10 -1l2 -5q-30 -43 -99 -132q-307 -398 -644 -1160q168 14 307 133q11 10 31 22l3 -2q0 -3 1 -6q0 -17 -27 -45q-122 -124 -327 -133l-30 -72q-25 -48 -52 -51q-97 -10 -111 -10q-16 0 -16 14q0 8 48 127q-203 18 -396 129zM755 -252
q0 34 25.5 64t58.5 30q58 0 58 -59q0 -33 -25 -63.5t-57 -30.5q-60 0 -60 59z" />
    <glyph glyph-name="glyph288" unicode="&#x1ea1;" horiz-adv-x="807" 
d="M111 90q0 -63 49 -63q71 0 182 120q90 98 137 187q45 86 45 149q0 64 -67 64q-111 0 -232 -175q-114 -164 -114 -282zM549 438l84 123l135 8l-225 -354q-76 -120 -76 -160q0 -32 31 -32q47 0 181 134l134 134q4 0 9 -2l3 -6q-1 -25 -112 -134q-103 -101 -141 -125
q-52 -34 -97 -34q-84 0 -84 102q0 25 10 78q-142 -180 -258 -180q-118 0 -118 209q0 45 13 95q-25 -40 -42 -40q-5 0 -10 2l-2 6q0 8 26 39q90 108 195 183q134 94 244 94q108 0 108 -95q0 -19 -8 -45zM105 -252q0 34 25.5 64t58.5 30q58 0 58 -59q0 -33 -25 -63.5
t-57 -30.5q-60 0 -60 59z" />
    <glyph glyph-name="glyph289" unicode="&#x1ea2;" horiz-adv-x="1796" 
d="M1413 322q320 664 741 1077q-272 -121 -772 -643q43 -150 43 -283q0 -75 -12 -151zM913 299q188 159 433 459q-109 264 -355 264q-138 0 -224.5 -92.5t-86.5 -231.5q0 -237 233 -399zM940 283q191 -113 385 -129q70 150 70 350q0 106 -39 223q-161 -184 -201 -229
q-117 -128 -215 -215zM918 260q-297 -266 -553 -266q-114 0 -198 53q-99 62 -99 170q0 56 26 97q31 48 84 48q37 0 62.5 -25.5t25.5 -62.5q0 -54 -54 -84t-54 -34q0 -60 85 -96q67 -29 136 -29q256 0 510 248q-293 218 -293 458q0 145 99 242.5t245 97.5q290 0 428 -295
q262 293 511.5 481.5t338.5 188.5q5 0 10 -1l2 -5q-30 -43 -99 -132q-307 -398 -644 -1160q168 14 307 133q11 10 31 22l3 -2q0 -3 1 -6q0 -17 -27 -45q-122 -124 -327 -133l-30 -72q-25 -48 -52 -51q-97 -10 -111 -10q-16 0 -16 14q0 8 48 127q-203 18 -396 129zM2181 1547
q0 9 20 38q24 36 56 69q45 42 89 84q49 54 49 105q0 45 -52 45q-19 0 -41.5 -16.5t-22.5 -35.5q0 -2 12 -13.5t12 -26.5q0 -33 -32 -33q-40 0 -40 46q0 48 43.5 85t93.5 37q123 0 123 -108q0 -52 -44 -91q-8 -7 -88 -60q-74 -48 -132 -110q-26 -29 -33 -29q-13 0 -13 14z
" />
    <glyph glyph-name="glyph290" unicode="&#x1ea3;" horiz-adv-x="807" 
d="M111 90q0 -63 49 -63q71 0 182 120q90 98 137 187q45 86 45 149q0 64 -67 64q-111 0 -232 -175q-114 -164 -114 -282zM549 438l84 123l135 8l-225 -354q-76 -120 -76 -160q0 -32 31 -32q47 0 181 134l134 134q4 0 9 -2l3 -6q-1 -25 -112 -134q-103 -101 -141 -125
q-52 -34 -97 -34q-84 0 -84 102q0 25 10 78q-142 -180 -258 -180q-118 0 -118 209q0 45 13 95q-25 -40 -42 -40q-5 0 -10 2l-2 6q0 8 26 39q90 108 195 183q134 94 244 94q108 0 108 -95q0 -19 -8 -45zM489 634q0 9 20 38q24 36 56 69q45 42 89 84q49 54 49 105q0 45 -52 45
q-19 0 -41.5 -16.5t-22.5 -35.5q0 -2 12 -13.5t12 -26.5q0 -33 -32 -33q-40 0 -40 46q0 48 43.5 85t93.5 37q123 0 123 -108q0 -52 -44 -91q-8 -7 -88 -60q-74 -48 -132 -110q-26 -29 -33 -29q-13 0 -13 14z" />
    <glyph glyph-name="glyph291" unicode="&#x1ea4;" horiz-adv-x="1796" 
d="M1413 322q320 664 741 1077q-272 -121 -772 -643q43 -150 43 -283q0 -75 -12 -151zM913 299q188 159 433 459q-109 264 -355 264q-138 0 -224.5 -92.5t-86.5 -231.5q0 -237 233 -399zM940 283q191 -113 385 -129q70 150 70 350q0 106 -39 223q-161 -184 -201 -229
q-117 -128 -215 -215zM918 260q-297 -266 -553 -266q-114 0 -198 53q-99 62 -99 170q0 56 26 97q31 48 84 48q37 0 62.5 -25.5t25.5 -62.5q0 -54 -54 -84t-54 -34q0 -60 85 -96q67 -29 136 -29q256 0 510 248q-293 218 -293 458q0 145 99 242.5t245 97.5q290 0 428 -295
q262 293 511.5 481.5t338.5 188.5q5 0 10 -1l2 -5q-30 -43 -99 -132q-307 -398 -644 -1160q168 14 307 133q11 10 31 22l3 -2q0 -3 1 -6q0 -17 -27 -45q-122 -124 -327 -133l-30 -72q-25 -48 -52 -51q-97 -10 -111 -10q-16 0 -16 14q0 8 48 127q-203 18 -396 129zM2255 1714
l-240 -127q-98 -52 -119 -52q-26 0 -26 19q0 18 76 64q134 80 244 162q89 67 95 67q20 0 27 -23l70 -244q4 -14 4 -26q0 -21 -17 -21q-30 0 -114 181zM2162 1884q-17 0 -17 15q0 9 64.5 54t103.5 101l50 106q35 72 75 72q61 0 61 -61q0 -107 -188 -217q-119 -70 -149 -70z
" />
    <glyph glyph-name="glyph292" unicode="&#x1ea5;" horiz-adv-x="807" 
d="M111 90q0 -63 49 -63q71 0 182 120q90 98 137 187q45 86 45 149q0 64 -67 64q-111 0 -232 -175q-114 -164 -114 -282zM549 438l84 123l135 8l-225 -354q-76 -120 -76 -160q0 -32 31 -32q47 0 181 134l134 134q4 0 9 -2l3 -6q-1 -25 -112 -134q-103 -101 -141 -125
q-52 -34 -97 -34q-84 0 -84 102q0 25 10 78q-142 -180 -258 -180q-118 0 -118 209q0 45 13 95q-25 -40 -42 -40q-5 0 -10 2l-2 6q0 8 26 39q90 108 195 183q134 94 244 94q108 0 108 -95q0 -19 -8 -45zM641 797l-240 -127q-98 -52 -119 -52q-26 0 -26 19q0 18 76 64
q134 80 244 162q89 67 95 67q20 0 27 -23l70 -244q4 -14 4 -26q0 -21 -17 -21q-30 0 -114 181zM548 966q-17 0 -17 15q0 9 64.5 54t103.5 101l50 106q35 72 75 72q61 0 61 -61q0 -107 -188 -217q-119 -70 -149 -70z" />
    <glyph glyph-name="glyph293" unicode="&#x1ea6;" horiz-adv-x="1796" 
d="M1413 322q320 664 741 1077q-272 -121 -772 -643q43 -150 43 -283q0 -75 -12 -151zM913 299q188 159 433 459q-109 264 -355 264q-138 0 -224.5 -92.5t-86.5 -231.5q0 -237 233 -399zM940 283q191 -113 385 -129q70 150 70 350q0 106 -39 223q-161 -184 -201 -229
q-117 -128 -215 -215zM918 260q-297 -266 -553 -266q-114 0 -198 53q-99 62 -99 170q0 56 26 97q31 48 84 48q37 0 62.5 -25.5t25.5 -62.5q0 -54 -54 -84t-54 -34q0 -60 85 -96q67 -29 136 -29q256 0 510 248q-293 218 -293 458q0 145 99 242.5t245 97.5q290 0 428 -295
q262 293 511.5 481.5t338.5 188.5q5 0 10 -1l2 -5q-30 -43 -99 -132q-307 -398 -644 -1160q168 14 307 133q11 10 31 22l3 -2q0 -3 1 -6q0 -17 -27 -45q-122 -124 -327 -133l-30 -72q-25 -48 -52 -51q-97 -10 -111 -10q-16 0 -16 14q0 8 48 127q-203 18 -396 129zM2255 1714
l-240 -127q-98 -52 -119 -52q-26 0 -26 19q0 18 76 64q134 80 244 162q89 67 95 67q20 0 27 -23l70 -244q4 -14 4 -26q0 -21 -17 -21q-30 0 -114 181zM2435 1896q0 -14 -14 -14q-37 0 -121 103.5t-84 171.5q0 84 66 84q29 0 44 -18.5t15 -113.5q0 -67 47 -142.5t47 -70.5z
" />
    <glyph glyph-name="glyph294" unicode="&#x1ea7;" horiz-adv-x="807" 
d="M111 90q0 -63 49 -63q71 0 182 120q90 98 137 187q45 86 45 149q0 64 -67 64q-111 0 -232 -175q-114 -164 -114 -282zM549 438l84 123l135 8l-225 -354q-76 -120 -76 -160q0 -32 31 -32q47 0 181 134l134 134q4 0 9 -2l3 -6q-1 -25 -112 -134q-103 -101 -141 -125
q-52 -34 -97 -34q-84 0 -84 102q0 25 10 78q-142 -180 -258 -180q-118 0 -118 209q0 45 13 95q-25 -40 -42 -40q-5 0 -10 2l-2 6q0 8 26 39q90 108 195 183q134 94 244 94q108 0 108 -95q0 -19 -8 -45zM641 797l-240 -127q-98 -52 -119 -52q-26 0 -26 19q0 18 76 64
q134 80 244 162q89 67 95 67q20 0 27 -23l70 -244q4 -14 4 -26q0 -21 -17 -21q-30 0 -114 181zM821 979q0 -14 -14 -14q-37 0 -121 103.5t-84 171.5q0 84 66 84q29 0 44 -18.5t15 -113.5q0 -67 47 -142.5t47 -70.5z" />
    <glyph glyph-name="glyph295" unicode="&#x1ea8;" horiz-adv-x="1796" 
d="M1413 322q320 664 741 1077q-272 -121 -772 -643q43 -150 43 -283q0 -75 -12 -151zM913 299q188 159 433 459q-109 264 -355 264q-138 0 -224.5 -92.5t-86.5 -231.5q0 -237 233 -399zM940 283q191 -113 385 -129q70 150 70 350q0 106 -39 223q-161 -184 -201 -229
q-117 -128 -215 -215zM918 260q-297 -266 -553 -266q-114 0 -198 53q-99 62 -99 170q0 56 26 97q31 48 84 48q37 0 62.5 -25.5t25.5 -62.5q0 -54 -54 -84t-54 -34q0 -60 85 -96q67 -29 136 -29q256 0 510 248q-293 218 -293 458q0 145 99 242.5t245 97.5q290 0 428 -295
q262 293 511.5 481.5t338.5 188.5q5 0 10 -1l2 -5q-30 -43 -99 -132q-307 -398 -644 -1160q168 14 307 133q11 10 31 22l3 -2q0 -3 1 -6q0 -17 -27 -45q-122 -124 -327 -133l-30 -72q-25 -48 -52 -51q-97 -10 -111 -10q-16 0 -16 14q0 8 48 127q-203 18 -396 129zM2255 1714
l-240 -127q-98 -52 -119 -52q-26 0 -26 19q0 18 76 64q134 80 244 162q89 67 95 67q20 0 27 -23l70 -244q4 -14 4 -26q0 -21 -17 -21q-30 0 -114 181zM2333 1851q0 9 20 38q24 36 56 69q45 42 89 84q49 54 49 105q0 45 -52 45q-19 0 -41.5 -16.5t-22.5 -35.5q0 -2 12 -13.5
t12 -26.5q0 -33 -32 -33q-40 0 -40 46q0 48 43.5 85t93.5 37q123 0 123 -108q0 -52 -44 -91q-8 -7 -88 -60q-74 -48 -132 -110q-26 -29 -33 -29q-13 0 -13 14z" />
    <glyph glyph-name="glyph296" unicode="&#x1ea9;" horiz-adv-x="807" 
d="M111 90q0 -63 49 -63q71 0 182 120q90 98 137 187q45 86 45 149q0 64 -67 64q-111 0 -232 -175q-114 -164 -114 -282zM549 438l84 123l135 8l-225 -354q-76 -120 -76 -160q0 -32 31 -32q47 0 181 134l134 134q4 0 9 -2l3 -6q-1 -25 -112 -134q-103 -101 -141 -125
q-52 -34 -97 -34q-84 0 -84 102q0 25 10 78q-142 -180 -258 -180q-118 0 -118 209q0 45 13 95q-25 -40 -42 -40q-5 0 -10 2l-2 6q0 8 26 39q90 108 195 183q134 94 244 94q108 0 108 -95q0 -19 -8 -45zM641 797l-240 -127q-98 -52 -119 -52q-26 0 -26 19q0 18 76 64
q134 80 244 162q89 67 95 67q20 0 27 -23l70 -244q4 -14 4 -26q0 -21 -17 -21q-30 0 -114 181zM719 934q0 9 20 38q24 36 56 69q45 42 89 84q49 54 49 105q0 45 -52 45q-19 0 -41.5 -16.5t-22.5 -35.5q0 -2 12 -13.5t12 -26.5q0 -33 -32 -33q-40 0 -40 46q0 48 43.5 85
t93.5 37q123 0 123 -108q0 -52 -44 -91q-8 -7 -88 -60q-74 -48 -132 -110q-26 -29 -33 -29q-13 0 -13 14z" />
    <glyph glyph-name="glyph297" unicode="&#x1eaa;" horiz-adv-x="1796" 
d="M1413 322q320 664 741 1077q-272 -121 -772 -643q43 -150 43 -283q0 -75 -12 -151zM913 299q188 159 433 459q-109 264 -355 264q-138 0 -224.5 -92.5t-86.5 -231.5q0 -237 233 -399zM940 283q191 -113 385 -129q70 150 70 350q0 106 -39 223q-161 -184 -201 -229
q-117 -128 -215 -215zM918 260q-297 -266 -553 -266q-114 0 -198 53q-99 62 -99 170q0 56 26 97q31 48 84 48q37 0 62.5 -25.5t25.5 -62.5q0 -54 -54 -84t-54 -34q0 -60 85 -96q67 -29 136 -29q256 0 510 248q-293 218 -293 458q0 145 99 242.5t245 97.5q290 0 428 -295
q262 293 511.5 481.5t338.5 188.5q5 0 10 -1l2 -5q-30 -43 -99 -132q-307 -398 -644 -1160q168 14 307 133q11 10 31 22l3 -2q0 -3 1 -6q0 -17 -27 -45q-122 -124 -327 -133l-30 -72q-25 -48 -52 -51q-97 -10 -111 -10q-16 0 -16 14q0 8 48 127q-203 18 -396 129zM2255 1714
l-240 -127q-98 -52 -119 -52q-26 0 -26 19q0 18 76 64q134 80 244 162q89 67 95 67q20 0 27 -23l70 -244q4 -14 4 -26q0 -21 -17 -21q-30 0 -114 181zM2276 2098q43 0 125 -38t123 -38q42 0 81.5 49t45.5 49q20 0 20 -14q0 -57 -55 -118.5t-112 -61.5q-43 0 -124.5 38
t-123.5 38q-43 0 -83 -49.5t-46 -49.5q-19 0 -19 15q0 57 55.5 118.5t112.5 61.5z" />
    <glyph glyph-name="glyph298" unicode="&#x1eab;" horiz-adv-x="807" 
d="M111 90q0 -63 49 -63q71 0 182 120q90 98 137 187q45 86 45 149q0 64 -67 64q-111 0 -232 -175q-114 -164 -114 -282zM549 438l84 123l135 8l-225 -354q-76 -120 -76 -160q0 -32 31 -32q47 0 181 134l134 134q4 0 9 -2l3 -6q-1 -25 -112 -134q-103 -101 -141 -125
q-52 -34 -97 -34q-84 0 -84 102q0 25 10 78q-142 -180 -258 -180q-118 0 -118 209q0 45 13 95q-25 -40 -42 -40q-5 0 -10 2l-2 6q0 8 26 39q90 108 195 183q134 94 244 94q108 0 108 -95q0 -19 -8 -45zM641 797l-240 -127q-98 -52 -119 -52q-26 0 -26 19q0 18 76 64
q134 80 244 162q89 67 95 67q20 0 27 -23l70 -244q4 -14 4 -26q0 -21 -17 -21q-30 0 -114 181zM663 1180q43 0 125 -38t123 -38q42 0 81.5 49t45.5 49q20 0 20 -14q0 -57 -55 -118.5t-112 -61.5q-43 0 -124.5 38t-123.5 38q-43 0 -83 -49.5t-46 -49.5q-19 0 -19 15
q0 57 55.5 118.5t112.5 61.5z" />
    <glyph glyph-name="glyph299" unicode="&#x1eac;" horiz-adv-x="1796" 
d="M1413 322q320 664 741 1077q-272 -121 -772 -643q43 -150 43 -283q0 -75 -12 -151zM913 299q188 159 433 459q-109 264 -355 264q-138 0 -224.5 -92.5t-86.5 -231.5q0 -237 233 -399zM940 283q191 -113 385 -129q70 150 70 350q0 106 -39 223q-161 -184 -201 -229
q-117 -128 -215 -215zM918 260q-297 -266 -553 -266q-114 0 -198 53q-99 62 -99 170q0 56 26 97q31 48 84 48q37 0 62.5 -25.5t25.5 -62.5q0 -54 -54 -84t-54 -34q0 -60 85 -96q67 -29 136 -29q256 0 510 248q-293 218 -293 458q0 145 99 242.5t245 97.5q290 0 428 -295
q262 293 511.5 481.5t338.5 188.5q5 0 10 -1l2 -5q-30 -43 -99 -132q-307 -398 -644 -1160q168 14 307 133q11 10 31 22l3 -2q0 -3 1 -6q0 -17 -27 -45q-122 -124 -327 -133l-30 -72q-25 -48 -52 -51q-97 -10 -111 -10q-16 0 -16 14q0 8 48 127q-203 18 -396 129zM2255 1714
l-240 -127q-98 -52 -119 -52q-26 0 -26 19q0 18 76 64q134 80 244 162q89 67 95 67q20 0 27 -23l70 -244q4 -14 4 -26q0 -21 -17 -21q-30 0 -114 181zM755 -252q0 34 25.5 64t58.5 30q58 0 58 -59q0 -33 -25 -63.5t-57 -30.5q-60 0 -60 59z" />
    <glyph glyph-name="glyph300" unicode="&#x1ead;" horiz-adv-x="807" 
d="M111 90q0 -63 49 -63q71 0 182 120q90 98 137 187q45 86 45 149q0 64 -67 64q-111 0 -232 -175q-114 -164 -114 -282zM549 438l84 123l135 8l-225 -354q-76 -120 -76 -160q0 -32 31 -32q47 0 181 134l134 134q4 0 9 -2l3 -6q-1 -25 -112 -134q-103 -101 -141 -125
q-52 -34 -97 -34q-84 0 -84 102q0 25 10 78q-142 -180 -258 -180q-118 0 -118 209q0 45 13 95q-25 -40 -42 -40q-5 0 -10 2l-2 6q0 8 26 39q90 108 195 183q134 94 244 94q108 0 108 -95q0 -19 -8 -45zM641 797l-240 -127q-98 -52 -119 -52q-26 0 -26 19q0 18 76 64
q134 80 244 162q89 67 95 67q20 0 27 -23l70 -244q4 -14 4 -26q0 -21 -17 -21q-30 0 -114 181zM105 -252q0 34 25.5 64t58.5 30q58 0 58 -59q0 -33 -25 -63.5t-57 -30.5q-60 0 -60 59z" />
    <glyph glyph-name="glyph301" unicode="&#x1eae;" horiz-adv-x="1796" 
d="M1413 322q320 664 741 1077q-272 -121 -772 -643q43 -150 43 -283q0 -75 -12 -151zM913 299q188 159 433 459q-109 264 -355 264q-138 0 -224.5 -92.5t-86.5 -231.5q0 -237 233 -399zM940 283q191 -113 385 -129q70 150 70 350q0 106 -39 223q-161 -184 -201 -229
q-117 -128 -215 -215zM918 260q-297 -266 -553 -266q-114 0 -198 53q-99 62 -99 170q0 56 26 97q31 48 84 48q37 0 62.5 -25.5t25.5 -62.5q0 -54 -54 -84t-54 -34q0 -60 85 -96q67 -29 136 -29q256 0 510 248q-293 218 -293 458q0 145 99 242.5t245 97.5q290 0 428 -295
q262 293 511.5 481.5t338.5 188.5q5 0 10 -1l2 -5q-30 -43 -99 -132q-307 -398 -644 -1160q168 14 307 133q11 10 31 22l3 -2q0 -3 1 -6q0 -17 -27 -45q-122 -124 -327 -133l-30 -72q-25 -48 -52 -51q-97 -10 -111 -10q-16 0 -16 14q0 8 48 127q-203 18 -396 129zM1987 1820
q14 0 34 -39q25 -51 51 -74q45 -39 122 -39q110 0 270 117q14 10 43 30q16 0 16 -18q0 -16 -52 -78q-140 -168 -294 -168q-86 0 -151 75q-62 71 -62 159q0 35 23 35zM2178 1866q-17 0 -17 15q0 9 64.5 54t103.5 101l50 106q35 72 75 72q61 0 61 -61q0 -107 -188 -217
q-119 -70 -149 -70z" />
    <glyph glyph-name="glyph302" unicode="&#x1eaf;" horiz-adv-x="807" 
d="M111 90q0 -63 49 -63q71 0 182 120q90 98 137 187q45 86 45 149q0 64 -67 64q-111 0 -232 -175q-114 -164 -114 -282zM549 438l84 123l135 8l-225 -354q-76 -120 -76 -160q0 -32 31 -32q47 0 181 134l134 134q4 0 9 -2l3 -6q-1 -25 -112 -134q-103 -101 -141 -125
q-52 -34 -97 -34q-84 0 -84 102q0 25 10 78q-142 -180 -258 -180q-118 0 -118 209q0 45 13 95q-25 -40 -42 -40q-5 0 -10 2l-2 6q0 8 26 39q90 108 195 183q134 94 244 94q108 0 108 -95q0 -19 -8 -45zM317 920q14 0 34 -39q25 -51 51 -74q45 -39 122 -39q110 0 270 117
q14 10 43 30q16 0 16 -18q0 -16 -52 -78q-140 -168 -294 -168q-86 0 -151 75q-62 71 -62 159q0 35 23 35zM508 966q-17 0 -17 15q0 9 64.5 54t103.5 101l50 106q35 72 75 72q61 0 61 -61q0 -107 -188 -217q-119 -70 -149 -70z" />
    <glyph glyph-name="glyph303" unicode="&#x1eb0;" horiz-adv-x="1796" 
d="M1413 322q320 664 741 1077q-272 -121 -772 -643q43 -150 43 -283q0 -75 -12 -151zM913 299q188 159 433 459q-109 264 -355 264q-138 0 -224.5 -92.5t-86.5 -231.5q0 -237 233 -399zM940 283q191 -113 385 -129q70 150 70 350q0 106 -39 223q-161 -184 -201 -229
q-117 -128 -215 -215zM918 260q-297 -266 -553 -266q-114 0 -198 53q-99 62 -99 170q0 56 26 97q31 48 84 48q37 0 62.5 -25.5t25.5 -62.5q0 -54 -54 -84t-54 -34q0 -60 85 -96q67 -29 136 -29q256 0 510 248q-293 218 -293 458q0 145 99 242.5t245 97.5q290 0 428 -295
q262 293 511.5 481.5t338.5 188.5q5 0 10 -1l2 -5q-30 -43 -99 -132q-307 -398 -644 -1160q168 14 307 133q11 10 31 22l3 -2q0 -3 1 -6q0 -17 -27 -45q-122 -124 -327 -133l-30 -72q-25 -48 -52 -51q-97 -10 -111 -10q-16 0 -16 14q0 8 48 127q-203 18 -396 129zM1987 1820
q14 0 34 -39q25 -51 51 -74q45 -39 122 -39q110 0 270 117q14 10 43 30q16 0 16 -18q0 -16 -52 -78q-140 -168 -294 -168q-86 0 -151 75q-62 71 -62 159q0 35 23 35zM2361 1879q0 -14 -14 -14q-37 0 -121 103.5t-84 171.5q0 84 66 84q29 0 44 -18.5t15 -113.5
q0 -67 47 -142.5t47 -70.5z" />
    <glyph glyph-name="glyph304" unicode="&#x1eb1;" horiz-adv-x="807" 
d="M111 90q0 -63 49 -63q71 0 182 120q90 98 137 187q45 86 45 149q0 64 -67 64q-111 0 -232 -175q-114 -164 -114 -282zM549 438l84 123l135 8l-225 -354q-76 -120 -76 -160q0 -32 31 -32q47 0 181 134l134 134q4 0 9 -2l3 -6q-1 -25 -112 -134q-103 -101 -141 -125
q-52 -34 -97 -34q-84 0 -84 102q0 25 10 78q-142 -180 -258 -180q-118 0 -118 209q0 45 13 95q-25 -40 -42 -40q-5 0 -10 2l-2 6q0 8 26 39q90 108 195 183q134 94 244 94q108 0 108 -95q0 -19 -8 -45zM317 920q14 0 34 -39q25 -51 51 -74q45 -39 122 -39q110 0 270 117
q14 10 43 30q16 0 16 -18q0 -16 -52 -78q-140 -168 -294 -168q-86 0 -151 75q-62 71 -62 159q0 35 23 35zM691 979q0 -14 -14 -14q-37 0 -121 103.5t-84 171.5q0 84 66 84q29 0 44 -18.5t15 -113.5q0 -67 47 -142.5t47 -70.5z" />
    <glyph glyph-name="glyph305" unicode="&#x1eb2;" horiz-adv-x="1796" 
d="M1413 322q320 664 741 1077q-272 -121 -772 -643q43 -150 43 -283q0 -75 -12 -151zM913 299q188 159 433 459q-109 264 -355 264q-138 0 -224.5 -92.5t-86.5 -231.5q0 -237 233 -399zM940 283q191 -113 385 -129q70 150 70 350q0 106 -39 223q-161 -184 -201 -229
q-117 -128 -215 -215zM918 260q-297 -266 -553 -266q-114 0 -198 53q-99 62 -99 170q0 56 26 97q31 48 84 48q37 0 62.5 -25.5t25.5 -62.5q0 -54 -54 -84t-54 -34q0 -60 85 -96q67 -29 136 -29q256 0 510 248q-293 218 -293 458q0 145 99 242.5t245 97.5q290 0 428 -295
q262 293 511.5 481.5t338.5 188.5q5 0 10 -1l2 -5q-30 -43 -99 -132q-307 -398 -644 -1160q168 14 307 133q11 10 31 22l3 -2q0 -3 1 -6q0 -17 -27 -45q-122 -124 -327 -133l-30 -72q-25 -48 -52 -51q-97 -10 -111 -10q-16 0 -16 14q0 8 48 127q-203 18 -396 129zM1987 1820
q14 0 34 -39q25 -51 51 -74q45 -39 122 -39q110 0 270 117q14 10 43 30q16 0 16 -18q0 -16 -52 -78q-140 -168 -294 -168q-86 0 -151 75q-62 71 -62 159q0 35 23 35zM2199 1834q0 9 20 38q24 36 56 69q45 42 89 84q49 54 49 105q0 45 -52 45q-19 0 -41.5 -16.5t-22.5 -35.5
q0 -2 12 -13.5t12 -26.5q0 -33 -32 -33q-40 0 -40 46q0 48 43.5 85t93.5 37q123 0 123 -108q0 -52 -44 -91q-8 -7 -88 -60q-74 -48 -132 -110q-26 -29 -33 -29q-13 0 -13 14z" />
    <glyph glyph-name="glyph306" unicode="&#x1eb3;" horiz-adv-x="807" 
d="M111 90q0 -63 49 -63q71 0 182 120q90 98 137 187q45 86 45 149q0 64 -67 64q-111 0 -232 -175q-114 -164 -114 -282zM549 438l84 123l135 8l-225 -354q-76 -120 -76 -160q0 -32 31 -32q47 0 181 134l134 134q4 0 9 -2l3 -6q-1 -25 -112 -134q-103 -101 -141 -125
q-52 -34 -97 -34q-84 0 -84 102q0 25 10 78q-142 -180 -258 -180q-118 0 -118 209q0 45 13 95q-25 -40 -42 -40q-5 0 -10 2l-2 6q0 8 26 39q90 108 195 183q134 94 244 94q108 0 108 -95q0 -19 -8 -45zM317 920q14 0 34 -39q25 -51 51 -74q45 -39 122 -39q110 0 270 117
q14 10 43 30q16 0 16 -18q0 -16 -52 -78q-140 -168 -294 -168q-86 0 -151 75q-62 71 -62 159q0 35 23 35zM529 934q0 9 20 38q24 36 56 69q45 42 89 84q49 54 49 105q0 45 -52 45q-19 0 -41.5 -16.5t-22.5 -35.5q0 -2 12 -13.5t12 -26.5q0 -33 -32 -33q-40 0 -40 46
q0 48 43.5 85t93.5 37q123 0 123 -108q0 -52 -44 -91q-8 -7 -88 -60q-74 -48 -132 -110q-26 -29 -33 -29q-13 0 -13 14z" />
    <glyph glyph-name="glyph307" unicode="&#x1eb4;" horiz-adv-x="1796" 
d="M1413 322q320 664 741 1077q-272 -121 -772 -643q43 -150 43 -283q0 -75 -12 -151zM913 299q188 159 433 459q-109 264 -355 264q-138 0 -224.5 -92.5t-86.5 -231.5q0 -237 233 -399zM940 283q191 -113 385 -129q70 150 70 350q0 106 -39 223q-161 -184 -201 -229
q-117 -128 -215 -215zM918 260q-297 -266 -553 -266q-114 0 -198 53q-99 62 -99 170q0 56 26 97q31 48 84 48q37 0 62.5 -25.5t25.5 -62.5q0 -54 -54 -84t-54 -34q0 -60 85 -96q67 -29 136 -29q256 0 510 248q-293 218 -293 458q0 145 99 242.5t245 97.5q290 0 428 -295
q262 293 511.5 481.5t338.5 188.5q5 0 10 -1l2 -5q-30 -43 -99 -132q-307 -398 -644 -1160q168 14 307 133q11 10 31 22l3 -2q0 -3 1 -6q0 -17 -27 -45q-122 -124 -327 -133l-30 -72q-25 -48 -52 -51q-97 -10 -111 -10q-16 0 -16 14q0 8 48 127q-203 18 -396 129zM1987 1820
q14 0 34 -39q25 -51 51 -74q45 -39 122 -39q110 0 270 117q14 10 43 30q16 0 16 -18q0 -16 -52 -78q-140 -168 -294 -168q-86 0 -151 75q-62 71 -62 159q0 35 23 35zM2283 2080q43 0 125 -38t123 -38q42 0 81.5 49t45.5 49q20 0 20 -14q0 -57 -55 -118.5t-112 -61.5
q-43 0 -124.5 38t-123.5 38q-43 0 -83 -49.5t-46 -49.5q-19 0 -19 15q0 57 55.5 118.5t112.5 61.5z" />
    <glyph glyph-name="glyph308" unicode="&#x1eb5;" horiz-adv-x="807" 
d="M111 90q0 -63 49 -63q71 0 182 120q90 98 137 187q45 86 45 149q0 64 -67 64q-111 0 -232 -175q-114 -164 -114 -282zM549 438l84 123l135 8l-225 -354q-76 -120 -76 -160q0 -32 31 -32q47 0 181 134l134 134q4 0 9 -2l3 -6q-1 -25 -112 -134q-103 -101 -141 -125
q-52 -34 -97 -34q-84 0 -84 102q0 25 10 78q-142 -180 -258 -180q-118 0 -118 209q0 45 13 95q-25 -40 -42 -40q-5 0 -10 2l-2 6q0 8 26 39q90 108 195 183q134 94 244 94q108 0 108 -95q0 -19 -8 -45zM317 920q14 0 34 -39q25 -51 51 -74q45 -39 122 -39q110 0 270 117
q14 10 43 30q16 0 16 -18q0 -16 -52 -78q-140 -168 -294 -168q-86 0 -151 75q-62 71 -62 159q0 35 23 35zM613 1180q43 0 125 -38t123 -38q42 0 81.5 49t45.5 49q20 0 20 -14q0 -57 -55 -118.5t-112 -61.5q-43 0 -124.5 38t-123.5 38q-43 0 -83 -49.5t-46 -49.5
q-19 0 -19 15q0 57 55.5 118.5t112.5 61.5z" />
    <glyph glyph-name="glyph309" unicode="&#x1eb6;" horiz-adv-x="1796" 
d="M1413 322q320 664 741 1077q-272 -121 -772 -643q43 -150 43 -283q0 -75 -12 -151zM913 299q188 159 433 459q-109 264 -355 264q-138 0 -224.5 -92.5t-86.5 -231.5q0 -237 233 -399zM940 283q191 -113 385 -129q70 150 70 350q0 106 -39 223q-161 -184 -201 -229
q-117 -128 -215 -215zM918 260q-297 -266 -553 -266q-114 0 -198 53q-99 62 -99 170q0 56 26 97q31 48 84 48q37 0 62.5 -25.5t25.5 -62.5q0 -54 -54 -84t-54 -34q0 -60 85 -96q67 -29 136 -29q256 0 510 248q-293 218 -293 458q0 145 99 242.5t245 97.5q290 0 428 -295
q262 293 511.5 481.5t338.5 188.5q5 0 10 -1l2 -5q-30 -43 -99 -132q-307 -398 -644 -1160q168 14 307 133q11 10 31 22l3 -2q0 -3 1 -6q0 -17 -27 -45q-122 -124 -327 -133l-30 -72q-25 -48 -52 -51q-97 -10 -111 -10q-16 0 -16 14q0 8 48 127q-203 18 -396 129zM1987 1820
q14 0 34 -39q25 -51 51 -74q45 -39 122 -39q110 0 270 117q14 10 43 30q16 0 16 -18q0 -16 -52 -78q-140 -168 -294 -168q-86 0 -151 75q-62 71 -62 159q0 35 23 35zM755 -252q0 34 25.5 64t58.5 30q58 0 58 -59q0 -33 -25 -63.5t-57 -30.5q-60 0 -60 59z" />
    <glyph glyph-name="glyph310" unicode="&#x1eb7;" horiz-adv-x="807" 
d="M111 90q0 -63 49 -63q71 0 182 120q90 98 137 187q45 86 45 149q0 64 -67 64q-111 0 -232 -175q-114 -164 -114 -282zM549 438l84 123l135 8l-225 -354q-76 -120 -76 -160q0 -32 31 -32q47 0 181 134l134 134q4 0 9 -2l3 -6q-1 -25 -112 -134q-103 -101 -141 -125
q-52 -34 -97 -34q-84 0 -84 102q0 25 10 78q-142 -180 -258 -180q-118 0 -118 209q0 45 13 95q-25 -40 -42 -40q-5 0 -10 2l-2 6q0 8 26 39q90 108 195 183q134 94 244 94q108 0 108 -95q0 -19 -8 -45zM317 920q14 0 34 -39q25 -51 51 -74q45 -39 122 -39q110 0 270 117
q14 10 43 30q16 0 16 -18q0 -16 -52 -78q-140 -168 -294 -168q-86 0 -151 75q-62 71 -62 159q0 35 23 35zM105 -252q0 34 25.5 64t58.5 30q58 0 58 -59q0 -33 -25 -63.5t-57 -30.5q-60 0 -60 59z" />
    <glyph glyph-name="glyph311" unicode="&#x1eb8;" 
d="M678 842q-96 67 -96 166q0 94 50 178q65 111 210.5 199t271.5 88q100 0 159.5 -54t59.5 -153q0 -120 -90 -215t-209 -95q-58 0 -95.5 35.5t-37.5 93.5q0 83 78.5 158.5t130.5 75.5q4 0 9 -1l3 -5q-45 -40 -89 -80q-85 -82 -85 -164q0 -88 90 -88q101 0 185 92
q82 89 82 191q0 178 -179 178q-150 0 -302 -173q-148 -169 -148 -321q0 -93 89 -93h20q13 1 20 1q39 0 64.5 -10t25.5 -29q0 -29 -61 -29q-25 0 -68 12.5t-55 12.5q-38 0 -102 -22q-162 -55 -269 -201t-107 -316q0 -111 63 -181t173 -70q156 0 315.5 148.5t159.5 303.5
q0 59 -31 97q-33 42 -90 42q-69 0 -156 -77q-145 -129 -196 -335q-8 -35 -27 -71q-10 6 -10 37q0 194 112.5 340.5t250.5 146.5q82 0 132 -47t50 -129q0 -123 -109 -258q-98 -122 -220 -181q-104 -50 -216 -50q-147 0 -243 79q-103 84 -103 228q0 181 162 333.5t428 211.5z
M265 -252q0 34 25.5 64t58.5 30q58 0 58 -59q0 -33 -25 -63.5t-57 -30.5q-60 0 -60 59z" />
    <glyph glyph-name="glyph312" unicode="&#x1eb9;" horiz-adv-x="575" 
d="M152 229q138 30 235.5 118t97.5 165q0 41 -36 41q-67 0 -157 -93.5t-140 -230.5zM41 297q-32 -41 -45 -41q-4 0 -7 2t-3 6q0 14 80 101q196 213 374 213q113 0 113 -95q0 -106 -160 -193q-110 -61 -252 -93q-10 -62 -10 -82q0 -95 82 -95q72 0 163 70q58 45 137 131
q65 70 71 70q12 0 12 -10q0 -18 -104 -123q-166 -168 -289 -168q-83 0 -132 71q-42 63 -42 150q0 40 12 86zM45 -252q0 34 25.5 64t58.5 30q58 0 58 -59q0 -33 -25 -63.5t-57 -30.5q-60 0 -60 59z" />
    <glyph glyph-name="glyph313" unicode="&#x1eba;" 
d="M678 842q-96 67 -96 166q0 94 50 178q65 111 210.5 199t271.5 88q100 0 159.5 -54t59.5 -153q0 -120 -90 -215t-209 -95q-58 0 -95.5 35.5t-37.5 93.5q0 83 78.5 158.5t130.5 75.5q4 0 9 -1l3 -5q-45 -40 -89 -80q-85 -82 -85 -164q0 -88 90 -88q101 0 185 92
q82 89 82 191q0 178 -179 178q-150 0 -302 -173q-148 -169 -148 -321q0 -93 89 -93h20q13 1 20 1q39 0 64.5 -10t25.5 -29q0 -29 -61 -29q-25 0 -68 12.5t-55 12.5q-38 0 -102 -22q-162 -55 -269 -201t-107 -316q0 -111 63 -181t173 -70q156 0 315.5 148.5t159.5 303.5
q0 59 -31 97q-33 42 -90 42q-69 0 -156 -77q-145 -129 -196 -335q-8 -35 -27 -71q-10 6 -10 37q0 194 112.5 340.5t250.5 146.5q82 0 132 -47t50 -129q0 -123 -109 -258q-98 -122 -220 -181q-104 -50 -216 -50q-147 0 -243 79q-103 84 -103 228q0 181 162 333.5t428 211.5z
M1125 1547q0 9 20 38q24 36 56 69q45 42 89 84q49 54 49 105q0 45 -52 45q-19 0 -41.5 -16.5t-22.5 -35.5q0 -2 12 -13.5t12 -26.5q0 -33 -32 -33q-40 0 -40 46q0 48 43.5 85t93.5 37q123 0 123 -108q0 -52 -44 -91q-8 -7 -88 -60q-74 -48 -132 -110q-26 -29 -33 -29
q-13 0 -13 14z" />
    <glyph glyph-name="glyph314" unicode="&#x1ebb;" horiz-adv-x="575" 
d="M152 229q138 30 235.5 118t97.5 165q0 41 -36 41q-67 0 -157 -93.5t-140 -230.5zM41 297q-32 -41 -45 -41q-4 0 -7 2t-3 6q0 14 80 101q196 213 374 213q113 0 113 -95q0 -106 -160 -193q-110 -61 -252 -93q-10 -62 -10 -82q0 -95 82 -95q72 0 163 70q58 45 137 131
q65 70 71 70q12 0 12 -10q0 -18 -104 -123q-166 -168 -289 -168q-83 0 -132 71q-42 63 -42 150q0 40 12 86zM439 634q0 9 20 38q24 36 56 69q45 42 89 84q49 54 49 105q0 45 -52 45q-19 0 -41.5 -16.5t-22.5 -35.5q0 -2 12 -13.5t12 -26.5q0 -33 -32 -33q-40 0 -40 46
q0 48 43.5 85t93.5 37q123 0 123 -108q0 -52 -44 -91q-8 -7 -88 -60q-74 -48 -132 -110q-26 -29 -33 -29q-13 0 -13 14z" />
    <glyph glyph-name="glyph315" unicode="&#x1ebc;" 
d="M678 842q-96 67 -96 166q0 94 50 178q65 111 210.5 199t271.5 88q100 0 159.5 -54t59.5 -153q0 -120 -90 -215t-209 -95q-58 0 -95.5 35.5t-37.5 93.5q0 83 78.5 158.5t130.5 75.5q4 0 9 -1l3 -5q-45 -40 -89 -80q-85 -82 -85 -164q0 -88 90 -88q101 0 185 92
q82 89 82 191q0 178 -179 178q-150 0 -302 -173q-148 -169 -148 -321q0 -93 89 -93h20q13 1 20 1q39 0 64.5 -10t25.5 -29q0 -29 -61 -29q-25 0 -68 12.5t-55 12.5q-38 0 -102 -22q-162 -55 -269 -201t-107 -316q0 -111 63 -181t173 -70q156 0 315.5 148.5t159.5 303.5
q0 59 -31 97q-33 42 -90 42q-69 0 -156 -77q-145 -129 -196 -335q-8 -35 -27 -71q-10 6 -10 37q0 194 112.5 340.5t250.5 146.5q82 0 132 -47t50 -129q0 -123 -109 -258q-98 -122 -220 -181q-104 -50 -216 -50q-147 0 -243 79q-103 84 -103 228q0 181 162 333.5t428 211.5z
M1113 1827q43 0 125 -38t123 -38q42 0 81.5 49t45.5 49q20 0 20 -14q0 -57 -55 -118.5t-112 -61.5q-43 0 -124.5 38t-123.5 38q-43 0 -83 -49.5t-46 -49.5q-19 0 -19 15q0 57 55.5 118.5t112.5 61.5z" />
    <glyph glyph-name="glyph316" unicode="&#x1ebd;" horiz-adv-x="575" 
d="M152 229q138 30 235.5 118t97.5 165q0 41 -36 41q-67 0 -157 -93.5t-140 -230.5zM41 297q-32 -41 -45 -41q-4 0 -7 2t-3 6q0 14 80 101q196 213 374 213q113 0 113 -95q0 -106 -160 -193q-110 -61 -252 -93q-10 -62 -10 -82q0 -95 82 -95q72 0 163 70q58 45 137 131
q65 70 71 70q12 0 12 -10q0 -18 -104 -123q-166 -168 -289 -168q-83 0 -132 71q-42 63 -42 150q0 40 12 86zM362 850q43 0 125 -38t123 -38q42 0 81.5 49t45.5 49q20 0 20 -14q0 -57 -55 -118.5t-112 -61.5q-43 0 -124.5 38t-123.5 38q-43 0 -83 -49.5t-46 -49.5
q-19 0 -19 15q0 57 55.5 118.5t112.5 61.5z" />
    <glyph glyph-name="glyph317" unicode="&#x1ebe;" 
d="M678 842q-96 67 -96 166q0 94 50 178q65 111 210.5 199t271.5 88q100 0 159.5 -54t59.5 -153q0 -120 -90 -215t-209 -95q-58 0 -95.5 35.5t-37.5 93.5q0 83 78.5 158.5t130.5 75.5q4 0 9 -1l3 -5q-45 -40 -89 -80q-85 -82 -85 -164q0 -88 90 -88q101 0 185 92
q82 89 82 191q0 178 -179 178q-150 0 -302 -173q-148 -169 -148 -321q0 -93 89 -93h20q13 1 20 1q39 0 64.5 -10t25.5 -29q0 -29 -61 -29q-25 0 -68 12.5t-55 12.5q-38 0 -102 -22q-162 -55 -269 -201t-107 -316q0 -111 63 -181t173 -70q156 0 315.5 148.5t159.5 303.5
q0 59 -31 97q-33 42 -90 42q-69 0 -156 -77q-145 -129 -196 -335q-8 -35 -27 -71q-10 6 -10 37q0 194 112.5 340.5t250.5 146.5q82 0 132 -47t50 -129q0 -123 -109 -258q-98 -122 -220 -181q-104 -50 -216 -50q-147 0 -243 79q-103 84 -103 228q0 181 162 333.5t428 211.5z
M1275 1714l-240 -127q-98 -52 -119 -52q-26 0 -26 19q0 18 76 64q134 80 244 162q89 67 95 67q20 0 27 -23l70 -244q4 -14 4 -26q0 -21 -17 -21q-30 0 -114 181zM1182 1884q-17 0 -17 15q0 9 64.5 54t103.5 101l50 106q35 72 75 72q61 0 61 -61q0 -107 -188 -217
q-119 -70 -149 -70z" />
    <glyph glyph-name="glyph318" unicode="&#x1ebf;" horiz-adv-x="575" 
d="M152 229q138 30 235.5 118t97.5 165q0 41 -36 41q-67 0 -157 -93.5t-140 -230.5zM41 297q-32 -41 -45 -41q-4 0 -7 2t-3 6q0 14 80 101q196 213 374 213q113 0 113 -95q0 -106 -160 -193q-110 -61 -252 -93q-10 -62 -10 -82q0 -95 82 -95q72 0 163 70q58 45 137 131
q65 70 71 70q12 0 12 -10q0 -18 -104 -123q-166 -168 -289 -168q-83 0 -132 71q-42 63 -42 150q0 40 12 86zM527 797l-240 -127q-98 -52 -119 -52q-26 0 -26 19q0 18 76 64q134 80 244 162q89 67 95 67q20 0 27 -23l70 -244q4 -14 4 -26q0 -21 -17 -21q-30 0 -114 181z
M434 966q-17 0 -17 15q0 9 64.5 54t103.5 101l50 106q35 72 75 72q61 0 61 -61q0 -107 -188 -217q-119 -70 -149 -70z" />
    <glyph glyph-name="glyph319" unicode="&#x1ec0;" 
d="M678 842q-96 67 -96 166q0 94 50 178q65 111 210.5 199t271.5 88q100 0 159.5 -54t59.5 -153q0 -120 -90 -215t-209 -95q-58 0 -95.5 35.5t-37.5 93.5q0 83 78.5 158.5t130.5 75.5q4 0 9 -1l3 -5q-45 -40 -89 -80q-85 -82 -85 -164q0 -88 90 -88q101 0 185 92
q82 89 82 191q0 178 -179 178q-150 0 -302 -173q-148 -169 -148 -321q0 -93 89 -93h20q13 1 20 1q39 0 64.5 -10t25.5 -29q0 -29 -61 -29q-25 0 -68 12.5t-55 12.5q-38 0 -102 -22q-162 -55 -269 -201t-107 -316q0 -111 63 -181t173 -70q156 0 315.5 148.5t159.5 303.5
q0 59 -31 97q-33 42 -90 42q-69 0 -156 -77q-145 -129 -196 -335q-8 -35 -27 -71q-10 6 -10 37q0 194 112.5 340.5t250.5 146.5q82 0 132 -47t50 -129q0 -123 -109 -258q-98 -122 -220 -181q-104 -50 -216 -50q-147 0 -243 79q-103 84 -103 228q0 181 162 333.5t428 211.5z
M1275 1714l-240 -127q-98 -52 -119 -52q-26 0 -26 19q0 18 76 64q134 80 244 162q89 67 95 67q20 0 27 -23l70 -244q4 -14 4 -26q0 -21 -17 -21q-30 0 -114 181zM1455 1896q0 -14 -14 -14q-37 0 -121 103.5t-84 171.5q0 84 66 84q29 0 44 -18.5t15 -113.5q0 -67 47 -142.5
t47 -70.5z" />
    <glyph glyph-name="glyph320" unicode="&#x1ec1;" horiz-adv-x="575" 
d="M152 229q138 30 235.5 118t97.5 165q0 41 -36 41q-67 0 -157 -93.5t-140 -230.5zM41 297q-32 -41 -45 -41q-4 0 -7 2t-3 6q0 14 80 101q196 213 374 213q113 0 113 -95q0 -106 -160 -193q-110 -61 -252 -93q-10 -62 -10 -82q0 -95 82 -95q72 0 163 70q58 45 137 131
q65 70 71 70q12 0 12 -10q0 -18 -104 -123q-166 -168 -289 -168q-83 0 -132 71q-42 63 -42 150q0 40 12 86zM527 797l-240 -127q-98 -52 -119 -52q-26 0 -26 19q0 18 76 64q134 80 244 162q89 67 95 67q20 0 27 -23l70 -244q4 -14 4 -26q0 -21 -17 -21q-30 0 -114 181z
M707 979q0 -14 -14 -14q-37 0 -121 103.5t-84 171.5q0 84 66 84q29 0 44 -18.5t15 -113.5q0 -67 47 -142.5t47 -70.5z" />
    <glyph glyph-name="glyph321" unicode="&#x1ec2;" 
d="M678 842q-96 67 -96 166q0 94 50 178q65 111 210.5 199t271.5 88q100 0 159.5 -54t59.5 -153q0 -120 -90 -215t-209 -95q-58 0 -95.5 35.5t-37.5 93.5q0 83 78.5 158.5t130.5 75.5q4 0 9 -1l3 -5q-45 -40 -89 -80q-85 -82 -85 -164q0 -88 90 -88q101 0 185 92
q82 89 82 191q0 178 -179 178q-150 0 -302 -173q-148 -169 -148 -321q0 -93 89 -93h20q13 1 20 1q39 0 64.5 -10t25.5 -29q0 -29 -61 -29q-25 0 -68 12.5t-55 12.5q-38 0 -102 -22q-162 -55 -269 -201t-107 -316q0 -111 63 -181t173 -70q156 0 315.5 148.5t159.5 303.5
q0 59 -31 97q-33 42 -90 42q-69 0 -156 -77q-145 -129 -196 -335q-8 -35 -27 -71q-10 6 -10 37q0 194 112.5 340.5t250.5 146.5q82 0 132 -47t50 -129q0 -123 -109 -258q-98 -122 -220 -181q-104 -50 -216 -50q-147 0 -243 79q-103 84 -103 228q0 181 162 333.5t428 211.5z
M1275 1714l-240 -127q-98 -52 -119 -52q-26 0 -26 19q0 18 76 64q134 80 244 162q89 67 95 67q20 0 27 -23l70 -244q4 -14 4 -26q0 -21 -17 -21q-30 0 -114 181zM1353 1851q0 9 20 38q24 36 56 69q45 42 89 84q49 54 49 105q0 45 -52 45q-19 0 -41.5 -16.5t-22.5 -35.5
q0 -2 12 -13.5t12 -26.5q0 -33 -32 -33q-40 0 -40 46q0 48 43.5 85t93.5 37q123 0 123 -108q0 -52 -44 -91q-8 -7 -88 -60q-74 -48 -132 -110q-26 -29 -33 -29q-13 0 -13 14z" />
    <glyph glyph-name="glyph322" unicode="&#x1ec3;" horiz-adv-x="575" 
d="M152 229q138 30 235.5 118t97.5 165q0 41 -36 41q-67 0 -157 -93.5t-140 -230.5zM41 297q-32 -41 -45 -41q-4 0 -7 2t-3 6q0 14 80 101q196 213 374 213q113 0 113 -95q0 -106 -160 -193q-110 -61 -252 -93q-10 -62 -10 -82q0 -95 82 -95q72 0 163 70q58 45 137 131
q65 70 71 70q12 0 12 -10q0 -18 -104 -123q-166 -168 -289 -168q-83 0 -132 71q-42 63 -42 150q0 40 12 86zM527 797l-240 -127q-98 -52 -119 -52q-26 0 -26 19q0 18 76 64q134 80 244 162q89 67 95 67q20 0 27 -23l70 -244q4 -14 4 -26q0 -21 -17 -21q-30 0 -114 181z
M605 934q0 9 20 38q24 36 56 69q45 42 89 84q49 54 49 105q0 45 -52 45q-19 0 -41.5 -16.5t-22.5 -35.5q0 -2 12 -13.5t12 -26.5q0 -33 -32 -33q-40 0 -40 46q0 48 43.5 85t93.5 37q123 0 123 -108q0 -52 -44 -91q-8 -7 -88 -60q-74 -48 -132 -110q-26 -29 -33 -29
q-13 0 -13 14z" />
    <glyph glyph-name="glyph323" unicode="&#x1ec4;" 
d="M678 842q-96 67 -96 166q0 94 50 178q65 111 210.5 199t271.5 88q100 0 159.5 -54t59.5 -153q0 -120 -90 -215t-209 -95q-58 0 -95.5 35.5t-37.5 93.5q0 83 78.5 158.5t130.5 75.5q4 0 9 -1l3 -5q-45 -40 -89 -80q-85 -82 -85 -164q0 -88 90 -88q101 0 185 92
q82 89 82 191q0 178 -179 178q-150 0 -302 -173q-148 -169 -148 -321q0 -93 89 -93h20q13 1 20 1q39 0 64.5 -10t25.5 -29q0 -29 -61 -29q-25 0 -68 12.5t-55 12.5q-38 0 -102 -22q-162 -55 -269 -201t-107 -316q0 -111 63 -181t173 -70q156 0 315.5 148.5t159.5 303.5
q0 59 -31 97q-33 42 -90 42q-69 0 -156 -77q-145 -129 -196 -335q-8 -35 -27 -71q-10 6 -10 37q0 194 112.5 340.5t250.5 146.5q82 0 132 -47t50 -129q0 -123 -109 -258q-98 -122 -220 -181q-104 -50 -216 -50q-147 0 -243 79q-103 84 -103 228q0 181 162 333.5t428 211.5z
M1275 1714l-240 -127q-98 -52 -119 -52q-26 0 -26 19q0 18 76 64q134 80 244 162q89 67 95 67q20 0 27 -23l70 -244q4 -14 4 -26q0 -21 -17 -21q-30 0 -114 181zM1296 2098q43 0 125 -38t123 -38q42 0 81.5 49t45.5 49q20 0 20 -14q0 -57 -55 -118.5t-112 -61.5
q-43 0 -124.5 38t-123.5 38q-43 0 -83 -49.5t-46 -49.5q-19 0 -19 15q0 57 55.5 118.5t112.5 61.5z" />
    <glyph glyph-name="glyph324" unicode="&#x1ec5;" horiz-adv-x="575" 
d="M152 229q138 30 235.5 118t97.5 165q0 41 -36 41q-67 0 -157 -93.5t-140 -230.5zM41 297q-32 -41 -45 -41q-4 0 -7 2t-3 6q0 14 80 101q196 213 374 213q113 0 113 -95q0 -106 -160 -193q-110 -61 -252 -93q-10 -62 -10 -82q0 -95 82 -95q72 0 163 70q58 45 137 131
q65 70 71 70q12 0 12 -10q0 -18 -104 -123q-166 -168 -289 -168q-83 0 -132 71q-42 63 -42 150q0 40 12 86zM527 797l-240 -127q-98 -52 -119 -52q-26 0 -26 19q0 18 76 64q134 80 244 162q89 67 95 67q20 0 27 -23l70 -244q4 -14 4 -26q0 -21 -17 -21q-30 0 -114 181z
M549 1180q43 0 125 -38t123 -38q42 0 81.5 49t45.5 49q20 0 20 -14q0 -57 -55 -118.5t-112 -61.5q-43 0 -124.5 38t-123.5 38q-43 0 -83 -49.5t-46 -49.5q-19 0 -19 15q0 57 55.5 118.5t112.5 61.5z" />
    <glyph glyph-name="glyph325" unicode="&#x1ec6;" 
d="M678 842q-96 67 -96 166q0 94 50 178q65 111 210.5 199t271.5 88q100 0 159.5 -54t59.5 -153q0 -120 -90 -215t-209 -95q-58 0 -95.5 35.5t-37.5 93.5q0 83 78.5 158.5t130.5 75.5q4 0 9 -1l3 -5q-45 -40 -89 -80q-85 -82 -85 -164q0 -88 90 -88q101 0 185 92
q82 89 82 191q0 178 -179 178q-150 0 -302 -173q-148 -169 -148 -321q0 -93 89 -93h20q13 1 20 1q39 0 64.5 -10t25.5 -29q0 -29 -61 -29q-25 0 -68 12.5t-55 12.5q-38 0 -102 -22q-162 -55 -269 -201t-107 -316q0 -111 63 -181t173 -70q156 0 315.5 148.5t159.5 303.5
q0 59 -31 97q-33 42 -90 42q-69 0 -156 -77q-145 -129 -196 -335q-8 -35 -27 -71q-10 6 -10 37q0 194 112.5 340.5t250.5 146.5q82 0 132 -47t50 -129q0 -123 -109 -258q-98 -122 -220 -181q-104 -50 -216 -50q-147 0 -243 79q-103 84 -103 228q0 181 162 333.5t428 211.5z
M1275 1714l-240 -127q-98 -52 -119 -52q-26 0 -26 19q0 18 76 64q134 80 244 162q89 67 95 67q20 0 27 -23l70 -244q4 -14 4 -26q0 -21 -17 -21q-30 0 -114 181zM265 -252q0 34 25.5 64t58.5 30q58 0 58 -59q0 -33 -25 -63.5t-57 -30.5q-60 0 -60 59z" />
    <glyph glyph-name="glyph326" unicode="&#x1ec7;" horiz-adv-x="575" 
d="M152 229q138 30 235.5 118t97.5 165q0 41 -36 41q-67 0 -157 -93.5t-140 -230.5zM41 297q-32 -41 -45 -41q-4 0 -7 2t-3 6q0 14 80 101q196 213 374 213q113 0 113 -95q0 -106 -160 -193q-110 -61 -252 -93q-10 -62 -10 -82q0 -95 82 -95q72 0 163 70q58 45 137 131
q65 70 71 70q12 0 12 -10q0 -18 -104 -123q-166 -168 -289 -168q-83 0 -132 71q-42 63 -42 150q0 40 12 86zM527 797l-240 -127q-98 -52 -119 -52q-26 0 -26 19q0 18 76 64q134 80 244 162q89 67 95 67q20 0 27 -23l70 -244q4 -14 4 -26q0 -21 -17 -21q-30 0 -114 181z
M45 -252q0 34 25.5 64t58.5 30q58 0 58 -59q0 -33 -25 -63.5t-57 -30.5q-60 0 -60 59z" />
    <glyph glyph-name="glyph327" unicode="&#x1ec8;" horiz-adv-x="1139" 
d="M1028 688q285 531 649 721q-365 -28 -587 -179q-224 -154 -224 -358q0 -76 44 -127t118 -57zM1165 657q-141 -268 -312 -438q-230 -229 -468 -229q-95 0 -164 36q-88 46 -88 132q0 100 92 100q74 0 74 -82q0 -18 -12.5 -46t-12.5 -32q0 -40 46 -62q36 -18 81 -18
q334 0 615 641q-103 14 -167 78q-67 68 -67 170q0 313 566 471q244 68 417 68q22 0 27 -10q-2 -9 -48 -26q-53 -20 -87 -40q-134 -79 -273 -305q-63 -101 -198 -371q114 24 229 132q12 13 37 28l4 -2q2 -4 2 -8q0 -37 -86 -96q-70 -49 -121 -68q-42 -16 -86 -23zM1635 1547
q0 9 20 38q24 36 56 69q45 42 89 84q49 54 49 105q0 45 -52 45q-19 0 -41.5 -16.5t-22.5 -35.5q0 -2 12 -13.5t12 -26.5q0 -33 -32 -33q-40 0 -40 46q0 48 43.5 85t93.5 37q123 0 123 -108q0 -52 -44 -91q-8 -7 -88 -60q-74 -48 -132 -110q-26 -29 -33 -29q-13 0 -13 14z
" />
    <glyph glyph-name="glyph328" unicode="&#x1ec9;" horiz-adv-x="451" 
d="M182 449q-50 -53 -99 -106q-82 -87 -89 -87q-1 0 -6 2l-2 4q1 30 260 297l147 10l-203 -319q-100 -157 -100 -193q0 -39 35 -39q67 0 199 136.5t135 136.5q12 0 12 -10q0 -22 -110 -129q-100 -99 -140 -125q-54 -37 -94 -37q-111 0 -111 129q0 54 66 170zM299 634
q0 9 20 38q24 36 56 69q45 42 89 84q49 54 49 105q0 45 -52 45q-19 0 -41.5 -16.5t-22.5 -35.5q0 -2 12 -13.5t12 -26.5q0 -33 -32 -33q-40 0 -40 46q0 48 43.5 85t93.5 37q123 0 123 -108q0 -52 -44 -91q-8 -7 -88 -60q-74 -48 -132 -110q-26 -29 -33 -29q-13 0 -13 14z
" />
    <glyph glyph-name="glyph329" unicode="&#x1eca;" horiz-adv-x="1139" 
d="M1028 688q285 531 649 721q-365 -28 -587 -179q-224 -154 -224 -358q0 -76 44 -127t118 -57zM1165 657q-141 -268 -312 -438q-230 -229 -468 -229q-95 0 -164 36q-88 46 -88 132q0 100 92 100q74 0 74 -82q0 -18 -12.5 -46t-12.5 -32q0 -40 46 -62q36 -18 81 -18
q334 0 615 641q-103 14 -167 78q-67 68 -67 170q0 313 566 471q244 68 417 68q22 0 27 -10q-2 -9 -48 -26q-53 -20 -87 -40q-134 -79 -273 -305q-63 -101 -198 -371q114 24 229 132q12 13 37 28l4 -2q2 -4 2 -8q0 -37 -86 -96q-70 -49 -121 -68q-42 -16 -86 -23zM205 -252
q0 34 25.5 64t58.5 30q58 0 58 -59q0 -33 -25 -63.5t-57 -30.5q-60 0 -60 59z" />
    <glyph glyph-name="glyph330" unicode="&#x1ecb;" horiz-adv-x="451" 
d="M182 449q-50 -53 -99 -106q-82 -87 -89 -87q-1 0 -6 2l-2 4q1 30 260 297l147 10l-203 -319q-100 -157 -100 -193q0 -39 35 -39q67 0 199 136.5t135 136.5q12 0 12 -10q0 -22 -110 -129q-100 -99 -140 -125q-54 -37 -94 -37q-111 0 -111 129q0 54 66 170zM434 891
q0 33 26 62.5t58 29.5q55 0 55 -59q0 -33 -24.5 -63t-56.5 -30q-58 0 -58 60zM-85 -252q0 34 25.5 64t58.5 30q58 0 58 -59q0 -33 -25 -63.5t-57 -30.5q-60 0 -60 59z" />
    <glyph glyph-name="glyph331" unicode="&#x1ecc;" horiz-adv-x="1145" 
d="M1317 1040q0 -259 -203 -562q-196 -292 -434 -418q-133 -70 -246 -70q-153 0 -238 118q-75 104 -75 263q0 178 102 379q134 264 400 478q296 238 561 238q107 0 179 -50q83 -57 83 -159q0 -92 -23 -92q-8 4 -8 21q0 9 2 27.5t2 27.5q0 97 -66 149q-59 48 -159 48
q-225 0 -458 -209q-209 -187 -352 -470q-140 -278 -140 -497q0 -102 49 -166q54 -71 153 -71q114 0 257 82q314 178 496 584q89 201 89 345q0 86 -32 144q-40 73 -119 73q-111 0 -258 -145q-202 -200 -284 -492q-8 -34 -28 -71q-8 6 -8 30q0 162 119 381q83 153 205 246.5
t229 93.5q105 0 159 -79q46 -67 46 -177zM215 -252q0 34 25.5 64t58.5 30q58 0 58 -59q0 -33 -25 -63.5t-57 -30.5q-60 0 -60 59z" />
    <glyph glyph-name="glyph332" unicode="&#x1ecd;" horiz-adv-x="680" 
d="M115 96q0 -73 63 -73q34 0 88 34q93 58 168 167q82 119 82 220q0 103 -78 103q-80 0 -177 -122q-77 -98 -116 -197q-30 -76 -30 -132zM459 186q37 -6 33 -6q95 0 196 121q4 5 17 6l6 -3q2 -5 2 -9q0 -8 -25 -37q-90 -106 -209 -106q-22 0 -46 3q-152 -165 -271 -165
q-137 0 -137 213q0 36 16 94q-32 -41 -45 -41q-4 0 -7 2t-3 6q0 13 84 105q195 213 360 213q141 0 141 -148q0 -102 -112 -248zM-5 -252q0 34 25.5 64t58.5 30q58 0 58 -59q0 -33 -25 -63.5t-57 -30.5q-60 0 -60 59z" />
    <glyph glyph-name="glyph333" unicode="&#x1ece;" horiz-adv-x="1145" 
d="M1317 1040q0 -259 -203 -562q-196 -292 -434 -418q-133 -70 -246 -70q-153 0 -238 118q-75 104 -75 263q0 178 102 379q134 264 400 478q296 238 561 238q107 0 179 -50q83 -57 83 -159q0 -92 -23 -92q-8 4 -8 21q0 9 2 27.5t2 27.5q0 97 -66 149q-59 48 -159 48
q-225 0 -458 -209q-209 -187 -352 -470q-140 -278 -140 -497q0 -102 49 -166q54 -71 153 -71q114 0 257 82q314 178 496 584q89 201 89 345q0 86 -32 144q-40 73 -119 73q-111 0 -258 -145q-202 -200 -284 -492q-8 -34 -28 -71q-8 6 -8 30q0 162 119 381q83 153 205 246.5
t229 93.5q105 0 159 -79q46 -67 46 -177zM1195 1547q0 9 20 38q24 36 56 69q45 42 89 84q49 54 49 105q0 45 -52 45q-19 0 -41.5 -16.5t-22.5 -35.5q0 -2 12 -13.5t12 -26.5q0 -33 -32 -33q-40 0 -40 46q0 48 43.5 85t93.5 37q123 0 123 -108q0 -52 -44 -91q-8 -7 -88 -60
q-74 -48 -132 -110q-26 -29 -33 -29q-13 0 -13 14z" />
    <glyph glyph-name="glyph334" unicode="&#x1ecf;" horiz-adv-x="680" 
d="M115 96q0 -73 63 -73q34 0 88 34q93 58 168 167q82 119 82 220q0 103 -78 103q-80 0 -177 -122q-77 -98 -116 -197q-30 -76 -30 -132zM459 186q37 -6 33 -6q95 0 196 121q4 5 17 6l6 -3q2 -5 2 -9q0 -8 -25 -37q-90 -106 -209 -106q-22 0 -46 3q-152 -165 -271 -165
q-137 0 -137 213q0 36 16 94q-32 -41 -45 -41q-4 0 -7 2t-3 6q0 13 84 105q195 213 360 213q141 0 141 -148q0 -102 -112 -248zM429 634q0 9 20 38q24 36 56 69q45 42 89 84q49 54 49 105q0 45 -52 45q-19 0 -41.5 -16.5t-22.5 -35.5q0 -2 12 -13.5t12 -26.5q0 -33 -32 -33
q-40 0 -40 46q0 48 43.5 85t93.5 37q123 0 123 -108q0 -52 -44 -91q-8 -7 -88 -60q-74 -48 -132 -110q-26 -29 -33 -29q-13 0 -13 14z" />
    <glyph glyph-name="glyph335" unicode="&#x1ed0;" horiz-adv-x="1145" 
d="M1317 1040q0 -259 -203 -562q-196 -292 -434 -418q-133 -70 -246 -70q-153 0 -238 118q-75 104 -75 263q0 178 102 379q134 264 400 478q296 238 561 238q107 0 179 -50q83 -57 83 -159q0 -92 -23 -92q-8 4 -8 21q0 9 2 27.5t2 27.5q0 97 -66 149q-59 48 -159 48
q-225 0 -458 -209q-209 -187 -352 -470q-140 -278 -140 -497q0 -102 49 -166q54 -71 153 -71q114 0 257 82q314 178 496 584q89 201 89 345q0 86 -32 144q-40 73 -119 73q-111 0 -258 -145q-202 -200 -284 -492q-8 -34 -28 -71q-8 6 -8 30q0 162 119 381q83 153 205 246.5
t229 93.5q105 0 159 -79q46 -67 46 -177zM1335 1714l-240 -127q-98 -52 -119 -52q-26 0 -26 19q0 18 76 64q134 80 244 162q89 67 95 67q20 0 27 -23l70 -244q4 -14 4 -26q0 -21 -17 -21q-30 0 -114 181zM1242 1884q-17 0 -17 15q0 9 64.5 54t103.5 101l50 106q35 72 75 72
q61 0 61 -61q0 -107 -188 -217q-119 -70 -149 -70z" />
    <glyph glyph-name="glyph336" unicode="&#x1ed1;" horiz-adv-x="680" 
d="M115 96q0 -73 63 -73q34 0 88 34q93 58 168 167q82 119 82 220q0 103 -78 103q-80 0 -177 -122q-77 -98 -116 -197q-30 -76 -30 -132zM459 186q37 -6 33 -6q95 0 196 121q4 5 17 6l6 -3q2 -5 2 -9q0 -8 -25 -37q-90 -106 -209 -106q-22 0 -46 3q-152 -165 -271 -165
q-137 0 -137 213q0 36 16 94q-32 -41 -45 -41q-4 0 -7 2t-3 6q0 13 84 105q195 213 360 213q141 0 141 -148q0 -102 -112 -248zM549 797l-240 -127q-98 -52 -119 -52q-26 0 -26 19q0 18 76 64q134 80 244 162q89 67 95 67q20 0 27 -23l70 -244q4 -14 4 -26q0 -21 -17 -21
q-30 0 -114 181zM456 966q-17 0 -17 15q0 9 64.5 54t103.5 101l50 106q35 72 75 72q61 0 61 -61q0 -107 -188 -217q-119 -70 -149 -70z" />
    <glyph glyph-name="glyph337" unicode="&#x1ed2;" horiz-adv-x="1145" 
d="M1317 1040q0 -259 -203 -562q-196 -292 -434 -418q-133 -70 -246 -70q-153 0 -238 118q-75 104 -75 263q0 178 102 379q134 264 400 478q296 238 561 238q107 0 179 -50q83 -57 83 -159q0 -92 -23 -92q-8 4 -8 21q0 9 2 27.5t2 27.5q0 97 -66 149q-59 48 -159 48
q-225 0 -458 -209q-209 -187 -352 -470q-140 -278 -140 -497q0 -102 49 -166q54 -71 153 -71q114 0 257 82q314 178 496 584q89 201 89 345q0 86 -32 144q-40 73 -119 73q-111 0 -258 -145q-202 -200 -284 -492q-8 -34 -28 -71q-8 6 -8 30q0 162 119 381q83 153 205 246.5
t229 93.5q105 0 159 -79q46 -67 46 -177zM1335 1714l-240 -127q-98 -52 -119 -52q-26 0 -26 19q0 18 76 64q134 80 244 162q89 67 95 67q20 0 27 -23l70 -244q4 -14 4 -26q0 -21 -17 -21q-30 0 -114 181zM1515 1896q0 -14 -14 -14q-37 0 -121 103.5t-84 171.5q0 84 66 84
q29 0 44 -18.5t15 -113.5q0 -67 47 -142.5t47 -70.5z" />
    <glyph glyph-name="glyph338" unicode="&#x1ed3;" horiz-adv-x="680" 
d="M115 96q0 -73 63 -73q34 0 88 34q93 58 168 167q82 119 82 220q0 103 -78 103q-80 0 -177 -122q-77 -98 -116 -197q-30 -76 -30 -132zM459 186q37 -6 33 -6q95 0 196 121q4 5 17 6l6 -3q2 -5 2 -9q0 -8 -25 -37q-90 -106 -209 -106q-22 0 -46 3q-152 -165 -271 -165
q-137 0 -137 213q0 36 16 94q-32 -41 -45 -41q-4 0 -7 2t-3 6q0 13 84 105q195 213 360 213q141 0 141 -148q0 -102 -112 -248zM549 797l-240 -127q-98 -52 -119 -52q-26 0 -26 19q0 18 76 64q134 80 244 162q89 67 95 67q20 0 27 -23l70 -244q4 -14 4 -26q0 -21 -17 -21
q-30 0 -114 181zM729 979q0 -14 -14 -14q-37 0 -121 103.5t-84 171.5q0 84 66 84q29 0 44 -18.5t15 -113.5q0 -67 47 -142.5t47 -70.5z" />
    </font>
</defs>
</svg>
